<?xml version="1.0" encoding="UTF-8" standalone="no"?>
<svg
   xmlns:dc="http://purl.org/dc/elements/1.1/"
   xmlns:cc="http://creativecommons.org/ns#"
   xmlns:rdf="http://www.w3.org/1999/02/22-rdf-syntax-ns#"
   xmlns:svg="http://www.w3.org/2000/svg"
   xmlns="http://www.w3.org/2000/svg"
   viewBox="0 0 720 720"
   height="720"
   width="720"
   xml:space="preserve"
   version="1.1"
   id="svg2"><metadata
     id="metadata8"><rdf:RDF><cc:Work
         rdf:about=""><dc:format>image/svg+xml</dc:format><dc:type
           rdf:resource="http://purl.org/dc/dcmitype/StillImage" /><dc:title></dc:title></cc:Work></rdf:RDF></metadata><defs
     id="defs6"><clipPath
       id="clipPath22"
       clipPathUnits="userSpaceOnUse"><path
         id="path24"
         d="M 0,540 720,540 720,0 0,0 0,540 Z" /></clipPath></defs><g
     transform="matrix(1.25,0,0,-1.25,0,720)"
     id="g10"><g
       transform="translate(273.80732,232.03063)"
       id="g14"><path
         id="path16"
         style="fill:#000000;fill-opacity:1;fill-rule:nonzero;stroke:none"
         d="m -0.60909191,-167.44232 -0.39166879,-0.0834 -0.1080487,0 -0.8959024,0.1283 -0.5222251,0.39394 -0.074269,0.67754 0.4366929,0.95442 0.4502047,0.2116 0.4051806,-0.58076 0.39616679,-0.89365 0.4367018,-0.76309 -0.1328142,-0.045 z m 240.17916191,368.3239 -6.24426,3.33148 -0.71132,0.0855 -2.24199,-0.23861 -3.28422,0.94992 -0.43218,-0.12156 -0.92291,-0.49972 -0.48847,-0.1328 -0.37817,0.063 -0.83512,0.29937 -0.43893,0.0675 -0.48848,-0.10356 -0.46596,-0.19358 -0.47045,-0.11481 -0.54474,0.11481 -0.36916,0.31063 -0.38267,0.7856 -0.28588,0.3534 -0.87563,0.45471 -1.72652,0.30839 -0.85313,0.53348 -0.52223,0.67079 -0.89365,1.43165 -0.54924,0.5875 0.0699,0.19809 0.0968,0.13282 0.29938,0.18682 -0.26336,0.87114 -0.71357,0.26112 -1.71301,0.11705 -0.16433,0.6708 -0.76083,0.0675 -0.92741,-0.28137 -0.65505,-0.37142 -0.18907,-0.29713 -0.28588,-0.88013 -0.19584,-0.33315 -0.30388,-0.13056 -0.79235,-0.1058 -0.36017,-0.11931 -0.24535,-0.29488 -0.4187,-0.85987 -0.22284,-0.23862 -0.25211,0.036 -1.06022,0.49973 -3.39675,0.0383 -0.62127,0.20034 -0.61453,0.3309 -1.51268,1.10074 -0.21159,0.0203 -0.35565,-0.35565 0.0225,-0.3354 0.13056,-0.30614 -0.0608,-0.31064 -1.21328,-0.76084 -0.86663,0.68655 -0.45245,1.64323 0.0135,2.12494 -0.84413,0.036 -2.46258,1.40463 -0.43895,0.0585 -1.14351,-0.1058 -1.64772,0.36916 -0.39618,-0.0991 -0.2251,-0.82837 0.29937,-0.97468 0.14183,-0.99944 -0.67756,-0.9049 -0.49747,-0.1193 -1.53067,0.574 -1.76254,0.0248 -0.46595,0.18908 -0.49747,0.84188 0.10579,0.73832 0.20709,0.76309 -0.24985,0.94992 -0.17108,0 -0.52448,-0.3444 -0.17558,-0.027 -0.1058,0.21609 -0.0743,0.47496 -0.045,0.13056 -0.13056,0.26337 -0.31288,1.10524 -0.16207,0.17557 -0.54924,0.20034 -0.2116,0.15532 -0.0405,0.25211 0.0765,0.60551 -0.063,0.26113 -2.61116,2.51885 -0.66404,0.81037 -0.25436,0.69781 0.2296,0.54924 0.6888,0.036 0.18009,0.48847 -0.13057,0.35565 -1.91784,2.03041 -0.27238,0.40743 0.0743,0.0225 -0.018,0.34441 -0.10354,0.49972 -0.23411,0.49973 -0.68205,0.65053 -3.61284,1.80755 -0.4412,0.0743 -0.32415,-0.12155 -0.74283,-0.51098 -0.41868,-0.081 -0.33314,0.0338 -0.79686,0.081 -1.04447,0.57399 -1.94936,1.4609 -1.08048,0.4322 -1.11649,0.11254 -2.26,-0.24535 0.24986,-0.5605 -1.1075,-0.1058 -0.28587,-0.1103 -0.19809,-0.36691 0,-0.39168 -0.0968,-0.32189 -0.47495,-0.17783 -0.38266,-0.583 -0.58302,-0.21835 -3.35173,-0.19359 -0.6843,-0.23635 -0.5335,1.73101 -0.75632,0.74959 -2.49187,0.59426 -0.99718,0.46145 -0.68205,0.64379 -1.24481,1.64998 -0.41643,0.10581 -0.036,0.0157 -0.86664,0.52224 -0.42994,0.0699 -0.41418,-0.2251 -0.51323,-0.6753 -0.4412,-0.19133 -0.0428,-0.0225 -0.86214,0.15082 -0.84412,0.41868 -0.87564,0.20034 -0.018,0 -0.96567,-0.49746 -0.47947,-0.64154 0,-0.0158 -0.0833,-0.4277 -0.036,-0.054 -0.0968,-0.18233 -0.26336,-0.0316 -0.31739,-0.0495 -0.34216,0.0945 -1.23578,0.5695 -0.50873,-0.22509 -0.22961,-0.10581 -0.47496,-0.3714 -0.50872,-0.40518 -0.78786,-0.45695 -0.2386,-0.13282 -0.85087,0.22286 -0.19808,0.41643 -0.045,0.1193 0.0405,0.53798 0.13055,0.5695 0,0.62804 -0.15756,0.55824 -1.89984,3.43728 -0.73833,0.65503 -1.2268,0.4502 -0.18908,0.11481 -0.24535,0.15532 -0.23861,0.0383 -0.0158,0 -0.14181,-0.15307 -0.16658,-0.3354 -0.2161,-0.30839 -0.0653,-0.0225 -0.20708,-0.072 -0.65054,0.13281 -0.2071,0.23861 0,0.005 -0.0428,0.27686 -0.0405,0.27238 0.1238,0.85537 0,0.0158 0.0473,0.0225 0.26787,0.17558 0.063,0.0878 0.11705,0.13056 -0.27236,0.9094 -0.75859,0.92966 -0.83287,0.82387 -0.47496,-0.0158 -0.36916,-0.009 -0.63254,-0.18009 -1.15251,-0.31963 -0.90039,0.27011 -0.72482,0.53574 -0.19359,0.17783 -0.39168,0.38492 -0.97242,1.40687 -0.70231,1.02645 -0.47497,0.44795 -0.31738,0.1013 -1.08499,0.30614 -0.78335,0.4547 -1.46314,1.45189 -0.64153,0.3399 -0.0765,0.0518 -0.39843,-0.0248 -0.42769,-0.027 -0.77209,-0.27236 -0.93867,-0.32416 -0.65728,-0.10579 -0.22511,-0.0316 -0.62803,0.0788 -0.40518,0.0585 0,0.0181 -0.35566,0.45019 0.009,1.05573 0,1.22679 -0.0923,0.34215 0,0.0135 -0.39167,0.63929 -0.0833,0.31063 0.0653,0.36916 0.36015,0.40518 0.027,0.0698 0.1058,0.24987 0.0428,0.19133 0.17108,0.55824 0.0923,0.23411 0.1103,0.27237 0.0923,0.52448 -0.0338,0.36917 -0.0405,0.42994 -0.58976,1.10749 -0.0157,0.0113 0,0.006 -1.08724,0.44344 -0.77434,0.31964 -0.0113,0 -0.52449,0.85539 0.18008,0.97467 1.07823,2.69895 0.42544,1.08274 0.018,0.11703 0.0225,0.53801 -0.0585,0.50647 0.036,0.39392 0.009,0.15757 0.20707,0.46145 0.53124,1.15026 0,0.0157 0.24987,0.0585 0.40518,-0.45021 0.009,-0.0112 0.0608,0.62578 0.036,0.4547 0.2116,1.25831 0.0113,0.28363 0.036,0.79685 -0.36466,0.47496 -1.2268,-0.25662 -0.45244,0.18684 -0.16658,0.86889 -0.009,0.0449 -1.06022,-0.48396 -4.20711,-4.25439 -0.22961,-0.48846 -0.10354,-0.60777 0.0743,-0.26111 0.0204,-0.10581 0.0585,-0.1328 0.0832,-0.16207 0.027,-0.20484 0.0203,-0.22511 -0.10355,-0.64379 -0.2071,-1.30782 -0.26786,-0.97243 -0.0585,-0.10805 -0.29937,-0.59427 -0.29714,-0.18682 -0.1328,-0.0855 -1.65225,-0.26562 -1.3686,-0.68656 -4.123827,-2.03715 -1.159262,-0.21159 -5.197552,1.42488 -1.015206,0.28813 -1.139005,-0.16433 -1.87283,-0.27236 -0.427688,0.11705 -0.103542,0.0315 -2.20823,1.19303 0.02249,0 0.290376,-0.0225 -0.03147,0.55825 -0.01804,0.32864 -0.10579,0.47497 -0.108049,0.4682 -0.180078,0.0675 -0.0091,0 0.166576,0.72482 0.171074,0.39392 0.01804,0.0495 0.0045,0.009 0.290376,0.36015 0.434445,0.40068 0.285877,0.27463 0.63703,0.45469 0.272376,0.18909 0.52898,0.26786 0.420942,0.20709 0.0045,0.28588 0,0.11256 -0.267868,0.49522 -0.141811,0.33089 -0.09455,0.2386 -0.664044,2.64942 -0.396176,0.20036 -0.418683,-0.0699 -0.781099,-0.35565 -0.24761,0.11931 -0.315141,0.16207 0.0788,0.91841 0.01352,0.18908 0.47946,1.54643 0.28138,0.91391 0.204834,1.11875 0.168825,0.4502 0.01125,0.0495 0.418692,0.60777 0.93641,0.71806 0.05632,0.0743 0.326396,0.36917 0.05178,0.31964 0.04498,0.32188 -0.243104,0.40518 -0.490721,0.42544 -0.330893,0.21385 -0.19359,0.11931 -0.35565,0.13055 -0.488472,-0.21159 -0.0091,0 -0.01577,-0.39393 0.02476,-0.2251 0.02702,-0.20259 -0.0045,0 -0.1058,-0.10804 -0.184585,-0.17559 -0.483966,0.22511 -0.240854,0.11706 -0.821615,1.77602 -0.252108,0.53124 -0.0045,0.0135 -0.81261,0.72257 -0.540235,0.31288 -0.299381,0.17558 -1.30558,1.44965 -0.036,0.0135 -0.733824,0.35566 -0.364663,-0.045 -0.465957,-0.0495 -1.66123,-0.70456 -0.84863,-0.35341 -0.889137,0 -0.166576,0.072 -0.535737,0.26112 -0.382672,0.25661 -0.299381,0.21834 -0.808112,0.4142 -1.640972,0.19358 -1.719767,-0.11931 -0.227351,-0.0991 -0.303878,-0.10581 -0.321897,-0.36915 -0.706811,-1.19528 -0.128308,-0.38492 -0.03827,-0.13281 -0.04053,-0.0698 -0.06982,-0.11705 -0.17558,-0.12156 -0.0653,0.063 -0.06303,-0.036 -0.153065,-0.40518 -1.384366,1.31008 -0.344405,2.50537 -0.0091,2.87677 -0.328644,2.39281 -0.641527,1.16151 -0.783347,0.74508 -0.862133,0.42994 -0.891395,0.19359 -2.392815,0.009 -0.153064,0 -0.483966,0.36691 -0.0091,0 0.351152,0.63253 0.036,0.0585 0.06076,0.49747 -0.258864,0.32414 -0.166576,0.045 -0.400673,0.12381 -0.382674,-0.0248 -0.175571,-0.0135 -0.328653,-0.22286 -0.07653,-0.0518 -0.139561,-0.13956 -0.245362,-0.25211 -0.146316,-0.10804 -0.396176,-0.29488 -1.348348,-0.49973 -0.373668,-0.13056 -0.364654,-0.0495 -0.594263,-0.0699 -0.686561,0.19134 -1.726514,0.90266 -0.519975,0.40066 -0.535737,0.70682 -0.0788,0.0923 -0.202594,0.7023 -0.0653,1.97413 -1.037713,3.48004 -0.321888,1.79404 0.285869,0.53799 0.26337,0.49972 -0.175579,0.59201 -0.267869,0.89365 -0.285878,0.50873 -0.036,0.0608 -0.517736,0.16882 0,0.006 -0.558245,0.0743 -0.312883,0.36691 -0.488474,1.17727 -0.434443,0.7991 -0.189083,0.3264 -0.576255,1.03771 -0.668541,0.63028 -0.812611,0.25211 -0.211599,0.054 -1.895338,-0.58977 -1.204278,-0.38268 -0.402932,-0.11479 -1.692752,-0.53799 -0.483966,-0.30614 -0.427688,-0.26111 -0.346654,-0.38266 -0.364654,-0.39394 -0.497478,-0.85537 -0.6888,-1.19978 -0.524484,-0.40518 -0.171074,0.0495 -0.364663,0.072 -0.0788,0.009 -0.12381,0.0585 -0.05622,0.0383 -2.752972,1.2583 -0.400673,0.17557 -0.21385,0.18234 -0.51098,0.42543 -0.0788,0.15532 -0.132815,0.2386 -0.526731,1.24932 -0.225102,0.41192 -0.162069,0.15757 -1.305582,1.2493 -0.258863,0.46372 -0.119303,0.42318 -0.0091,0 -0.193581,0.36016 -0.517736,0.27011 -0.09679,0.0181 -0.276873,0.0203 -0.731576,-0.0968 -0.324146,0.0157 -0.576254,0.11705 -0.236356,0.1058 -0.05405,0.027 -0.2116,0.35565 -0.153063,0.36692 -0.180079,0.41418 -0.0968,0.10805 -0.08325,0.0968 -0.123809,0.0585 -0.355659,0.18009 -0.0968,0.16433 -0.02702,0.0473 0,0.0135 0.01804,0.13056 0.02702,0.14407 0.303888,0.70005 0.03827,0.40744 -0.378167,1.34159 -0.396175,1.38661 0.225093,0.5695 0.33765,0.33765 0.576262,0.56951 0.137303,0.2251 0.0923,0.15531 -0.12381,1.23805 -0.623527,0.93642 -0.0045,0 -1.402375,1.5577 -0.391668,1.21327 -0.06973,0.48622 -0.326395,2.27126 -0.0653,0.16432 -0.526732,1.2493 -0.580752,-0.41643 -1.604962,-0.76309 -3.21443,-0.84188 -2.361293,0.29264 -0.328645,-0.0564 -0.414186,-0.22511 -6.7597434,-2.20823 -6.3253001,-0.7991 -1.3505959,-0.79685 -0.7000635,0.14407 -7.5520961,-3.30672 -1.213283,-1.13901 -1.14801,-1.59145 -0.655039,-0.6753 -0.751834,-0.28812 -0.819367,-0.0743 -0.337649,-0.13956 -0.963425,-0.77434 0.01352,-0.30839 0.08552,-0.86664 0.639278,-2.29376 0.252118,-1.42489 -0.216098,-1.18177 -0.445698,-0.91165 -0.835118,-2.4626 -0.195838,-1.10523 0.02022,-1.28306 0.409679,-2.64943 0.166576,-2.89928 0.216097,-0.85989 1.066976,-1.64998 -1.224547,-0.92516 -0.202586,-2.52112 -0.03156,-2.89928 -0.711317,-2.07993 0,-0.42768 2.169962,-1.72652 0,-0.37816 -1.508167,0.31963 -0.810361,-1.65447 -0.3354,-2.40182 -0.06076,-1.97412 0.380414,-0.50873 1.685996,-0.81711 0.382674,-0.78785 0.249858,-0.68656 0.616771,-0.48846 0.790103,-0.26337 0.763088,-0.0112 0,-0.46146 -0.808104,0 0.216089,-0.4637 0.207093,-0.27462 0.270118,-0.0946 0.407438,0.0338 0,-0.42768 -0.326396,-0.31965 -0.389428,-0.036 -3.900973,1.90659 -1.3596,-0.18234 -1.337094,-1.8188 -0.884648,-3.24369 -0.335391,-0.52448 -0.465957,-0.39392 -2.082172,-2.56389 -5.136781,-4.15083 -1.573441,-1.74678 -0.945425,-0.3354 -0.963424,-0.75858 -16.222939,-5.25384 -3.39225,0.0473 -3.079367,-1.12775 -1.548683,-1.06023 -1.364108,-0.41643 -4.936436,-2.95556 -0.396177,-0.57625 -5.148023,-2.38606 -0.398424,-0.38266 -0.425439,-0.006 -1.971875,-1.59595 -0.587507,-0.69781 -1.577957,-5.34837 -2.023644,-3.7119 -0.123801,-0.45019 -0.04054,-0.65505 0.1238,-0.50872 0.558244,-0.38492 0.121561,-0.37142 0.335392,-0.5785 0.785604,-0.47496 0.904898,-0.29713 0.693308,-0.0473 0.803605,0 2.822752,-0.96343 3.259442,-0.45244 3.252689,0.47721 2.795738,1.75803 -0.65279,-0.9004 -0.756333,-0.68206 -1.812054,-0.92516 -9.809844,-2.23749 -2.622407,-1.88633 -0.938669,-1.48791 -0.353409,-0.28588 -0.9004,-0.2386 -1.075981,-0.95893 -1.843567,-0.86663 -6.311788,-1.51268 -1.003951,-0.90489 -3.691631,2.23749 -1.976381,0.46595 -1.197524,0.78335 -0.691058,0.29713 -2.692192,0 -1.69501,0.74509 -0.963416,0.2296 -1.43614,-0.79912 -0.96792,0.0968 -1.68825,0.51099 -6.753,0.40743 -4.66407,1.79178 -5.1953,0.27237 -0.67979,-0.31963 -0.66405,-0.72708 -0.29038,-0.83063 0.41418,-0.59424 0,-0.41194 -0.77209,-0.21835 -0.41643,0.24986 -0.30389,0.42544 -0.41868,0.36242 -0.4412,-0.063 -0.42543,-0.27462 -0.32415,-0.045 -0.12606,0.60777 0.081,0.18683 0.17333,0.30614 0.18008,0.4682 0.0788,0.66405 -0.13732,1.31684 -0.38042,0.91841 -3.00283,3.79968 -0.58976,1.67024 -0.67979,1.06923 -0.49523,1.19751 0.19583,1.4294 0.24988,0.30839 0.34439,0.1193 0.87338,0.0248 0.15983,0.26111 0.0968,0.56501 0.17333,0.574 0.99945,0.7113 -0.17334,1.05798 -0.86663,1.84132 -0.18908,1.01519 -0.15532,0.42769 -0.32865,0.17558 -4.72934,0.86664 -0.71807,-0.0653 -1.81881,-0.574 -0.574,-0.44346 -1.0107,-1.37535 -0.61902,-0.58076 -0.6663,-0.31289 -0.47272,0.0158 -0.81485,0.31964 -0.46371,0.0697 -0.42542,-0.13055 -0.54025,-0.59427 -0.36467,-0.1328 -0.28587,0.1328 -0.0945,0.29488 -0.018,0.29939 -0.0158,0.13055 -0.63028,-0.036 -2.93979,1.01294 -2.61342,0.39393 -0.85988,0.29712 -0.19809,0.0203 -0.43444,-0.081 -0.17783,0.0608 -0.17332,0.28138 -0.14632,0.73832 -0.19358,0.25888 -0.38943,0.17107 -1.10524,-0.17107 -0.4592,0.13055 -0.78334,0.57175 -0.37367,0.13281 -1.06022,-0.14407 -0.17107,-0.4637 0.0788,-0.89814 -0.31065,-1.4429 1.72653,-0.73832 1.26956,-0.24536 0.3534,-0.41869 0.22061,-0.5965 0.31513,-0.67757 0.29039,-0.85537 0.0135,-1.00845 -0.18007,-1.89983 -0.24988,-0.60553 -1.11423,-1.0242 -0.24986,-0.84413 0.20709,-0.36015 1.02196,-1.24481 0.38492,-0.65504 0.14406,-0.4637 0.0225,-0.31964 0.0585,-0.28813 0.574,-1.05572 0.16206,-0.38042 0.11706,-0.41868 0.027,-0.86663 -0.15081,-2.05517 0.1238,-0.78334 0.37592,-0.42995 0.46595,0.0473 0.51999,0.2386 0.54474,0.14407 -0.11705,-0.2386 -0.072,-0.17558 -0.10579,-0.41869 0.77884,-0.46595 0.88465,-0.97244 0.72932,-0.46146 0.31965,1.04448 0.29712,0 0.51548,-1.23581 0,-0.38267 -0.8126,0 0.30162,-0.93641 0.48396,-0.66855 1.12776,-0.88913 -0.17558,-0.0945 -0.10805,-0.081 -0.25661,-0.27913 0.58525,-0.71131 0.65054,-2.20822 0.62578,-0.73834 0.31065,1.14351 0.84187,-0.0248 1.01969,-0.50196 0.83513,-0.24762 0,-0.36916 -1.42264,0.41418 -0.71581,-0.045 -0.30614,-0.5875 0.0608,-1.08048 0.17107,-1.17503 0.26337,-1.12774 0.3354,-0.96342 0.19583,0.29711 0.0991,0.0878 0.48624,-0.38491 -0.7676,-0.53349 -0.27013,-0.36917 -0.28362,-0.77209 -0.18908,-0.7766 -0.036,-0.66405 0.20935,-0.44794 0.55599,-0.12155 -0.17107,-0.60777 -0.09,-0.62803 -0.0338,-1.43838 0.12832,-0.51324 0.27236,-0.592 0.27914,-0.34441 0.1283,0.23861 0.30613,0.92516 0.74509,0.42995 0.88464,0 0.75408,-0.36918 0,-0.36916 -0.95893,0.46371 -0.52673,-0.29488 -0.25436,-0.89365 -0.42994,-3.47104 0.16432,-0.34665 0.46596,-0.11706 0.20033,-0.33315 -0.0338,-0.53347 -0.21609,-0.67981 -0.34441,0.49972 -0.26112,-0.60551 -0.31963,-2.86778 -0.26337,-0.68654 -0.41644,-0.53349 -0.54924,-0.26112 0,-0.4412 0.94992,-0.24761 0.47946,-0.92741 0.16882,-1.41587 0.0203,-1.65448 0.33089,-1.41364 1.46765,-1.30557 0.3264,-1.40237 0.20484,-0.36692 0.49972,-0.32414 1.3506,-0.38942 0.21384,-0.2386 0.13282,-0.3354 0.0473,-0.37817 0.10579,-0.27687 0.21385,0.0968 0.18909,0.22734 0,0.14407 1.51492,-0.14407 0.87564,-0.45469 0.62353,-1.03322 -1.44516,0.54925 -4.23186,-0.94992 -3.11988,0.40067 -0.63028,-0.14406 -1.89759,-1.03095 -3.11314,-0.48622 -2.87901,0.0495 -1.668,0.45696 -0.8959,1.01069 -0.0135,1.39562 0.97917,1.59371 -0.28136,0.42543 -0.12831,0.31065 0.006,0.26111 0.11255,0.25887 -4.00902,-0.81937 0.2431,-0.43669 -1.48115,0 -0.35341,-0.19584 -0.072,-0.41193 0,-0.41868 -0.14181,-0.18684 -0.59652,-0.18007 -0.4592,-0.44121 -0.29488,-0.53349 -0.12381,-0.47721 0.37817,-0.72257 0.73383,-1.77378 0.36241,-0.3444 0.45471,-0.027 0.41192,-0.13732 0.35565,-0.3579 0.28588,-0.69106 -0.47495,0.36016 -0.16658,0.17558 -0.16432,0.27463 -0.26562,0 0.14632,-0.94768 0.57625,-1.06022 -0.21609,-0.46596 1.10523,-0.76758 -1.22904,-0.80137 -0.38267,-0.41193 0.15306,1.30559 -0.24085,0.79684 -1.0152,1.54194 0.1238,0.2296 0.16658,0.58077 -0.49072,0.18007 -0.34441,0.42544 -0.19583,0.59652 -0.0675,0.64153 -0.83063,1.54418 -0.10129,0.25887 -1.88408,-0.18909 -1.75803,-0.61452 0.31964,-0.85988 0.21385,-0.40069 0.27462,-0.36916 -0.50198,0.53124 -0.48171,0.0518 -0.46146,-0.34665 -0.43893,-0.67981 0.35114,-0.30613 0.16433,-0.0608 0,-0.40292 -0.58976,-0.3354 -0.3534,0.3354 -0.21161,0.74732 -0.16882,0.88464 0.0203,-0.73832 -0.13955,-0.60777 -0.28138,-0.45245 -0.42995,-0.23861 -0.0765,0.63254 -0.14407,0.66629 -0.26337,0.51998 -0.44569,0.21834 -0.13731,0.30614 -0.2116,1.38887 -0.18908,0.31965 -0.9004,-0.43445 -0.7946,-0.83513 -0.73833,-0.50647 -0.70006,0.56275 1.09849,1.2133 0.20034,0.33539 0.14406,0.3444 0.17557,0.31063 0.29039,0.23862 0,0.43669 -0.51998,-0.0855 -0.40068,0.18008 -0.27912,0.44343 -0.14857,0.67531 -0.54024,-1.06922 -1.03096,-1.02196 -1.18852,-0.78784 -1.03321,-0.40294 -0.34441,0.81937 -0.85762,0.12381 -1.75352,-0.54024 0.76532,-0.36692 0.3309,-0.036 0,-0.40067 -0.54924,-0.62128 -2.66067,-1.66349 -0.70457,-0.23861 -0.40968,-0.31963 -0.30389,-0.36917 -0.93416,-1.47216 -0.76084,-0.83286 -0.64829,-0.28588 -1.55993,0.0855 -0.15982,-0.4412 0.018,-0.85763 -0.0991,-0.55825 -0.55375,0.45245 -0.33315,0.4547 -0.33088,0.3444 -0.37592,0.21159 -0.46596,0.027 0.30613,0.28138 0.2206,0.34665 0.16431,0.4142 0.11932,0.54473 -2.24875,1.09848 -0.95217,0.71357 -0.50648,0.24536 -0.19809,0.19133 -0.13956,0.36917 0.0878,0.29938 0.11029,0.27012 -0.0585,0.31064 -0.15307,0.47495 -0.40067,1.76929 -2.56614,2.22624 -0.25437,0.59425 -0.60551,0.69782 -0.71131,0.62128 -0.58302,0.37817 0,0.36916 0.16433,0.0833 0.37592,0.32189 -0.0495,0.40293 0,0.35566 0.0495,0.49972 -0.78335,0.28362 -1.99664,0.11031 -1.01295,0.38042 0,0.44794 -0.50872,0 0,0.37142 0.66405,0.52224 0.29938,0.17782 0.37816,0.1103 0,0.28137 -0.045,0.0699 -0.0922,0 -0.15533,0.063 0.29263,0.40518 -0.39392,0.31965 -0.41418,0.11704 -0.41419,-0.10579 -0.39392,-0.3309 -0.64154,0.15308 -0.76984,-1.14352 -1.30332,-2.66968 -0.29488,0 0,0.43669 0.85087,1.11876 0.25662,0.47495 0.50647,1.55544 0.29488,0.47721 -0.53124,0.44795 0,0.37142 0.27688,0.58075 -0.027,0.62803 -0.27913,0.53799 -0.48846,0.32414 -0.49748,-0.14856 -0.73156,-0.88915 -0.40744,0.19584 -0.3534,-0.45696 -0.96569,-0.8306 -1.18177,-1.47442 -0.31963,-0.57174 -0.13732,-0.74734 -0.20485,0.38042 -0.0518,0.16882 -0.0383,0.26112 0.50647,0.60552 0.28814,1.08048 0.0248,1.16377 -0.25888,0.85312 -0.63478,0.14856 -1.17052,-1.46765 -0.36915,0.0991 -0.27464,0 -0.45919,-0.34441 -3.32247,-1.26055 -0.27012,-0.18233 -0.39844,-0.48172 -0.35114,-0.2386 -0.48622,-0.0495 -0.92741,0.0743 0.13956,0.28138 0.0743,0.19359 0.10579,0.16433 0.22061,0.18007 -0.547,0.0473 -1.36185,0.80361 -1.24481,0.0743 -0.36691,0.29713 -0.24761,0 -0.21159,-0.50197 -0.85988,-1.53968 -1.1345,-0.51548 -0.39843,-0.50647 0.16432,-0.97693 1.35961,-1.69951 0.574,-0.36916 -2.05742,-0.36917 -0.16206,-0.41418 0.16206,-0.9094 0.39393,-1.37536 -0.565,-0.31065 -1.15476,-0.009 -0.96793,0.30614 0.0181,1.0152 -1.40463,-0.39392 -0.50422,0.0113 -0.44345,0.2386 -0.90939,0.80586 -0.43445,0.18008 -1.83006,-0.0968 -0.73832,0.22736 -0.51098,0.72482 0.006,-0.37817 -0.0225,-0.32189 -0.0833,-0.28588 -0.17107,-0.27461 -0.48171,0.38266 -0.31514,-0.68205 -0.11256,-1.139 0.0991,-1.03096 -0.31289,0.31964 -0.12155,0.18008 -0.12381,0.34215 -0.24536,0 0.21385,-1.20204 0.14181,-0.49972 0.18008,-0.36915 -0.29038,-0.40294 0.29038,-0.40067 -0.29038,-0.40969 -0.50872,0.68206 -1.17052,0.74958 -0.47495,0.63929 0,0.37141 0.17332,0.081 0.38717,0.35566 -0.7811,0.19358 -0.57399,-0.29938 -1.11426,-1.11875 0.20485,0.71356 -0.0608,0.59652 -0.25887,0.43669 -0.39617,0.25437 0,0.43669 0.26787,0 0,0.38268 -0.46146,0.16207 -0.0495,0.31063 0.14407,0.42769 0.0991,0.574 -0.24311,0.18683 -1.40012,-0.41643 -0.83062,-0.51998 -0.48172,-0.17782 -0.54248,-0.1103 0.15082,-0.54474 -0.0225,-0.44345 -0.16207,-0.35116 -0.26113,-0.28813 -0.24534,0 -0.16433,0.43895 -0.19134,0.28362 -0.22285,0 -0.2296,-0.35115 -0.70681,0.42544 -0.8959,0.054 -0.91616,-0.17559 -0.75633,-0.30387 -0.66404,-0.47722 -0.67756,-0.69331 -0.20033,-0.60552 0.75858,-0.2251 0,-0.44119 -0.53124,0 -0.89364,0.35791 -0.48172,0.0832 -0.41643,-0.11705 -1.20203,-0.72707 -0.9184,-0.0923 0.29037,1.30557 -0.71807,0.85539 -1.0242,0.0473 -1.06472,-0.41419 -1.09398,-0.64379 -1.121,-0.21385 0,-0.44118 0.24536,-0.0675 0.53799,-0.3354 -0.9139,-0.0225 -1.29883,-0.63252 -0.89591,-0.15531 -3.07485,0 0,-0.36467 0.34665,-0.2251 0.0833,-0.19134 -0.072,-0.19133 -0.1193,-0.2476 1.08047,-0.44346 -0.74508,-0.0225 -1.80304,0.46597 -0.50874,-0.35791 0.27912,-0.80587 0.90941,-1.2628 -0.49072,-0.14181 -1.30558,0.73832 -0.76758,0.21159 -1.2223,-0.1283 -0.73832,-0.25211 -0.63028,-0.42769 0.29263,-0.4412 -0.42544,0.16883 -0.40743,0.27237 -0.70682,-1.03096 -0.97243,-1.81656 -0.40067,-1.71301 1.00394,-0.75407 0,-0.35342 -0.74058,-0.2386 -0.46596,-0.81711 -0.19808,-1.10749 0.0585,-1.12099 0.67305,-1.58921 0.0608,-0.74959 -0.73383,-0.0878 0.24985,-1.22004 0.34441,-0.60552 0.52449,-0.2026 1.98537,-0.0203 0.35341,0.19808 0.0653,0.42769 -0.002,0.42769 0.13958,0.1891 0.76309,-0.11931 1.3731,-0.5695 0.68881,-0.15532 0.76758,0.10804 1.17727,0.59427 1.92686,0.47947 2.48735,1.56669 1.2223,0.52448 2.66292,0.43444 0.7811,0.29938 1.2358,0.71582 0.70231,0.19809 -3.76367,-2.23299 -0.44344,-0.35791 -2.24875,-2.72821 0,-0.37141 0.54474,0.0564 0.52899,0.15531 0.45471,0.2386 0.32863,0.31965 0.29488,-0.39843 -0.14406,-0.12155 -0.0428,-0.0225 -0.10805,-0.22735 0.88239,0.16433 1.24705,0.86888 0.58526,-0.26336 0.14632,0.26336 0.24311,0.29939 0.12605,0.28137 0.29038,0 0,-0.43894 -0.29038,0 0,-0.40518 0.61902,0.19358 0.8914,0.65054 0.66629,0 -0.76083,-0.83287 -0.38717,-0.28137 -0.18459,-0.24987 -0.0135,-0.24986 -0.3354,-0.13055 -0.16657,-0.14407 -0.32866,-0.52447 1.6815,0.10578 0.2521,0.0765 0.21161,-0.59651 0.49071,-0.20259 0.54699,0.14406 0.36016,0.47272 0.16883,-0.69782 0.46144,-0.22734 1.23356,0.0832 0,-0.43894 -3.22568,-0.68656 -0.81261,0.3174 0.57851,0.0113 0.24985,0.10805 0.24762,0.24986 -2.64492,-0.19359 -1.85708,-0.53123 -0.47495,-0.0495 -0.51549,0.0923 -0.29937,0.21834 -0.26337,0.26337 -0.40294,0.20034 -3.5093,-0.24986 -1.08948,0.51323 0.51773,2.18796 -0.6573,0.30388 -0.50196,-0.47495 -0.70907,-1.84132 0.0788,-0.21384 0.0991,-0.41869 -0.09,-0.39843 -0.49747,-0.18232 -0.43219,0.0878 -0.3264,0.12607 -0.3309,0.0225 -0.43219,-0.23635 0.11256,-0.58301 -0.11256,-0.63028 2.3703,-0.0945 0.48621,-0.11706 0.26788,-0.60551 -0.14856,-0.23861 -0.30614,-0.26337 -0.18909,-0.68655 0.09,-0.44345 0.24311,-0.49972 0.4502,-0.6753 -0.20259,-0.39392 -0.34215,-1.24705 1.01746,0.34665 0.69781,1.11875 0.54924,1.33933 0.57174,1.04672 1.0985,0.38267 2.10242,-1.34384 0.98594,0.36916 0.0945,-0.38042 0.17558,-0.35791 0.24986,-0.28587 0.30839,-0.18684 1.67024,-0.38267 0.53123,-0.53798 0.19809,-1.31684 0.11705,-0.40068 0.556,-0.72932 0.18458,-0.65279 -0.38492,-1.66349 -0.18007,-0.42769 -0.58302,-0.24986 -2.25549,0.69106 -12.68438,-2.84301 -0.22735,0.0833 -0.30839,0.35566 -0.13505,-0.0113 -0.13731,-0.20259 -0.0495,-0.2251 -0.0293,-0.20034 -0.23861,-0.44344 -0.15982,-0.36917 -0.20035,-0.35566 -0.25886,-0.20034 2.96006,-0.84412 1.3326,0.081 0.67755,-0.1283 1.17727,-1.15251 0.51548,0.28363 0.48396,0.58526 0.53123,0.33089 0.39393,-0.21385 3.48905,-2.75972 1.87958,-2.43558 0.59426,-1.07148 0.37817,-1.60045 0.59427,-1.49918 0.1328,-1.04895 -0.14181,-0.38718 -0.3399,-0.0855 -0.37366,0 -0.24312,-0.14181 -0.0653,-0.34665 0.0878,-0.82162 -0.0225,-0.4367 5.77831,-0.27462 0.97243,0.27462 0.59877,0.35566 1.28082,1.24931 0,0.42544 -1.07598,0 0,0.37141 0.13731,0.18008 0.1103,0.22285 -0.57626,0.41643 0.11481,0.71131 0.54474,0.15532 0.74508,-1.28306 0.40067,0.38942 0.35792,0.26111 0.38717,0.14407 0.49296,0.036 0,0.36917 -0.47496,0.45245 -0.53348,0.79686 -0.23411,0.89139 0.41194,0.68655 0.12605,-0.95217 0.38042,-0.91165 0.51097,-0.68656 0.47496,-0.27687 0.6393,-0.072 0.51997,-0.20259 1.1165,-0.92515 0.20033,0.51322 0.29939,0.12605 0.39392,0.0113 0.47497,0.18008 -0.13282,-0.51097 -0.2341,-0.27238 -0.31514,-0.0833 -0.39617,0.036 0.80584,-0.22285 0.8824,0.97919 0.28588,0.88239 -0.35791,1.18628 1.04221,-0.19809 1.05347,-0.70006 0.74057,-0.85764 0.12831,-0.63027 0.48621,-0.31965 0.24537,-0.10804 0.3444,-0.0113 -0.16657,-0.6798 0.14405,-0.35791 0.27688,-0.22285 0.27913,-0.30839 0.75408,-1.40461 0.0563,-0.18684 0.71357,-0.0743 0.8824,0.18007 0.83737,0.0248 0.57174,-0.574 2.05741,1.15476 0.34441,-0.15532 0.32864,-0.7946 0.75634,-0.27688 1.49016,0.072 0.18459,-0.10581 0.45244,-0.50196 0.30613,-0.18683 0.33091,-0.0473 1.01519,0.0473 1.39562,-0.34441 0.64604,-0.0113 0.43444,0.35566 0.14632,-0.43669 0.17333,-0.25213 0.43444,-0.51321 0.56275,-1.18629 1.17277,-1.52167 0.17107,-0.32189 0.56275,-0.16657 3.23019,0.81036 0,0.36691 -0.18684,0.29488 -0.24536,0.24085 -0.30388,0.18009 0.82611,0.20033 1.19753,0.71357 1.08498,1.02195 0.85539,1.00169 0,-0.43218 -0.50649,-0.40518 -0.35565,-0.68882 -0.50647,-1.29432 -0.24311,-0.0743 -0.67305,0.0991 -0.13956,-0.22735 0,-0.54699 -0.0405,-0.29713 -0.16433,-0.1193 -0.35565,-0.0338 0,-0.44345 1.65898,-0.16207 0.70006,-0.24761 0.62578,-0.38267 0,-0.35791 -1.5712,0.5695 -0.70457,0.0698 -0.70905,-0.28137 1.05571,-0.0383 1.73327,-0.46371 1.00394,-0.29713 1.19978,-1.3506 0.29038,-0.24085 0.36466,0.24536 0.12381,0.53798 0.18909,0.54924 0.54698,0.25887 -0.40968,0.61903 -0.15081,0.18007 0.56049,0.15307 0.30839,0.37817 0.27463,0.21835 0.47044,-0.35116 0.0564,0.21835 -0.005,0.0945 0.0428,0.0473 0.20034,0.0338 -0.17558,0.81036 -0.24761,0.61452 -0.37591,0.42994 -0.54924,0.21385 0.62352,0.13279 0.52674,-0.27462 0.42317,-0.10805 0.31289,0.62128 0.24537,0 -0.0248,-0.40968 0.0248,-1.22003 0.18008,0.11929 0.46595,0.17558 0.18008,0.13281 0,-0.58076 0.0405,-0.41868 0.081,-0.31964 0.14858,-0.31289 -2.95781,-1.37311 -0.47496,-1.64323 -0.09,-0.74732 0.15758,-0.36017 0.3759,-0.22284 0.44121,-0.18908 0.37366,-0.23861 0.5605,-0.6573 0.43444,-0.75633 0.27912,-1.0107 0.0968,-1.3551 -0.09,-0.78335 -0.36241,-0.98819 -0.0855,-0.63027 0.063,-0.53574 0.47497,-1.67474 0.2386,0 0.25888,0.26111 0.82386,-0.2251 0.53573,-0.036 -0.87338,1.02195 -0.65504,1.35285 -0.2206,1.66799 0.42543,1.96286 -0.18908,0.10581 -0.17107,0.20033 -0.17333,0.0833 0.32865,0.61677 0.44119,0.0383 0.4592,-0.29939 0.38717,-0.35565 -0.25886,-0.24086 -0.25886,-0.14857 0.55374,-0.33765 0.62578,0.0495 1.24481,0.67755 0.25661,-0.27236 0.22735,-0.0855 0.565,-0.0315 -0.23636,0.76759 0.13056,0.64379 0.26112,0.0945 0.1373,-0.9004 0.19134,-0.76308 0.36016,-0.15533 0.22059,0.36918 -0.22734,0.77434 0.52673,-0.48847 0.42318,-0.59427 0.35116,-0.38266 0.3309,0.22959 0.40743,-0.58526 0.1103,-0.20259 0.10354,0.22961 0.063,0.16432 0.0991,0.39392 -0.40967,0.41195 -0.44119,0.58299 -0.34891,0.64379 -0.14406,0.58976 0,1.39336 -0.054,0.40519 -0.18684,0.72482 -0.054,0.46595 0.29488,0 0.10354,-0.72707 0.26112,-0.54924 0.41418,-0.30839 0.565,-0.0113 -0.3354,-0.27461 -0.12379,-0.44795 0.0405,-0.59651 0.15307,-0.71131 0.26562,0 0.16882,0.24985 0.12606,0.0945 0.51547,0.0923 0,-0.43669 -0.27462,0 0,-0.35566 1.30783,0.3174 0.77435,0.35789 0.3444,0.70007 0.40518,0.40517 2.0304,0.21385 0.81486,0.39167 -0.53574,0.35791 1.21554,-0.21384 0.4727,-0.31289 0.46371,-0.66179 -0.78334,0.27236 -0.83287,0.12156 1.97187,-1.26281 0.20484,-0.33089 0.45921,0.0338 0.17782,0.11931 0.17332,0.28362 -0.56049,0.39392 0.48622,0.14407 0.2386,0.28362 -0.0585,0.36916 -0.37591,0.40293 0,0.35791 0.88463,-1.15026 -0.18007,-1.08497 -1.53968,-2.13845 0.29487,-0.39393 -0.83737,-0.55824 -1.07371,-0.1058 -0.9927,0.3309 -0.61902,0.72707 -0.22061,-0.85763 -0.0428,-0.38267 -0.36016,0.36016 -0.27013,0.0991 -0.22735,-0.13281 -0.21835,-0.32639 -0.27461,0 -0.58076,1.18177 -1.07372,0 -0.6573,-0.47496 0.67305,-0.26336 0.0293,-0.28588 -0.0608,-0.081 0.12155,-0.063 0.44796,-0.0697 0.37816,-0.19134 0.16207,-0.30839 0.15081,-0.0608 0.60553,-1.139 0.0788,-0.22509 0.53124,-0.49973 0.51323,-0.26111 0.58976,-0.0608 0.76083,0.0743 2.05292,0.70907 0.66403,0.0383 1.30558,-0.46371 0.5425,0.30839 0.0563,1.39112 0.42544,-0.31064 0.4592,-0.10579 0.99719,0.0135 -0.0855,0.39168 -0.15756,0.22509 -0.23861,0.1193 -0.3264,0.0563 0.6753,0.16883 0.58076,-0.0608 0.5605,0.0855 0.60776,0.60553 -0.29937,-0.7856 -0.58976,-0.65053 -0.69107,-0.44121 -0.59877,-0.10804 0.40969,-0.36691 0.24085,0.0338 0.22961,0.20033 0.35566,0.13281 1.4834,0 1.28307,0.42994 0.51548,0.072 0.62352,-0.10805 3.00959,-1.19078 0.72031,-0.0113 1.05797,0.18909 0.63704,-0.17783 -0.81711,0.0585 -1.43839,-0.40067 -2.46259,-0.13281 -0.43895,-0.39168 0.56276,-0.76083 -0.32865,-1.10524 0.49972,-0.30838 0.82837,-0.0923 0.63703,-0.43219 -0.35791,-0.83287 0.64604,-0.24986 0.97018,-0.0225 0.60327,-0.11931 -0.12381,-0.39167 -1.35961,-0.7586 -0.37816,-0.44343 -0.29262,0.3579 0.17107,0.10354 0.045,0.0113 0.0765,0.32639 -0.65954,0.13056 -0.41193,0.16658 -0.41868,0.0225 -3.12889,-1.86833 1.62972,-1.06923 0.4502,-0.88914 0.072,-1.68825 0.29038,0 0.21159,0.5695 -0.0158,0.24087 -0.19584,0.40967 0.12155,0.13281 0.12607,0.0855 0.29263,0.15307 0.59651,-0.81937 0.78784,-0.77209 0.36917,-0.78335 -0.67981,-0.78334 -0.89364,-0.16882 -1.69725,0.81936 -0.90715,0.1328 0,-0.39392 3.69388,-1.93811 1.15026,-0.0473 0.045,0.16431 0.0585,0.35567 0.14633,0.39392 0.31514,0.27688 0.29037,0.0697 0.36916,0.009 0.65954,-0.0788 0.63254,-0.37143 0.95667,-1.116476 0.58526,-0.52224 0.71357,-0.29713 0.77884,-0.0113 0.74508,0.29713 0.9229,0.927416 1.17503,0.34215 0.40968,0.36915 0.20485,0.36692 0.16206,0.38268 0.27012,0.42768 1.23805,0.74958 5.44515,0.38042 1.49468,-0.44119 0.54698,-0.55825 0.35341,-0.13056 0.92515,-0.0968 0.79461,-0.26111 1.35961,-0.82837 1.38887,-1.154746 1.19301,-1.41588 0.68207,-0.558247 1.62296,-0.330905 0.79011,-0.535734 -2.12495,0.06753 -0.9049,0.420936 -0.86889,0.936416 -0.40067,0.26112 -1.64323,0.33539 -1.61846,1.17503 0,0.43894 0.81034,0 -0.35114,0.36916 -0.38492,0.25212 -0.42094,0.13055 -0.45695,0 0.26336,-0.39167 -0.59876,-0.027 -2.01915,0.54699 -0.29488,0.27687 -0.31064,0.38943 -0.29488,-0.0608 -0.26786,-0.12832 -0.27012,-0.20033 -3.62636,-0.39392 -0.94768,-0.40293 -0.3489,-0.49073 -0.25211,-0.70231 -0.15307,-0.73382 -0.0518,-0.64378 0.11256,-0.877893 0.41868,-0.904902 -0.0157,-0.787844 -0.11931,-0.850879 -0.1193,-0.479458 -0.30163,-0.198089 -1.28757,-0.177829 -0.45695,-0.3354 -0.4277,-0.400683 -0.51548,-0.35565 1.39337,-0.776599 4.54477,-0.79235 2.37704,-1.33259 0.61003,-0.605519 0.42093,-0.666295 0.43895,-1.026455 0.0743,-0.974682 -0.68881,-0.51998 -0.47046,-1.024204 -0.66854,-2.079921 -0.47946,-0.864383 -1.50592,-0.943168 -0.57401,-0.605518 0.2206,-0.805857 -1.0062,-0.738326 -0.26561,-0.592013 -0.0945,-1.235797 0.045,-0.99044 0.15306,-1.093984 0.29264,-0.900399 0.45019,-0.369164 1.02422,-0.357907 1.22003,-0.877889 2.19697,-2.296019 1.16602,-2.386056 0.3354,-0.348905 0.65279,-0.06978 0.66405,-0.222848 0.51998,-0.418686 0.39617,-1.463149 0.47496,-0.558247 0.60552,-0.524482 0.58976,-0.691057 0.24536,-0.659542 0.18008,-0.772092 0.31288,-0.646036 0.63028,-0.261115 -0.17107,-0.997192 0.88014,-4.184603 0.36691,-0.524482 0.37367,-0.198089 0.16432,0.247609 -0.054,0.499722 -0.2251,0.936414 -0.0158,0.700061 0.37816,-0.614522 0.4412,-1.249303 0.28813,-0.461454 0.49971,-0.308388 1.10749,-0.308387 1.3236,-1.168266 2.10242,-0.369165 0.64154,-0.616772 -0.3399,-0.702312 1.06923,-0.344402 2.6314,-0.117052 1.08048,-0.216096 0.91166,-0.628028 0.62352,-1.046714 0.23412,-1.429383 0.42543,-1.222291 0.99944,-0.04277 2.09793,0.659542 0.52448,-0.211594 0.89364,-0.783348 1.21105,-0.72482 0.39392,-0.07428 0.63928,-0.175578 0.71131,-1.08273 0.75408,-0.918405 1.06022,-0.290379 -0.0473,1.794045 1.4609,0.877889 1.76253,-0.121555 0.85988,-1.222291 0.1058,-0.796853 0.18008,-0.486215 0.0316,-0.454702 -0.3174,-0.724822 -2.71244,-1.688247 -0.43444,-0.747331 0.21384,-1.093985 -0.36917,-0.24761 -0.38717,-0.479459 -0.25662,-0.553746 0.0451,-0.479468 0.37816,-0.389419 0.3354,-0.072 0.35566,0.02249 0.41194,-0.119303 0.59201,0.036 0.2116,-0.036 0.0518,-0.166575 -0.0518,-0.272367 -0.0135,-0.258864 0.16207,-0.110297 0.30389,-0.08325 0.92066,-0.704562 -0.47047,-0.461449 0,-0.236356 0.23636,-0.189083 0.23411,-0.258873 0.1328,-0.09678 0.50422,-0.168824 0.14406,-0.0923 0.054,-0.218346 -0.0113,-0.533488 0.28363,-0.758581 0.0451,-0.567249 0.13506,-0.465957 0.74958,-0.285877 0.26111,-0.202595 0.22061,-0.272367 0.17332,-0.252107 0,-0.342156 -0.43445,-0.963425 -0.52898,-0.461459 -0.65054,0.04498 -0.83512,0.571747 0.5605,-1.868323 0.42994,-0.747328 0.64828,-0.4412 -0.19807,-0.166575 -0.39618,-0.414186 -0.20935,-0.193581 0.23861,-0.292633 0.29038,-0.501967 0.22509,-0.58076 0.0495,-0.585259 -0.16432,-0.650542 -0.25436,-0.130556 -0.31063,0.06982 -0.37142,-0.05623 -0.61227,-0.36917 -0.43669,-0.405172 -0.18908,-0.249867 -0.20259,-0.3354 -0.27688,-0.328644 -0.43669,-0.238605 0.33765,-0.58526 0.26337,-0.821614 0.17107,-0.844123 0.0608,-0.65504 0.20934,-0.504224 1.0152,-1.215532 3.54757,-2.865527 0.88014,-1.006192 -2.75972,1.292069 -0.47046,0.438951 -0.44795,0.299381 -2.50985,2.966811 -0.76985,0.036 -2.61791,-0.803604 0.005,-0.727078 -0.67531,-3.921232 0.70907,-0.285877 1.38211,0.308385 0.72933,-0.567249 0.48396,-0.632532 0.55599,-0.5672486 0.6483,-0.409687 0.74508,-0.139561 1.18401,-0.488465 2.1137,-2.1159415 1.30557,-0.4772095 0.24536,-0.2386058 0.15757,-1.0557131 0.13055,-0.236356 5.58699,-4.06305049 1.82556,-2.09342601 0.88013,-1.4068729 0.79236,-1.5689519 1.31008,-3.5295622 0.51547,-2.163206 1.50368,-10.674229 0.49746,-1.76703 0.71582,-1.451898 1.40463,-1.080478 1.71075,-0.562743 1.573446,-0.783347 0.98368,-1.749029 -0.88464,0.738331 -0.909396,0.465957 -1.0152,0.227352 -1.22455,0.05849 0.92967,-0.571748 0.88014,-0.902649 0.44345,-1.204288 -0.37367,-1.499161 0.24536,-0.684303 0.14406,-1.571201 0.15082,-0.774342 -0.52448,0.418684 -0.33091,0.893653 -0.16656,1.150259 -0.0495,1.152509 0.11255,0.891394 -0.0608,0.510972 -0.3219,0.700064 -0.34666,0.393926 -1.2673,0.747328 -1.50818,1.478904 -1.34384,1.744522 -1.33259,3.236938 -0.15757,0.628024 -0.73833,5.170543 -0.52447,2.079923 -0.0968,1.116499 -0.4592,1.692742 -1.10749,1.6342245 -4.76761,5.3101054 -0.61452,0.19359 -1.65673,0.9409083 -2.64717,2.05516561 -0.3399,0.438942 -0.41644,0.6685518 -0.12381,0.29487349 0.002,0.3106431 0.0878,0.2948745 0.1058,0.1800873 0.0248,0.6415271 0.0248,0.4141855 -0.0991,0.2498587 -0.41643,0.2116003 -0.63253,-0.2453612 -0.56501,-0.8666393 -1.3461,-2.73495309 -0.2476,-0.82161451 -0.70682,-11.8042295 -1.63872,-8.814911 -2.39956,-27.351861 0.26111,0.616772 0.3489,1.328088 0.4457,2.43783 1.77379,2.714703 0.25886,0.522226 0.0923,0.0923 0.054,0.216098 0.0743,0.236347 0.16883,0.180087 0.27011,0.02249 0.18684,-0.128307 0.15982,-0.171073 0.18683,-0.1058 0.4367,-0.19359 2.96906,-2.786734 0.38942,-0.799097 -0.54023,0 0.97467,-1.019703 -0.009,-0.84863 -0.7946,-0.567249 -1.39337,-0.202595 -2.41532,0.592015 -0.99044,-0.03374 -0.7811,-0.976937 -0.70456,-2.532367 -0.0968,-0.664045 -0.15531,-0.355658 -1.04447,-1.512674 -0.0383,-0.461449 0.33765,-1.568951 0.0945,-0.808103 -0.27463,-3.408012 -1.07822,-7.716422 -2.54362,-15.489104 -1.38437,-7.072637 -0.93417,-3.113124 -1.61396,-8.911699 -0.94992,-3.09512 -0.27011,-1.69726 -0.6303,-2.0214 -0.30387,-0.63027 -2.07993,-1.61846 -0.33989,-0.42544 -0.17558,-0.60778 -0.85313,-1.67474 -0.3444,-0.47497 -0.73834,-0.53573 -0.87563,-0.47497 -0.9229,-0.33314 -3.48455,-0.57175 -0.72933,-0.29488 -0.29488,-0.40969 -0.62128,0.45471 -0.22509,-1.50816 -0.0293,-1.13 0.006,-0.66405 1.13225,-0.54925 0.49071,-0.65953 0.13057,-1.06473 0.20483,-0.42544 0.42319,0.0699 0.46371,0.22735 0.84637,0.10579 0.79911,0.34666 0.36016,-0.0473 0.74958,-0.35565 0.38717,-0.27687 -0.006,-0.26337 -0.10579,-0.31739 0.0653,-0.47496 0.28588,-0.92741 0.19359,-0.23861 0.47946,-0.22285 0.42544,-0.063 0.49972,0.063 0.42544,0.24537 0.2296,0.47495 0.31289,0.91391 0.58751,0.3579 0.77885,-0.0225 1.22905,-0.36917 1.64322,-0.85313 0.43669,0.0699 0.4367,0.15307 0.47496,0 1.12775,-1.17728 0.14857,-1.96061 -0.42545,-2.14971 -0.59876,-1.70175 -0.49972,-0.67755 -1.62297,-1.74452 -0.32639,-0.45245 0.49521,-1.17053 0.71807,-0.8036 0.86663,-0.51547 0.96793,-0.24536 1.08048,-0.0923 0.67304,0.22285 0.3354,0.72257 0.09,1.40687 0.27913,1.08048 0.67531,0.76083 0.88463,0.34665 0.88915,-0.23635 -0.82837,-0.71582 -0.31964,-0.70456 0.18008,-0.72482 0.66405,-0.76985 0.74507,-0.44343 2.28251,-0.40969 1.3551,-0.75183 1.28757,-1.04671 1.47891,0.1283 0.3399,-0.1283 0.65504,-0.41643 0.29488,-0.24762 1.35961,-0.17107 0.65503,-0.18458 0.48396,-0.55825 1.36861,-1.03772 1.50592,-0.48846 3.14239,-0.26337 3.03885,0.55375 1.05122,-0.37366 0.74282,-1.89984 -0.0203,-0.38043 -0.13055,-0.24761 -0.0428,-0.28587 0.21834,-0.48847 0.40293,-0.39393 0.38718,-0.045 0.38492,0.0585 0.39842,-0.072 1.35059,-0.83061 0.70007,-0.59426 1.53292,-2.04841 0.0563,-0.23636 -0.0765,-0.2251 -0.009,-0.19809 0.25888,-0.12155 0.64378,0 0.17108,-0.063 0.22959,-0.31515 -0.054,-0.3489 -0.006,-0.31514 0.38042,-0.25211 0.30614,0.045 0.66404,0.45245 0.34441,0.1193 0.0697,1.26957 1.003936,-0.0203 2.129446,-1.00395 1.199782,0.10129 0.95442,0.56726 1.893088,1.49915 0.342155,-0.35565 0.308387,0.11931 0.274624,0.41193 0.21159,0.52448 0.607767,-0.56725 2.379303,-1.44289 0.472712,-0.99269 1.055723,-0.13281 1.139005,0.32189 0.709059,0.29714 -0.08778,-0.93192 0.2296,-0.9229 0.474961,-0.7856 0.648293,-0.53349 0.245352,-0.29713 0.04724,-0.38267 0.108049,-0.34441 0.416434,-0.18909 0.501976,-0.14405 0.272375,-0.2386 0.186825,-0.27238 0.227352,-0.23636 1.557689,-0.62126 1.359609,0.1328 3.043347,1.11649 2.415323,0.36917 0.742821,0.50198 0.639288,0.0923 2.095674,-0.54475 0.632532,-0.31288 0.844122,-1.49917 0.612274,-0.73383 0.583009,0.0968 1.109741,1.55544 0.695557,0.70006 0.715815,0.26336 1.091741,-0.92291 0.08552,-0.18007 -0.01125,-0.22961 0.02249,-0.21159 0.198088,-0.19358 0.785605,-0.14858 0.769834,0.045 1.499163,0.38943 0.655048,-0.27237 4.916178,0.1418 1.393362,-0.18457 0.517727,0.18457 0.342156,0.57175 0.04054,0.86889 -0.270118,0.80586 -0.468205,0.59652 -0.560502,0.19808 0.240854,0.53799 0.148566,0.22736 0.294882,0.22509 -0.438942,0.60551 0.553748,1.49467 -0.08778,1.1435 0.189083,0.77435 0.904898,0.35566 1.082728,0.0833 0.695565,-0.0699 1.359601,-0.53573 0.688801,-0.15532 0.760839,0.072 0.679804,-0.1193 1.701749,-0.99944 1.168268,-0.46146 0.342156,-0.26337 0.630273,-0.61452 0.418684,-0.18008 0.378175,0.18908 0.369162,0.30614 0.402931,0.13281 0.335391,-0.13281 0.65279,-0.53123 0.299381,-0.18009 3.360738,-0.22509 0.821616,-0.26337 0.700063,-0.63253 0.384922,-0.75634 0.297132,-0.83512 0.402922,-0.73382 0.675308,-0.49747 0.436692,-0.0473 1.316835,0.42994 4.850894,-0.027 0.929665,-0.24986 -0.173332,-0.76084 0.198088,-0.21608 0.373669,-0.0248 0.330893,-0.17783 0.693307,-1.24705 0.758591,-1.04671 0.664044,-1.83007 0.569498,-0.74732 0.873385,0.35791 0.607776,2.10017 1.244796,-0.0563 1.157015,0.43894 0.601019,0.0495 2.142947,-1.4744 0.42544,-0.20259 4.481733,-0.44346 -0.339897,-1.08048 0.634781,-0.40067 0.916151,-0.28588 0.4884636,-0.70231 -0.9859326,-0.0923 -0.72257,-0.70907 -0.436694,-1.10298 -0.144058,-1.33259 0.117044,-0.0699 0.0788,-0.11481 0.02929,-0.13281 -0.02022,-0.17108 0.727078,-0.29487 2.4423276,-0.32866 0.828371,-0.34664 2.2104788,-1.52167 0.9274057,-0.2116 0.7360736,-0.0383 0.6145222,-0.27462 0.5357368,-0.88689 0.5199853,-2.00113 0.3714102,-0.81712 0.7765999,-0.66855 0.48396589,-0.32189 0.53123,-0.0833 1.0264586,0.1238 0.65279041,0.16208 0.4524441,0.29938 0.6640452,0.70006 0.9409173,0.72482 0.1890824,0.31288 0.2948835,0.78111 0.1890824,0.27237 0.6302833,0.29488 1.8593178,-0.22285 2.4333319,0.76084 1.2335441,0.13055 1.105244,-0.61902 0.470454,-0.39168 2.29377,-1.08272 1.226787,-0.27238 0.628035,-0.0203 0.290376,-0.85762 0.61677,-0.83063 0.760839,-0.60777 0.729327,-0.19358 0.803605,-0.44794 0.436694,-0.14633 0.407429,0.0135 0.267869,0.25211 0.326394,0.86438 0.312884,0.27688 0.754084,0.0225 1.816561,-0.61902 0.871137,-0.16207 1.051215,0.0518 -0.01351,0.24086 -0.488463,0.54698 -0.360157,1.0107 0.310634,0.46596 1.663488,1.30558 0.697806,0.36916 0.810362,0.0563 1.537429,-0.23634 0.823864,0.13055 0.637039,0.39166 1.181771,1.16603 0.63703,0.36916 0.634781,0.0743 0.675298,-0.027 0.655039,0.10581 1.301084,1.01294 1.267303,-0.48846 0.673049,0.43894 0.420941,-0.0833 1.152508,-0.036 0.263371,-0.0697 0.254356,-0.59427 0.308386,-0.49972 0.382673,-0.40518 0.470463,-0.29488 0.808104,-0.26337 1.012946,-0.10579 1.033215,0.0495 2.676435,0.46145 0.05849,0.32415 -0.01351,1.31458 -1.280815,1.77153 -2.741718,2.77999 -0.405181,1.06247 -0.456952,4.04054 0.01352,0.63703 -0.105799,0.29938 -0.220595,0.14181 -0.53124,-0.0315 -0.17558,0.0788 -0.270118,0.40969 -0.171073,0.40066 0.04951,0.46147 0.391669,0.54923 0.504224,-0.74733 0.234107,-0.20259 0.130556,0.38268 0.456952,2.70794 0.04951,0.96343 -0.05631,0.94542 -0.17782,0.93192 -0.236356,0.43894 -0.438952,0.19808 -1.11199,0.36016 -0.621269,0.0697 -0.346654,0.18909 -0.258873,0.3399 -0.256606,0.74283 -0.294882,0.36016 1.557689,1.63872 0.461458,0.25212 0.153063,0.28587 -0.0428,1.2223 0.162069,0.28587 0.346654,-0.0833 0.558244,-0.28587 0.272375,0.0338 0.625776,0.60778 -0.17558,0.51322 -1.091732,0.89815 -0.443449,0.7856 -0.101293,0.84412 0.330893,0.62128 0.855385,0.12605 -0.522234,-0.95667 -0.135062,-0.47946 0.175579,-0.42769 0.447947,-0.16658 0.231858,0.42995 0.184577,0.58075 0.308394,0.28588 0.153064,0.30838 0.128307,0.68656 0.110297,1.39336 0.166577,0.55825 0.756331,0.83512 0.180079,0.65054 -0.29938,0.50197 -0.659538,0.40294 -0.655048,0.73831 -0.297132,1.48342 0.189092,0.38941 0.472703,0.15983 1.100738,0 0.166575,-0.18009 -0.364664,-0.39166 -0.756333,-0.55825 0,-0.34666 0.540245,-0.30387 0.243102,-0.35117 0.189084,-0.19809 0.373668,0.0923 1.102986,1.68825 0.216097,0.64154 0.49522,0.55824 0.922908,0.82161 0.294883,0.51097 0.378166,1.02422 0.263362,0.48396 0.650541,0.82161 5.436163,4.14633 1.41362,0.71133 0.949923,0.18007 1.575698,-0.78334 0.826113,0.36916 3.243693,3.97977 1.287572,1.08273 4.445714,2.41306 7.855984,6.48062 0,0.40293 -1.337094,-0.45246 -1.195283,-0.99719 -2.070917,-2.287 -2.016889,-1.76705 -1.287572,-0.69104 -1.337093,-0.0923 0,0.3444 3.322469,1.38887 0.519986,0.65504 0.10579,0.83062 0.290385,0.51548 2.557133,2.1497 1.073723,0.64154 2.44008,0.75183 1.776034,1.27857 1.168269,0.40518 2.203732,0.31965 -0.373668,-0.81712 -0.479469,-0.52223 -0.655038,-0.3219 -0.913903,-0.22736 -1.854821,-0.16431 -0.875635,-0.27687 -0.519985,-0.66405 1.332595,0.62127 2.388309,0.25437 2.280259,-0.23636 1.012947,-0.83961 0.0653,-0.19359 0.778849,-2.86327 0.213849,-0.47946 0.294873,-0.32865 0.835126,-0.4277 0.958919,-0.20708 12.195915,-0.39844 1.724251,-0.35566 1.04671,-0.83286 0.0563,-0.95217 -0.29488,-1.11424 -0.36016,-0.93192 -0.0878,-0.38941 1.06472,-0.53349 1.60271,-0.45246 5.79182,-0.26336 1.38886,0.54475 -0.94992,1.0377 -1.19528,0.85763 -1.07373,1.112 -0.54924,1.82105 0,3.88522 -0.16657,0.57175 -1.17052,1.86382 0,0.3354 0.67755,-0.40518 0.55374,-0.79685 0.40968,-0.93642 0.24536,-0.8216 0.0923,-0.92291 -0.0923,-3.16491 0.60778,-1.42937 1.32808,-1.25832 1.63873,-0.92741 1.53519,-0.45244 -0.29489,0.88014 -0.38267,0.33313 -0.18908,0.28588 0.33315,0.74733 0.36916,0.3354 0.96342,0.21385 0.4322,0.3444 0.97919,0.45245 2.1632,-1.2493 0.76084,0.27687 0.98818,-0.27687 0.93642,0.66404 0.43218,1.21329 -0.46145,1.3551 -0.57625,0.47497 -0.47947,0.26336 -0.36016,0.44795 -0.21609,1.0242 0.0743,0.40518 0.18908,0.74734 0.26111,0.71581 0.26337,0.35566 0.23636,-0.15307 0.56725,-0.77434 0.16657,-0.18008 0.92966,0.036 0.31064,-0.036 0.80136,-0.28138 0.20484,-0.27687 0.027,-0.46145 0.28588,-0.83063 0.84412,-0.99043 1.00619,-0.17557 1.10525,0.40066 1.139,0.76534 0.14856,-1.28306 -0.51547,-1.2133 -0.80361,-0.99943 -0.75183,-0.60551 -1.08048,-0.33091 -3.51831,0 -1.2268,-0.69331 -0.53122,-1.09623 0.20258,-1.22229 1.04221,-1.08497 0.97469,-0.26788 2.48509,0.0428 0.57176,0.2251 1.73102,-0.25436 5.25833,1.19978 1.10298,-0.76085 0,-2.79573 0.17109,-0.31739 0.27011,-0.29939 0.26336,-0.17107 0.11706,0.0495 -0.0383,-0.40518 -0.0923,-0.34215 -0.33088,-0.88914 -0.29039,-0.54925 -0.11704,-0.54474 0.29938,-0.54924 0.49971,-0.18908 1.13901,0.0699 0.53123,-0.28588 0.60778,0.22736 1.0152,0.072 0.94991,-0.1328 0.4187,-0.32865 0.21384,-0.25212 0.48396,0.1193 0.51098,0.28588 0.6753,0.52224 0.34439,-0.17558 0.96568,-1.31458 0.30389,-0.28138 0.54024,-0.20934 0.19809,-0.18233 0.22059,-0.13056 0.25437,-0.0585 0.2431,0.1193 0.11031,0.2521 0.0788,0.25887 0.13056,0.11481 2.03265,-0.0923 0.76309,-0.40068 -0.23636,-0.95892 1.47214,-0.81711 0.75635,-0.25212 0.88014,-0.0923 0.35565,-0.16658 0.0968,-0.73831 0.36017,-0.16208 0.71357,-0.054 0.25886,-0.11255 0.23635,-0.20259 -1.27407,-0.64604 -0.29488,-0.48396 0.22961,-0.73833 0.37817,-0.27237 1.9156,-0.83737 0.9139,-0.0518 0.38717,0.25888 0.16657,0.73832 0.26562,0.41419 0.64153,-0.0135 1.24481,-0.23635 0,0.36917 -0.64828,0.28587 -0.85089,0.94993 -0.65279,0.26336 1.14351,0.58076 0.63478,0.18007 0.65054,-0.0225 -0.1058,-0.26338 -0.072,-0.52447 -0.0991,-0.31965 0.95218,0.39394 1.21329,0.0179 1.15251,-0.28138 0.73832,-0.52222 0.26337,-0.17558 2.84975,-0.17108 0.36017,-0.23861 0,-0.54473 -0.23636,-0.88914 -0.20708,-0.17108 -1.39338,-0.027 0,-0.32865 0.73834,-0.15306 2.63366,-0.0225 0.67305,0.17558 0,0.32864 -0.3309,0 -0.26336,0.1013 -0.50198,0.27237 0.38267,1.11874 0.1058,0.92291 0.27687,0.75183 0.86664,0.54926 0.43895,0.0788 2.67418,-0.0788 0.31964,-0.0653 0.59876,-0.24761 0.43444,-0.0563 0.41868,-0.22961 0.18909,-0.50872 0.0834,-0.50198 0.13281,-0.23634 1.42712,-0.0495 0.35342,0.31288 -0.58076,0.84413 0.20708,0.40292 -0.018,0.3354 0.0225,0.42094 0.31964,0.68205 0.36916,0.27236 1.25381,0.0968 0.78109,0.42769 0.81936,0.31064 0.47947,0.0225 0.96118,-0.11029 0.4502,0.0878 0.59201,0.46146 0.62126,0.63928 0.75185,0.47046 1.0197,-0.1148 0.41193,-0.3309 0.16882,-0.44794 0.0923,-0.42094 0.15758,-0.25662 0.41643,-0.1013 0.76083,0.35342 0.42769,0.10355 -0.26337,0.74507 1.63423,1.31009 0.24762,0.34665 -0.0855,0.15306 -0.20034,0.2026 -0.18008,0.24985 -0.072,0.30839 0.0833,0.51098 0.13282,0.20259 0.15306,0.12606 0.16883,0.26336 0.35566,0.90716 -0.0833,0.30613 -3.79068,-0.18909 -0.23636,0.081 0.0834,0.45246 0.60101,0.49972 1.04671,0.56275 0.87115,0.13731 0.36466,0.40517 0.18457,0.57852 0.34216,0.71356 0.63928,0.54925 0.60551,0.22959 0.45246,0.32866 0.29938,1.60495 0.28587,0.98819 0.42545,0.93641 0.51097,0.56275 0.77435,-0.60552 0.99718,-0.26336 2.02365,0.0968 0.006,0.20933 0.18908,0.40518 0.23861,0.24987 0.11029,-0.29714 0.0968,-0.15532 0.23636,-0.0833 0.26787,-0.009 0.22511,0.0495 0.19808,0.24536 0.0788,0.73832 0.1193,0.15533 0.28588,0 0.15755,0.0338 0.0923,0.1058 1.42488,2.4896 0.0699,0.14406 0.027,0.0315 0.0473,0.87789 -0.0743,0.0135 0.51547,0.85313 0.60552,0.49296 0.62803,0.36467 0.64378,0.51323 0.9049,-0.38042 0.96342,0.30613 1.0062,0.53799 1.04672,0.27236 0.11704,-0.18007 0.0765,-0.37817 0.15308,-0.28588 0.35565,0.10806 0.18908,0.21159 0.0405,0.2296 -0.027,0.28587 0.0495,0.41194 -0.0135,2.56839 0.13957,0.40518 0.29938,0.22285 0.29938,0.51548 0.40068,0.50873 0.64604,0.2296 0.56724,0.0428 0.44346,0.15981 0.36916,0.23186 0.36466,0.30839 0.76083,1.134494 0.46146,0.405182 0.53573,-0.229604 0.37817,-0.06985 1.91786,0.249854 -0.17108,-0.513226 -0.0923,-0.19808 0.76083,0.105791 0.17108,0.50872 0.0428,0.664048 0.36466,0.535734 0.65956,0.168835 0.10578,0.711312 0.58076,0.650541 0.76084,0.312883 0.8914,-0.524475 0.27461,0.405172 0.38043,0.162071 0.40518,-0.05181 0.27236,-0.08326 0.2251,-0.01351 0.32415,0.148564 0.0225,0.19358 -0.0608,0.691061 0.0383,0.202581 0.15531,0.06985 0.16208,-0.02248 0.17107,0 0.52449,0.364662 -0.78786,2.629159 -0.20258,1.37536 0.61677,1.134506 1.71301,1.872832 0.79685,1.276307 2.0304,1.719761 0.88014,0.974684 0.30614,0.632529 0.32639,1.22229 0.24987,0.668554 0.43669,0.48846 0.57175,0.438939 0.44345,0.58076 0.0653,0.949928 -0.61901,1.332581 -0.86664,0.86664 -0.48847,1.024204 0.54924,1.78504 -1.22679,0.209341 -1.61621,-1.053464 -1.139,-0.08548 -6.84529,-1.985371 -1.59596,0.05181 -0.37817,0.07882 -0.36466,0.35566 -0.2161,0.463705 -0.26336,0.393924 -0.52448,0.202591 -1.02421,0.180073 -0.74733,0.303892 -4.1801,2.581887 -1.58245,0.58301 -2.32078,1.2358 -0.49747,0.14181 -0.53349,-0.04951 -0.46596,-0.148566 -0.47269,-0.08778 -0.52449,0.227351 -0.36466,0.414185 -0.18009,0.474962 -0.13281,0.526732 -0.24986,0.531239 -0.36916,0.432186 -0.76984,0.558253 -0.35566,0.364654 -0.22509,0.423191 -0.46596,1.11199 -0.30613,0.535737 -0.87115,1.02421 -0.16656,0.245352 -0.14182,0.510981 0.0135,0.272366 0.0923,0.333151 0.33315,1.715259 0.27462,0.474961 1.31684,0.720322 -1.02421,0.871137 -1.19979,1.262806 -0.87787,1.541937 -0.13282,1.715259 0.42994,0.733825 2.01014,1.548684 1.3416,2.338786 0.56275,0.416435 -0.45696,1.179522 0.28363,1.111991 0.73157,0.891395 0.90041,0.501976 0.72482,0.01351 1.42938,-0.432195 0.70006,0.01351 -0.2296,0.727069 -1.19978,2.257752 -0.14856,0.474961 -0.2161,1.364108 -0.44121,1.204278 0.0225,0.06982 0.20709,0.86663 0.0653,0.04054 -0.0135,0.267868 0.054,0.144059 0.009,0.180079 -0.0923,0.321897 -0.15757,0.272366 -0.71357,0.783346 -1.96963,0.808113 -0.69106,0.06076 -1.9381,-0.393926 -0.74733,0.191341 -2.71245,1.580196 -1.29658,1.120996 -0.68655,1.159264 0.0699,3.104123 -0.24986,1.591459 -1.03772,0.765337 -1.37536,0.114804 -0.41868,0.35565 -0.47496,0.821615 -0.10579,0.510981 0.0495,0.438941 -0.0608,0.396176 -0.64379,0.558244 -0.6888,1.055723 0.47045,0.632531 0.71132,0.594263 1.3641,0.781099 0.35566,0.06303 0.71132,-0.02702 0.31289,0.05631 0.32864,0.193581 0.71806,0.546999 0.29489,0.157572 1.37986,-0.22961 1.44964,-0.781088 1.41588,-0.501976 1.28082,0.614522 0.0878,0.348903 -0.2431,0.249859 -0.17558,0.308385 0.19809,0.465956 0.31289,0.13957 0.9274,0.01351 0.35566,0.08325 0.58076,0.524483 0.68206,1.199781 0.50872,0.488473 1.41138,0.641528 1.38885,0.382673 0.3129,-0.132814 0.48847,-0.594255 0.2161,-0.08778 0.25885,0.272366 0.75184,1.373112 1.06698,0.900401 0,0.880132 -0.41644,1.116498 -0.2026,1.613967 0.2026,0.337649 1.27406,1.5216687 0.81937,1.4586542 0.34214,0.8441223 0.0473,0.7000548 -0.31064,0.236356 -1.68374,0.74058 -0.52449,0.3894197 -0.31964,0.6347808 -0.27686,0.6978151 -0.37368,0.6212691 -1.72426,1.28307351 -1.79854,1.0106978 -0.29489,0.8171079 -0.21385,2.32303459 -0.15981,0.4119276 -0.43445,0.6640441 -0.0743,0.4569515 0.10804,0.4614585 0.4547,0.9904397 0.0923,0.3151417 -0.2386,0.8328684 -0.48846,0.3466537 -1.27858,0.3196397 -0.52673,0.400673 -0.89365,0.898152 -0.53123,0.184576 -1.02421,0.218346 -1.06922,0.7968586 -0.7991,1.186278 -0.43669,2.338786 -0.1058,1.003943 0.036,1.00619 0.2026,0.927415 0.51097,0.821614 0.60552,0.369162 1.16602,0.162069 0,0.0968 0.11254,0.252116 0.17332,0.258864 0.18459,0.153064 0.14407,-0.02022 0.32189,-0.216098 0.13956,-0.02702 0.27688,0.05405 0.97693,-0.01352 0.84412,0.249859 0.89139,0.447947 0.79236,0.682053 0.53574,0.9004 0.24986,0.765338 0.32189,0.673048 0.41869,0.522235 0.55824,0.26561 -0.27236,0.461459 -0.2161,0.571756 -0.27688,1.033206 -0.44794,1.163761 -0.14631,0.607776 -0.18909,0.130555 -2.66069,3.007329 -0.9049,0.391678 -0.32864,-0.130556 -0.27687,-0.281381 -0.30839,-0.2296 -0.36916,0.04724 -0.34665,0.261112 -0.018,0.17558 0.0788,0.240855 -0.027,0.4412 0.0608,0.04724 -0.006,0.589765 -0.0765,0.562752 -0.1058,-0.04951 0.18233,0.285879 0.31514,0.396175 0.27687,0.420933 0.036,0.445697 -0.59426,0.585259 -3.1424,0.684303 -0.3399,0.949922 0.36466,1.947109 0.67756,2.037155 1.40237,2.70795 -0.9004,1.546435 -1.39336,1.474403 -0.75635,1.305579 0.21385,0.65504 1.04221,1.226793 0.27688,0.94767 -0.0878,1.082729 -0.36916,0.558247 -0.59202,0.299384 -5.8751,1.517171 -2.62016,0.08779 -2.52336,-0.501973 -3.363,-2.30277 -1.27856,-0.335399 -1.30332,-0.06077 -1.21329,-0.391673 -1.26957,-1.10749 -1.12549,-1.481157 -0.83513,-1.130001 -0.21159,-0.774343 0.16207,-0.571752 0.36918,-0.963428 0.0135,-0.222848 0.37817,-0.936416 0.16658,-0.252111 0.41868,-0.213844 0.65054,0.306135 0.29037,-0.117052 0.19809,-1.319084 -1.0197,-1.069224 -2.51887,-1.679242 -2.01013,-2.347791 -1.28308,-0.659547 -1.34609,0.59877 -1.79404,-0.06303 -1.78504,-0.425429 -0.94993,-0.571757 0.52449,1.240299 0.29937,0.567249 0.12607,0.486215 -0.69331,0.871136 -0.40518,0.78785 0.13956,0.673048 0.95893,0.605519 2.3658,1.161515 0.0608,0.02475 0.14631,0 0.30839,-0.103546 0.23635,-0.02701 0.2251,0.02701 0.86889,0.272371 0.16431,0.369163 -0.0315,0.531236 0.0225,0.607769 0.27237,1.616217 0.12606,0.441194 1.28981,2.852014 -0.0585,0.63253 -0.47946,0.862132 -0.58301,0.621275 -2.12495,1.310081 0.45021,0.425438 0.0699,0.378168 -0.0699,0.382669 0,0.438944 -0.036,0.180079 -0.0923,0.225101 -0.0834,0.27237 0,0.299383 0.15757,0.342152 0.44795,0.488466 1.36861,2.356794 1.38887,1.744523 -0.95444,1.069223 -0.11478,0.760837 0.53348,0.691057 5.28759,4.85315 2.83175,1.541932 0.39168,0.330897 1.03321,1.172769 1.31008,0.695558 0.41643,0.308388 0.43218,0.562749 0.15758,0.47496 -0.009,0.956675 -0.29938,0.321892 -0.20034,0.285876 -0.1238,0.319641 0.0653,0.285878 0.61676,1.863825 0.27688,0.488467 0.22285,0.558247 0.0585,0.801355 -0.11481,0.628027 -0.53573,0.997193 -0.15982,0.524483 0.58076,2.021394 1.91784,1.10524 4.23413,1.330339 2.63592,2.007889 0.88915,1.294324 -0.46146,1.073726 0.52223,0.913905 0.36917,0.369163 0.99943,0.355658 0.14407,0.369163 0.14181,0.09455 0.57176,0.299382 -0.0495,0.98594 1.17952,0.400674 2.57514,2.392807 0.76534,1.233551 1.13901,1.179523 2.67192,1.97187 -0.15306,1.424891 0.24986,1.19078 0.73382,0.76758 0.36242,0.0383 0.20934,0.081 0.57174,0.78784 0.41869,0.23636 0.39843,0.1058 0.37141,0.24086 0.31064,0.64152 -0.41643,0.58302 -0.58525,0.54698 -0.58977,0.47721 -0.72933,-0.35791 -4.68207,-0.45695 0.19359,0.73834 0.48847,0.90715 0.5785,0.76083 1.02645,0.60552 0.0563,1.09174 1.03321,0.22734 0.64153,0.36692 0.58076,0.49972 0.29938,0.48621 -0.18457,0.70457 -0.40969,0.7946 -0.10579,0.65504 0.73383,0.2251 0.3579,0.27237 0.34665,0.0855 0.36467,-0.0855 0.35565,-0.27237 1.02871,-0.15757 1.95612,0.3444 0.92741,-0.18683 0.51547,-0.29938 0.51773,-0.0833 1.08274,0.10805 -0.72483,-1.64998 0.22285,-0.94993 0.85762,-0.51323 1.15701,-0.3714 0.16209,-0.12832 0.1103,-0.20033 0.16657,-0.21834 0.29938,-0.12831 0.26787,0.0585 1.49015,0.64378 1.04673,0.2251 2.73045,-0.1193 1.09399,0.43669 0.78785,1.02646 0.11929,0.53349 -0.063,0.3354 -0.18908,0.27011 -0.13056,0.14406 -0.20259,0.35566 0,0.35565 0.45245,0.13282 0.61902,-0.21385 0.50648,-0.32188 0.51322,-0.072 0.60777,0.53573 0.0563,0.10805 0.063,0.15756 0,0.14857 -0.036,0.14407 -0.28588,0.40518 -0.0878,0.22735 0.0518,0.18683 0.23861,0.12155 0.40517,-0.0855 0.31965,0.1058 0.16657,0.33539 -0.0113,0.58301 -0.1328,-0.0113 -0.66404,0.51323 -0.0833,0.0315 1.71076,1.40462 0.94993,0.53124 1.39336,0.49072 -0.0878,0.0113 0.10129,0.036 0.16208,0.58075 0.0878,0.21385 -0.0878,0.56275 -0.2026,0.29263 -0.24535,0.22285 -0.24312,0.30163 -0.88689,1.76929 -0.53798,0.74957 -0.583,0.29713 -0.15533,0.27238 -0.12606,0.63252 -0.10578,1.24706 0.13955,0.35791 0.65505,0.68655 0.22059,0.39393 0.0315,0.95216 -0.49297,2.04166 0.1058,0.82387 0.56274,1.88858 0.20935,0.28588 0.53798,0.28364 0.0968,0.65503 -0.2161,1.09173 0.0135,0.26562 -0.036,0.13732 -0.0135,0.15531 0.036,0.2386 0.1193,0.26112 0.25888,0.24987 0.16656,0.28588 0.25212,0.5965 0.0699,0.26111 -0.045,0.94768 0.19809,0.78335 1.06022,1.121 0.36917,0.6978 -0.0833,1.83456 -1.70176,3.00509 -0.11931,2.42432 0.25213,1.14125 0.26336,0.90716 0.28137,0.51998 0.26336,0.35565 0.1981,0.46596 0.0878,0.85312 0.26337,0.71583 2.48511,3.49579 0.41193,0.85539 0.2521,0.99493 0.0834,1.20428 0.27236,1.23355 0.63705,0.52449 0.72931,0.39167 0.53575,0.87114 0.045,0.82836 -0.2026,0.78335 -0.24985,0.76084 -0.12831,0.71357 0.045,0.77434 0.29037,1.56894 0.20035,0.66629 0.27462,0.56501 0.25886,0.38717 0.18909,0.5695 0.0834,1.12549 0.20259,0.53575 0.47946,0.48847 0.98369,0.78784 0,0.39842 -0.46596,1.26282 0,2.06866 0.33765,1.93811 1.65898,2.5864 0.46596,0.3354 0.65504,0.21384 0.60551,0.52674 1.06923,1.28082 0.47496,0.30838 0.52673,0.51097 0.40969,0.5605 0.18008,0.47721 0.0473,1.13676 0.21609,0.52448 0.43669,0.15757 1.121,0.006 0.29713,0.10579 0.2251,0.20484 0.0834,0.31964 0.0833,0.56051 0.18908,0.31963 0.17558,0.17558 0.0833,0.14857 0.34891,0.0248 1.44964,0.77209 0.23861,0.20259 0.48846,0.82836 1.7918,4.92293 1.22679,2.32529 0.83061,0.95667 -0.46595,0.42543 -3.87171,0.80587 z m -367.44152,-173.779223 -0.54925,0.571757 -0.53574,-0.05849 -0.49747,-0.180087 -0.44795,0.225102 -0.92741,1.06022 -1.23354,0.997196 -1.33934,0.702312 -1.22004,0.168824 0.86438,-1.965127 0.44569,-1.319084 -0.09,-0.580751 -0.17559,-0.515478 0.65505,-1.080479 0.85763,-1.019703 0.82612,-0.589766 2.31177,-2.620157 0.43219,-0.79685 0.32414,-0.733833 0.56951,-1.965118 0.69555,-0.315142 0.57401,0.886898 0.40969,1.485659 0.31963,2.388308 -0.0653,0.474961 -0.29488,0.499718 -1.13,0.677547 -0.41419,0.40518 0.19584,0.501976 0,0.375917 -0.43669,0.432195 -0.0248,0.544732 0.0608,0.641537 -0.15982,0.700064 z m -73.66389,76.452863 -0.46595,0.24986 -1.3461,1.37986 -0.11256,0.16883 -0.97917,0.77209 -1.77379,0.92966 -0.49972,0.1193 -0.34215,0.32865 -0.26337,0 -0.16432,-0.36691 -0.3309,-0.32415 0.23411,-0.84637 0.42544,-0.93642 0.30162,-0.94767 -0.13055,-0.91616 0.69331,-0.48846 2.03489,-0.60326 3.07937,-0.28813 1.05122,0.30839 0.16207,1.07146 -0.39392,0.46372 -1.17953,-0.0743 z m 367.98627,-240.02382 -0.31514,-0.29489 -0.24311,-0.0968 -0.1058,0.027 -0.13055,-0.036 -0.12832,-0.18009 -0.33314,-0.18458 -1.10749,0.0428 -0.40518,-0.20034 0.0473,-0.29939 0.95441,-0.50196 0.49298,-0.16208 0.54023,0.16208 0.54474,0.27687 0.45246,0.59427 0.027,0.76082 -0.15757,0.29039 -0.13281,-0.19809 z m -303.79233,177.542895 0.25436,0.328647 -0.0135,0.335398 -0.19584,0.306135 -0.29262,0.2251 -0.70457,0.157569 -2.27575,-0.583007 0,-0.348905 0.43444,-0.328646 1.5982,-1.821057 0.60552,-0.245359 2.20373,0.411934 3.81544,-2.460337 1.78729,-0.344405 0.18008,-0.06982 0.18683,-0.216097 0.41869,0.225102 0.29488,0.0968 0.36241,0.02702 -0.4547,1.057972 -0.75183,0.875634 -0.92067,0.594267 -3.9595,0.641534 -0.65954,0.319641 0,0.418685 0.5605,0 0,0.396176 -0.95892,-0.243107 -1.13,-0.508726 -1.03996,-0.02701 -0.68881,1.199781 0.40068,-0.02926 0.94317,-0.391674 z m -140.78862,129.677695 -0.0743,0.16207 -0.0811,0.13281 -0.74057,0.38266 -0.89815,-0.2521 -1.61621,-0.93417 0,-0.40968 1.00169,0.31289 0.37817,-0.13282 0.23186,-0.58075 -0.13057,-0.0135 -0.27686,0.0383 -0.12832,-0.0248 0,-0.40293 0.69106,0.15308 2.02139,1.06021 0,0.45021 -0.24761,-0.036 -0.13056,0.0945 z m 114.34841,-88.551977 -0.43444,0.423188 -1.33485,0.715818 -0.40518,0.461453 -0.0495,0.83287 0.15082,0.763087 -0.1013,0.65279 -0.81036,0.510977 -0.70906,0.121553 -2.24874,-0.121553 0.66628,-0.866635 0.61003,-2.212729 0.63253,-0.891396 1.06247,0.560499 0.99268,-0.702312 0.83963,-1.307829 0.5785,-1.294323 0.65054,-0.380419 0.19358,0.758586 -0.0945,1.166017 -0.18908,0.810358 z m -6.04618,-13.625285 -1.53518,0.646036 -0.77435,0.130558 -0.72032,-0.121554 -0.30838,-0.510976 0.45471,-1.06022 3.15589,-0.02926 0.88014,-0.357909 -0.42319,0.736076 -0.72932,0.567252 z m 346.30241,-203.400108 -0.65054,-0.12605 -0.38717,-0.37367 -0.30614,-0.58976 -0.80585,-0.30388 -0.11706,-0.41194 0.0428,-0.52448 0.25437,-0.0473 0.35342,0.30613 0.7113,0.25211 0.60777,1.01971 0.33314,0.32413 0.60779,0.1058 0.0338,0.28588 -0.20258,0.2296 -0.47496,-0.14631 z m -327.86674,329.08678 0.1238,0.0383 0.0743,-0.16882 -0.0923,0.39391 -0.11255,0.0945 -0.17558,0.15757 -0.0788,0.0855 -0.0338,-0.33765 0.11254,-0.23635 0.18233,-0.027 z m 448.88485,-369.60923 -0.15757,1.04672 -0.73382,2.06641 -0.17558,1.09398 0.006,0.99945 0.10579,0.83512 0.17558,0.73383 0.24311,0.70455 -0.50198,1.1165 -0.13055,1.60496 0.10129,3.09062 -0.17332,1.0197 -0.37818,0.92741 -1.13674,1.70176 0.60552,-1.39112 0.16207,-0.35566 0.10579,-0.77209 -1.05572,0.47272 -0.30613,0.2476 -0.25211,0.43894 -0.10354,0.41869 -0.14182,0.34665 -0.31288,0.25887 0.18908,0.42769 0.0135,0.28587 -0.0968,0.29713 -0.10578,0.47947 -0.0834,0.009 -0.18009,0.072 -0.17557,0.10354 -0.10579,0.14632 0.0225,0.24985 0.10579,0.17559 0.1238,0.1328 0.0428,0.13956 -0.036,1.54419 0.0855,0.75184 -0.0495,0.65504 1.27407,4.99495 0.072,1.61172 -0.73833,4.88467 0.17558,1.00394 -0.4502,0.53123 -0.19133,0.61453 0.0743,0.58076 0.31514,0.43219 0,0.40293 -0.75633,0.43219 -0.35566,0.30838 -0.52673,0.72483 -0.70007,-0.29939 -1.62521,-0.009 -0.65505,-0.41643 -0.18908,-0.70456 0.0697,-0.93641 0.24985,-0.87113 0.41869,-0.42545 -0.1463,-0.45245 -0.0338,-0.2161 0.0338,-0.16207 0.1463,-0.26562 -0.93191,-0.97018 -0.26336,-0.36916 -0.15081,-0.52448 0,-0.46595 0.25435,-0.49523 0,-0.47496 -1.06697,-1.48565 0.63252,-0.81937 0.53575,-0.88238 0.22509,-0.93642 -0.32639,-1.02421 0.38267,-1.16601 -0.5785,-1.55545 -1.41139,-2.41532 -0.26562,0 -0.36915,1.03322 -0.19809,0.43219 -0.24085,0.35565 -0.27238,0.27687 -0.83061,0.44796 -2.03266,0.58076 -0.36916,-0.036 -0.41643,0.13281 -0.93641,-0.0135 -0.93192,-0.15306 -0.42769,-0.3219 -2.1227,-2.37705 -0.1283,-1.03321 -1.24255,-0.64378 -4.4097,-0.94767 -2.50761,-1.29883 -1.47215,-0.0833 0.29938,-0.36916 -0.22059,-0.77434 -0.34217,-0.71132 -0.47495,-0.51772 -0.60777,-0.2071 -0.46146,0.19359 -0.35566,0.38266 -0.42093,0.18459 -0.64829,-0.36466 -0.0991,0.46146 -0.045,0.0968 -0.10581,0.006 -0.31288,0.15532 0,-0.39168 0.27688,-0.51773 -0.21385,-1.17051 0.22285,-0.49747 -0.74734,-0.18909 -0.66404,-0.32414 -0.51323,-0.60777 -0.32188,-1.33484 -0.0968,-0.23861 0.1058,-0.15757 0.47946,-0.063 0.18908,-0.1891 -0.16658,-0.42543 -0.43893,-0.66404 0.0112,-0.64604 -0.0832,-0.53123 -0.33315,-0.34891 -1.27181,-0.19808 -0.18008,-0.17109 -0.0788,-0.23635 -0.19359,-0.25212 -0.13956,-0.36466 -0.0495,-0.43894 -0.15306,-0.23636 -0.48848,0.28364 -0.26336,-0.36917 -0.35565,-0.22285 -0.37817,0 -0.34891,0.26337 -0.11704,-0.51548 0.0248,-0.60552 0.14182,-0.57175 0.24986,-0.45246 -0.29939,-0.39166 1.56219,0.64153 0.83062,0.0743 0.86664,-0.71582 -1.17502,-0.71131 -0.19359,-0.18909 0.0495,-0.38267 0.16657,-0.23861 0.22511,-0.0135 0.54923,0.47496 0.17559,-0.19809 0.1058,-0.35566 0.0968,-0.20709 1.46315,-0.72482 0.0833,-0.0833 0.58075,-0.46145 -0.036,-0.41868 -0.10355,-0.0563 -0.16882,0.0495 -0.22735,-0.1058 -0.41419,-0.30838 -0.53574,-0.24086 -1.58244,-0.30838 -0.37817,-0.2161 -0.29488,-0.22285 -0.29939,-0.15532 -1.0332,0.0495 -0.41644,-0.11029 -0.15531,-0.49748 0.27237,-0.20258 0.53798,-0.18009 0.31965,-0.30838 -0.31965,-0.59201 0.46146,-0.22961 0.15757,-0.51772 -0.15757,-0.51548 -0.46146,-0.19359 0,-0.35565 1.09399,0 0,-0.38718 -0.61903,-0.44345 -0.32189,-0.17557 -0.40518,-0.0878 0.38266,0.0518 0.34441,-0.0338 0.31964,-0.14631 0.29939,-0.25887 -0.11029,-0.19359 -0.1891,-0.49746 0.81037,0.009 0.89139,-0.18458 0.72032,-0.42994 0.29938,-0.67755 0.2296,-0.20259 1.08948,0.30838 0.41868,-0.10579 0.27239,-0.46146 0.67979,-1.49916 0.61678,-0.46595 0.23635,-0.36466 -0.0699,-0.65505 -0.21609,-0.0135 -1.04447,-0.55824 -0.20258,-0.15982 -0.85764,-0.24536 -0.78334,-0.59427 -0.33315,-0.60551 0.49523,-0.34215 -0.54025,-0.94091 -0.77659,-0.3129 -1.93587,-0.19809 1.1165,-1.30558 0.16658,-0.72482 -0.45245,-0.88464 0.27237,-0.68655 0.62127,0.41419 0.68881,0.16656 1.62746,0.1058 0.85764,0.26337 1.3416,0.73833 0.78109,0.081 0.41869,-0.1058 0.24985,-0.17558 0.18909,-0.32189 0.2296,-0.47946 0.43895,-0.32865 0.0968,-0.027 -0.0834,-0.34214 -0.34666,-0.44571 -0.10579,-0.25436 -0.072,-0.0135 -0.47721,-0.74734 0.14407,0.0495 0.15306,-0.29938 0.14181,-0.35566 0.1103,-0.10579 -0.32189,-0.30388 -1.29658,-0.42769 0.45246,-0.0699 0.40518,-0.20259 0.29488,-0.33314 0.19358,-0.51099 -1.28532,-0.75858 -0.7946,-0.27462 -0.90715,0 0,-0.38943 0.42769,-0.29938 0.0833,-0.48846 -0.17558,-0.53124 -0.3354,-0.45469 -0.50873,-0.28363 -1.10299,-0.16883 -0.51547,-0.25886 0.50198,-0.13281 0.40292,-0.17558 0.41418,-0.11706 0.55825,0.0338 -0.18909,-0.49972 -0.0968,-0.18908 0.92741,0.0699 1.61846,0.62802 0.97694,-0.009 -0.34441,-1.06247 0.49297,-0.51997 0.93192,-0.16658 0.94992,-0.027 2.47609,-0.69781 0.92291,-0.0495 -0.47496,-0.57175 -0.54474,-0.30389 -0.4412,-0.36916 -0.18008,-0.72483 -0.33314,-0.32414 -2.11144,-0.96342 -0.6798,0.33315 -0.39167,-0.72482 -0.26112,-1.08049 -0.28813,-0.67754 0.59651,-0.22511 0.13281,-0.35565 -0.18007,-1.02421 0.21384,-0.21159 0.50198,-0.22735 0.54023,-0.15532 0.38267,0.0495 0.27236,-0.18008 0.50198,-0.17557 0,-0.33539 -0.53573,-0.35567 0.34214,-0.2386 0.3084,-0.0473 0.32413,0 0.36918,-0.0968 0.22509,-0.21159 0.0698,-0.24087 0.1058,-0.18457 0.9049,-0.2071 0.39617,-0.29488 0.31739,-0.35566 0.42995,-0.29938 0.60776,0.13281 0.96118,-0.14632 0.99494,-0.30612 0.41643,-0.37143 0.27462,-0.37816 0.22736,0.16883 0.15306,0.0922 0.4277,0.11706 -0.0968,-0.16658 -0.036,-0.0699 -0.0428,-0.036 -0.10129,-0.1058 0.27687,-0.35566 1.157,0.91616 0.46146,0.15307 0,-0.3354 -0.52448,-0.73383 0.55375,-0.46145 0.96792,-0.40743 0.62803,-0.56726 -0.35566,-0.10579 -0.18908,-0.18007 -0.42994,-1.3461 1.0107,-0.43896 1.22679,-0.18907 0.63253,-0.27238 0.97243,-0.89364 0.49973,-0.17108 0.65053,0.35117 0.27462,0.43669 0.34215,0.77658 0.3129,0.90266 0.13956,0.77209 -0.48847,-0.30163 -0.61452,-0.58076 -0.46146,-0.18458 0,0.31513 0.37816,0.3219 0.11706,0.40518 -0.11706,0.40292 -0.37816,0.2994 0,0.39166 0.6843,0.0923 1.08724,0.71131 0.60551,0.27688 -0.24085,0.37817 0.39167,0.35791 0.18008,0.46595 -0.11931,0.40294 -0.45244,0.17557 0.15307,0.37141 0.0495,0.36918 -0.0495,0.35565 -0.15307,0.36916 0.67754,0.12831 0.40294,0.51322 0.29938,0.53574 0.36466,0.26112 0.69556,0.15306 0.56725,0.42995 0.38267,0.62578 0.13056,0.73832 -0.35566,0.48846 -0.79911,-0.14631 -1.29207,-0.53123 -0.52898,0.35566 0.2296,0.48846 0.37817,0.52224 -0.0788,0.45244 0.46146,0.081 0.56725,-0.0316 0.59652,-0.14631 0.52448,-0.25886 -0.16883,0.79235 0.12381,0.29938 0.30838,0.0248 0.40743,-0.0338 0.36241,0.25886 0.20034,0.59427 0.11931,0.92741 -0.54925,0 0.2071,0.50873 0.35565,0.46595 0.39618,0.3444 0.28137,0.11706 0.12606,0.26561 0.054,3.84695 -0.34215,3.60385 0.34215,3.66238 0.0135,1.87733 0.21159,0.48846 0.59202,0.59202 2.71244,3.92348 0.60778,1.29658 0.41192,0.67755 1.06922,0.9972 0.28588,0.48846 0.0834,0.41643 0.0833,0.92291 0.0968,0.4322 -0.29039,1.24479 0.29039,6.59768 z m -12.04059,-50.17247 -0.17782,0.0699 -0.10805,-0.29263 0.37816,-0.33539 0.0203,0.21609 -0.11255,0.16208 0,0.18007 z m 0.40294,1.56894 -0.15307,-0.006 -0.36916,-0.0405 -0.0495,-0.29488 0.14181,-0.0473 0.13056,-0.0585 0.2161,-0.14407 0.036,0.1058 0.0608,0.0383 0.15307,0.0585 0.0315,0.15307 -0.21159,-0.0608 0.0135,0.29713 z" /></g></g></svg>