<?xml version="1.0" encoding="UTF-8" standalone="no"?>
<!-- Created with Inkscape (http://www.inkscape.org/) -->

<svg
   version="1.1"
   id="svg1"
   width="172.91998"
   height="331.90402"
   viewBox="0 0 172.91998 331.90402"
   xmlns="http://www.w3.org/2000/svg"
   xmlns:svg="http://www.w3.org/2000/svg">
  <defs
     id="defs1" />
  <g
     id="layer-MC0"
     transform="translate(-393.17109,-193.47081)">
    <path
       id="path1"
       d="M 0,0 H 720 V 540 H 0 Z"
       style="fill:#f9f9f9;fill-opacity:1;fill-rule:nonzero;stroke:none"
       transform="matrix(1.3333333,0,0,-1.3333333,0,720)" />
  </g>
  <g
     id="layer-MC1"
     transform="translate(-393.17109,-193.47081)">
    <path
       id="path2"
       d="m 0,0 -1.16,-2.365 -0.462,-2.365 -7.862,-12.584 -0.784,-2.454 -0.423,-0.894 -0.112,-0.488 -0.049,-0.76 1.854,2.478 3.596,7.719 3.292,3.227 1.696,3.605 1.389,3.988 0.607,2.7 -0.888,-0.688 z m -19.57,-27.709 0.671,-1.807 -1.023,-1.07 -1.157,-3.053 -1.038,-0.72 -1.096,0.545 -0.623,1.228 -0.723,0.856 -1.363,-0.551 1.78,-2.653 2.535,-0.462 2.661,1.253 2.253,2.487 1.023,2.828 0.343,0.119 0.647,0.471 0.233,0.498 -3.891,0.556 z m 28.384,161.092 -7.793,4.739 -7.767,4.739 -7.766,4.745 -7.793,4.755 -7.773,4.755 -7.766,4.762 -7.792,4.763 0.048,-0.184 -1.549,-1.023 -1.767,-0.104 -0.791,-0.304 -1.063,-0.95 -0.839,-0.104 -0.415,-0.288 -0.232,-0.431 -0.416,-1.023 -0.159,-0.288 -4.244,-3.979 -0.583,-1.391 -0.071,-0.735 -0.759,-2.884 -1.863,-4.58 -4.075,-5.529 -1.023,-0.846 -0.559,-0.217 -0.807,-0.503 -0.767,-0.591 -0.328,-0.503 0.048,-1.271 -0.048,-0.272 -0.271,-0.113 -3.229,-4.073 -1.463,-1.2 -1.733,-0.479 -1.158,-0.496 -1.887,-1.254 -1.757,-1.63 -0.832,-1.639 0.184,-0.727 0.464,-0.822 0.903,-1.279 0.072,-0.416 -0.072,-0.463 -0.024,-0.383 0.303,-0.161 0.463,-0.016 0.464,-0.127 0.319,-0.336 0.145,-0.607 0.574,-0.879 1.232,-1.405 1.11,-1.776 0.304,-1.981 -0.783,-1.782 -1.096,-0.76 -0.95,-1.006 -0.391,-2.493 -0.536,-1.894 -1.294,-1.031 -1.606,-0.175 -1.438,0.671 -0.72,-1.742 -0.527,-0.808 -0.584,-0.342 -0.368,-0.4 0.089,-0.856 0.303,-0.736 0.232,-0.054 -1.062,-2.958 -0.304,-1.39 0.256,-1.294 0.304,-1.039 -0.233,-0.767 -0.071,-1.007 0.304,-3.259 -0.376,-1.023 0.143,-1.088 0.32,-1.079 0.607,-2.86 0.991,-0.424 2.349,0.456 3.988,-1.271 1.342,-2.733 0.584,-8.006 0.783,-1.917 1.439,-2.079 1.741,-1.214 3.085,1.159 1.015,-1.751 1.094,-3.964 4.098,-3.643 0.72,-0.974 0.256,-0.608 2.645,-3.771 2.462,-3.029 4.194,-3.636 1.997,-2.189 0.831,-2.222 -0.974,-1.997 -2.269,-1.415 -2.598,-0.848 -1.997,-0.277 -0.743,-0.401 -2.733,-2.461 -0.791,-0.385 -2.964,-0.939 -1.207,-0.785 -3.084,-3.469 -1.072,-0.719 -2.732,-1.31 -1.231,-1.408 -3.108,-5.002 -0.487,0.769 -1.063,-1.39 -1.366,0.525 -0.328,-1.213 0.511,-1.908 1.183,-1.592 -1.279,-0.945 -1.135,-1.356 -1.158,-0.91 -1.302,0.365 -0.441,-0.525 h -0.088 l -0.118,-0.066 -1.879,-0.534 -2.853,-1.32 -1.317,-0.271 -1.742,-0.112 -3.365,-0.767 -4.427,-1.983 -3.036,-2.123 -2.693,-2.639 -1.694,-2.941 -0.112,-2.924 -0.16,-0.48 -0.887,-0.334 -0.504,-0.742 -0.351,-0.737 -1.063,-0.871 -0.303,-1.246 -0.184,-1.391 -0.232,-0.99 -0.488,-0.496 -1.486,-0.894 -1.742,-1.807 -0.064,-0.783 0.856,-1.246 2.645,-2.782 0.255,-1.437 -0.863,-4.617 -0.183,-1.938 -0.624,0.354 -0.439,0.48 -0.304,0.574 0.768,-3.132 1.829,-2.094 2.388,-1.662 8.024,-8.918 0.28,-0.512 0.391,-0.518 0.599,-0.472 0.401,0.062 0.486,0.354 0.6,0.305 0.695,-0.098 0.838,-1.055 0.599,-1.605 0.768,-1.463 1.271,-0.647 h 2.972 l 0.576,-0.441 0.632,-1.94 0.646,-0.441 1.111,-0.471 2.829,-2.261 0.704,-0.784 0.088,-0.589 -0.256,-1.248 0.168,-0.854 0.599,-0.904 1.109,-0.717 -0.11,-0.451 1.389,0.066 0.904,0.51 0.83,0.742 1.12,0.754 2.452,0.6 1.647,0.109 1.069,-0.391 0.305,-0.837 -0.048,-0.768 0.088,-0.561 0.718,-0.224 0.745,0.097 1.35,0.432 0.598,0.096 3.157,-0.078 1.295,-0.401 1.254,-0.896 1.487,-3.307 -0.56,-3.949 -3.915,-8.358 -0.488,-1.951 -0.255,-2.06 -0.071,-2.108 -0.353,-1.23 -0.552,-0.848 -0.119,-0.752 1.024,-0.945 0.814,-0.205 0.878,0.199 4.547,1.828 3.061,1.905 2.596,2.427 1.551,2.782 -0.135,0.687 -0.329,0.92 0.097,0.791 1.878,0.527 0.806,0.453 0.655,0.584 0.672,1.584 1.829,2.108 0.417,0.656 -0.136,1.117 -0.488,0.625 -0.695,0.096 -0.814,-0.463 -0.113,0.344 0.024,0.199 -0.072,0.111 -0.369,0.041 0.712,0.934 0.815,0.441 0.855,-0.088 0.816,-0.664 3.709,7.758 0.883,1.264 1.758,0.943 3.27,4.506 2.23,1.502 v 0.695 l -4.291,-1.445 -0.998,0.35 -0.904,0.578 -1.022,0.461 -1.415,0.056 1.462,1.735 2.158,0.574 5.01,-0.174 v 0.559 l -0.351,1.326 1.022,1.822 2.55,3.197 2.206,-1.439 -2.136,-2.148 -0.974,-1.311 -0.696,-1.447 v -0.559 l 2.135,0.766 4.596,2.926 2.428,1.013 -0.647,1.832 -1,2.004 -1.247,1.16 -1.437,-0.72 0.086,1.295 0.416,1.437 0.582,1.287 0.514,0.824 1.206,0.911 0.855,-0.104 0.84,-0.504 1.182,-0.303 0.991,2.412 0.281,1.67 -0.722,0.758 -0.949,0.754 -0.392,1.791 -0.071,3.752 0.719,-0.709 0.903,-0.568 1.022,-0.104 1.158,0.688 2.95,-2.086 0.256,-0.504 0.134,-1.029 0.416,-0.801 1.071,0.201 0.551,1.478 -1.014,1.868 -0.928,2.121 0.904,1.461 0.781,1.566 0.864,0.703 0.975,0.448 1.087,0.816 0.696,0.98 0.646,1.145 0.721,0.943 2.068,0.998 0.975,1.414 1.389,2.836 0.489,0.584 0.991,1.469 0.447,1.488 -1.119,0.686 -1.246,1.344 0.393,3.019 1.181,3.287 1.04,2.084 1.462,1.805 0.119,0.736 -0.024,1.983 0.28,1.597 0.672,1.207 1.83,1.715 -0.767,0.594 -2.551,0.871 1.623,1.623 0.791,2.172 -0.279,1.486 -1.599,-0.4 0.327,1.598 0.991,0.568 1.279,0.176 1.207,0.439 0.951,1.088 0.599,1.381 -0.16,1.041 -1.39,0.045 v 0.633 L 4.523,33.066 5.337,32.334 5.752,30.383 5.866,28.002 5.681,25.762 5.193,24.117 3.666,20.586 2.438,3.885 l 1.134,2.236 1.278,10.5 1.016,3.334 -0.479,0.631 0.597,1.662 0.441,4.604 1.621,3.849 v 2.438 l -0.743,2.039 -1.437,0.814 1.534,2.733 2.715,8.517 -0.215,2.677 1.024,2.389 1.277,2.222 0.647,2.222 -0.903,13.904 -0.67,2.668 -1.16,1.375 -0.957,-0.688 0.255,-2.093 0.91,-2.301 0.903,-1.302 -1.391,-0.376 -3.085,1.966 -6.886,2.428 -2.045,0.257 -4.012,-0.704 -0.694,0.207 -1.248,0.928 -2.717,0.839 -0.783,1.525 0.208,1.87 1.159,1.655 -0.584,0.639 0.073,3.237 -0.073,0.407 0.623,0.831 1.423,1.174 0.694,0.807 0.833,1.887 0.951,4.051 0.879,1.807 0.671,0.654 1.436,0.919 0.587,0.535 0.46,0.871 0.585,1.863 0.55,0.782 1.6,1.022 0.254,-0.991 -1.318,-4.249 1.231,-0.065 0.928,0.305 0.742,0.631 1.438,1.845 1.782,1.391 1.719,1.717 0.487,0.655 0.255,0.872 0.04,1.454 0.193,1.15 0.741,1.823 0.65,2.7 3.266,5.338 2.877,7.528 0.807,4.187 0.048,1.95 z"
       style="fill:#000000;fill-opacity:1;fill-rule:nonzero;stroke:none"
       transform="matrix(1.3333333,0,0,-1.3333333,543.9844,415.6588)" />
  </g>
</svg>
