<?xml version="1.0" encoding="UTF-8" standalone="no"?>
<svg
   xmlns:dc="http://purl.org/dc/elements/1.1/"
   xmlns:cc="http://creativecommons.org/ns#"
   xmlns:rdf="http://www.w3.org/1999/02/22-rdf-syntax-ns#"
   xmlns:svg="http://www.w3.org/2000/svg"
   xmlns="http://www.w3.org/2000/svg"
   viewBox="0 0 720 720"
   height="720"
   width="720"
   xml:space="preserve"
   version="1.1"
   id="svg2"><metadata
     id="metadata8"><rdf:RDF><cc:Work
         rdf:about=""><dc:format>image/svg+xml</dc:format><dc:type
           rdf:resource="http://purl.org/dc/dcmitype/StillImage" /><dc:title></dc:title></cc:Work></rdf:RDF></metadata><defs
     id="defs6" /><g
     transform="matrix(1.25,0,0,-1.25,0,720)"
     id="g10"><g
       transform="matrix(0.1,0,0,0.1,4.5762712,-180.76271)"
       id="g12"><path
         id="path16"
         style="fill:#000000;fill-opacity:1;fill-rule:nonzero;stroke:none"
         d="m 4690.5071,2579.4168 -0.204,2.6913 0.8564,1.4884 3.2621,-0.2854 0,5.8923 -13.9253,-5.1787 -45.3239,-0.7136 -8.0739,-1.7942 -4.9544,-2.1816 -11.7642,-9.0118 -17.31,-6.4019 -5.1787,-3.9554 -10.4389,-4.6894 -105.5721,-17.9215 16.4332,-11.1527 104.308,20.98 42.551,23.1409 54.7433,5.8923 0.5914,3.201 m 998.6535,405.4884 -19.8586,2.0388 -14.5167,-2.467 2.7933,-9.9293 0,-5.8515 -14.374,2.467 -10.8874,5.4234 -8.3186,-2.0389 -5.9942,-19.5526 -13.8847,4.9952 -13.8438,-7.2175 -27.6265,-23.3043 -27.7897,-12.3351 -14.9245,-3.2213 -6.6467,5.1787 -3.4048,10.1127 -23.5693,35.9451 -10.235,3.8331 -7.6457,-11.4992 -4.4855,-18.3294 -0.6932,-16.8001 -26.9333,29.1149 -9.807,6.0146 -6.6263,-6.1778 -3.466,-10.1126 0.2039,-5.2196 -8.7468,-2.8748 -19.6749,-10.7447 -8.9914,0 -4.0369,6.932 -3.405,10.7449 -5.7291,6.769 -11.3361,-4.9341 7.6457,-18.3904 -11.336,-11.0303 -18.5536,-8.604 -40.2064,-32.2955 -12.8244,-13.4973 -1.9369,-10.7652 1.3049,-11.5807 -10.8671,-8.8486 -16.943,-6.0555 -15.6176,-3.4252 -15.7604,2.5078 -14.7205,6.769 -14.1701,2.0796 -14.9448,-11.3564 -6.4021,5.1787 -7.0544,2.467 -7.6661,0.4894 -8.1758,-1.0399 7.0544,12.2331 13.2526,12.743 14.7409,10.0719 18.411,6.239 5.5253,5.2194 9.8476,12.3148 1.9573,3.6903 4.5059,11.3564 3.8126,4.4244 3.3642,0.795 8.1759,-1.5902 3.3845,0.7952 20.5516,17.3303 6.871,2.2631 1.4679,-6.2593 5.974,-11.8254 6.4019,-6.8913 3.2418,8.6039 -1.7942,12.0701 -2.1001,9.8273 0.8767,9.2156 8.3186,10.7448 6.6263,2.8952 15.6177,0.1223 7.503,4.1389 -5.8107,2.6301 -5.0972,3.9962 -4.7098,5.6069 -4.2815,7.3194 49.8297,47.1589 28.4012,17.0856 10.704,-17.7993 9.807,3.5068 11.5195,7.605 9.6846,9.9497 3.5884,10.9078 -4.0369,8.5225 -9.2361,5.0155 -11.3157,1.6311 -10.0108,-1.4679 -38.9014,-19.5934 -11.1321,-9.1545 -17.7381,-21.2245 -10.6836,-8.8487 -32.9073,-9.2768 -15.8622,-7.3602 -13.2527,-24.181 -42.7344,-19.1856 -45.9355,-44.8753 -16.0662,-6.1778 -93.1963,-19.3487 -113.7275,5.7292 -123.514,0.1224 3.833,-10.3575 -2.1612,-6.6467 -6.6059,-3.099 -9.3788,0.4689 4.0574,19.7566 -10.5002,3.731 -16.005,-4.7709 -12.6205,-5.6884 3.4048,-16.0866 -8.3185,-14.7817 -13.905,-10.602 -33.1518,-10.337 -7.87,-0.4079 -5.9943,2.3855 -14.3535,8.2982 -6.606,1.8146 -14.9652,2.1204 -62.6133,23.6507 -15.6177,0 -6.1981,-7.6457 12.6205,-18.1254 9.6234,13.538 10.9079,-5.5661 6.871,-14.4147 -2.6098,-13.1507 -9.2156,-0.3058 -12.8041,5.6476 -13.0283,2.9156 -9.868,-8.2574 -8.5429,6.9321 -6.4223,6.6875 7.0952,17.7585 -12.6001,12.0292 -18.4517,0.367 -10.439,-17.0856 2.3651,-10.0312 11.5603,-15.7807 0.8156,-7.3604 -5.7293,-3.9757 -18.207,9.4807 -10.2555,0.9786 1.9166,4.4243 2.5893,2.6709 -38.4528,10.0312 -40.4102,-11.071 -24.6498,-30.2158 9.6642,-47.4239 -10.4594,-1.2845 -11.9884,13.6195 -13.2526,19.1246 -14.2924,14.639 -9.0118,-7.1156 -7.8903,-11.1119 -1.2846,-10.3165 23.4877,-9.6846 2.5689,-11.1322 -4.2815,-11.1934 -8.5633,-5.0971 -5.0564,6.0962 -5.6068,12.2944 -7.4418,9.7661 -11.5399,-1.5292 -4.7302,-8.9913 1.8961,-25.4858 -2.1,-11.6215 -16.6575,12.4982 -23.7119,6.6467 -20.776,-4.5058 -7.8904,-21.1022 -34.2528,8.0942 -19.6749,-12.5186 -31.1335,-60.6357 -3.6699,-4.4242 -7.4623,-4.6487 -3.6087,-3.9962 -1.3252,-2.5485 -2.3651,-7.605 -1.2437,-2.7932 -20.5517,-25.7508 -3.8331,-7.2584 2.5894,-22.0604 21.1225,-24.1605 -3.8127,-19.3691 11.7031,-0.5505 37.6578,7.6457 4.2407,2.5486 8.9914,7.5641 6.6263,2.9564 9.0321,-0.4485 6.8098,-3.1806 6.1982,0.3262 7.5233,9.8681 -9.2359,12.5797 -4.7099,3.9554 -5.7291,2.8136 0,6.5855 20.042,14.4147 11.336,4.1389 15.8419,1.468 14.4964,-2.2224 19.4302,-6.0554 14.1497,-8.4408 -1.4679,-9.8885 4.0573,-5.8107 0.7951,-2.7933 0.469,-4.302 -14.0885,-1.0194 -97.0498,-36.5568 -13.2729,-8.4001 24.4051,-5.0564 102.5547,31.5209 131.0578,0 0,6.5039 -19.4507,3.8942 -54.4987,-6.4836 -15.6177,9.1546 4.2612,14.537 20.3478,4.4651 40.553,0.3466 79.1281,26.6071 74.1737,5.8923 15.6177,5.6476 27.1168,16.7798 46.8122,10.5409 7.6661,4.139 10.4593,10.7652 6.871,4.0572 13.0283,0.204 32.0305,-10.4798 16.739,-2.7932 10.0108,4.1389 0,9.5621 -1.6923,11.0304 4.0574,8.4407 8.9913,1.9574 8.9914,-2.7117 8.7467,-4.0573 8.3186,-2.2632 8.7671,0.8972 31.2353,8.0942 9.3583,8.5224 7.5234,1.9574 46.9754,2.0184 15.169,4.4243 18.2071,11.3565 8.7874,1.7126 16.8614,-10.9894 8.3796,-2.0797 15.5566,3.0583 10.6632,8.4409 3.2622,12.5186 -7.5234,15.5972 25.71,-0.9785 81.1874,11.4583 17.3099,-1.0398 -7.0137,-7.9516 -13.7215,-6.0146 -35.9247,-8.8894 -4.5059,-1.4272 -2.2631,-3.0379 1.468,-5.0972 4.4854,-3.731 2.9564,1.7126 3.2214,3.5883 4.0574,2.0186 7.0748,0.4892 74.6222,31.3781 45.752,8.9913 28.4217,17.7585 8.3186,7.3807 -0.4487,8.8283 -4.9339,9.2768 -1.6719,9.7253 3.0175,7.7273 8.5429,3.1398 18.5332,-1.9165 8.3389,-6.0147 -0.5913,-10.337 -8.9913,-14.904 14.068,2.2631 25.4859,14.4147 24.9963,5.4642 40.2063,16.9225 67.5474,46.119 45.5073,12.7429 52.8065,26.8722 48.8919,12.1108 88.9349,52.3579 12.4371,4.8933 10.4798,5.933 5.5048,9.1749 -12.8243,3.8127 m -1608.9248,-412.1554 -9.338,-5.5253 -11.5807,-3.935 -16.2497,0.9786 -11.1118,3.2418 -8.5836,-2.3243 -8.5428,-15.4545 -2.7117,-14.5167 -1.5495,-29.9508 -5.0768,-13.9458 -4.9544,-3.8534 -7.2583,-2.8748 -7.4622,-4.5059 -6.0351,-8.2778 -1.0194,-6.5244 1.0194,-25.8527 86.4069,45.4462 35.6392,35.945 2.6098,49.5035 -14.109,4.8933 -10.0923,-2.467 m 912.1447,100.8828 -38.2286,-10.1536 c -5.9331,-3.8738 -11.8458,-7.768 -17.7584,-11.6826 l -30.3383,-9.1137 -10.337,-1.5496 -9.8069,-3.9349 -21.3469,-19.8789 -11.1117,-8.0943 -47.5259,-17.942 -70.4833,-13.8234 -24.1604,-10.6836 -24.1605,-1.7739 -19.6546,4.7302 4.2612,-11.703 25.8527,1.3864 70.361,13.9865 77.1912,26.9946 23.9158,12.2943 11.9478,2.4262 47.4238,29.0334 68.2406,21.8769 10.4186,1.101 9.0117,7.7273 26.077,12.3962 0,5.8923 -12.1516,-1.9164 -37.6373,-17.5954 m -917.8943,311.5987 c 47.8521,-29.074 95.6429,-58.2094 143.4133,-87.4058 l 0.6524,24.5275 -10.3982,81.9009 2.9157,41.8985 -0.8156,17.1265 -6.6059,16.4536 -10.9283,13.1302 -11.336,10.7448 -9.2156,12.8653 -5.3011,32.5401 -3.2418,7.8088 -2.1204,8.1554 2.1204,13.6196 4.5059,8.0536 7.2787,7.6457 13.4157,10.5001 1.5495,-19.2672 -5.9738,-15.6584 -2.569,-16.1478 11.9478,-20.9595 23.7119,-21.6119 8.7466,-9.8884 7.0953,-14.9246 7.7273,-32.9682 2.7116,-36.0879 -0.5709,-78.3737 -2.4058,-19.4303 -10.0516,-39.2277 -6.1981,-39.8189 -17.0857,-39.0237 -3.8126,-19.8178 -4.5059,-13.905 -41.6947,-73.7047 -5.3621,-18.207 -2.5894,-19.6343 -0.5912,-20.8983 17.0651,12.6613 23.3043,56.191 14.3739,22.142 20.4498,10.7447 26.0974,5.5458 26.4847,0.7544 21.3672,-3.9962 -2.9359,9.1749 -9.868,18.3089 -2.1408,8.3594 3.833,8.4816 8.6039,1.2437 8.5633,-0.4485 3.8127,3.9553 3.833,17.3915 9.4399,15.1691 31.8062,35.2927 7.0952,5.6476 8.7467,1.7127 15.6178,0.082 1.9164,3.8127 15.3934,22.2644 3.8127,9.4806 -1.6923,4.3428 -7.0544,5.77 7.5234,6.6059 1.8961,1.2029 -2.5486,7.8904 -3.6088,8.1962 -2.365,3.0991 -1.7534,1.5699 -3.201,2.3855 -2.3447,2.7728 c -11.8458,18.574 -23.61,37.1684 -35.2722,55.8443 l -4.0574,6.769 10.235,6.8506 c 50.4822,31.3373 100.7808,62.9192 151.3649,94.0526 l 11.5807,8.8079 -10.9282,15.8011 c -11.1525,19.2672 -22.1012,38.6771 -33.1519,58.0259 12.1313,173.8943 21.3877,348.0129 33.1315,521.9276 4.7913,70.5445 8.7875,141.1094 13.4564,211.6539 l -19.4506,23.8138 c 44.9772,175.5459 93.9913,350.1334 140.9666,525.1489 10.3575,38.6568 20.4906,77.334 30.9296,115.9704 l 11.9273,15.6992 c -6.4428,19.9603 -12.9468,39.9208 -19.4303,59.8609 l 7.9107,34.7625 2.0796,16.0662 c 4.2001,173.2826 7.1565,346.5856 10.806,519.8682 0.9175,44.0598 1.7942,88.0992 2.6913,132.1589 l 0,7.3603 0.4689,21.7953 -5.3826,8.0536 -6.7893,6.5448 -3.6904,2.5689 -5.9331,8.6243 -10.2555,35.8432 -3.2621,5.5456 -4.0369,4.3429 -5.3214,2.5078 -11.5401,2.5893 -5.4029,0.1428 -5.0564,-0.4282 -4.9544,-1.2641 -4.2612,-2.2836 -3.833,-3.2418 -2.7729,-4.5874 -2.3447,-5.1379 -3.2622,-17.3915 -2.1611,-5.4437 -3.1603,-4.4244 -3.2418,-3.9554 -8.1146,-5.9126 -7.87,-3.67 -2.7933,-0.734 -1.4476,0.4282 -1.5699,2.3651 -5.0767,9.9293 -4.0777,11.4175 -1.1011,12.2332 -0.4077,21.5915 1.5088,11.1118 1.9369,8.8283 38.0043,98.9254 2.1408,10.8468 1.3049,20.9186 -0.2039,10.4594 -1.3252,7.9311 -1.9166,4.7302 -13.2526,24.1604 -0.5912,6.0555 0.5912,6.0146 4.2612,15.6176 1.7739,13.1303 -0.2243,7.7884 -0.6524,6.3409 -1.4884,4.8729 -2.1204,4.1184 -5.6273,8.4002 -2.9156,8.5428 -3.2417,12.5186 -6.8506,43.7539 -0.6524,15.2507 0.8563,27.341 -1.0195,8.6856 -1.7738,6.6059 -2.1204,4.4447 -9.3788,12.4982 -3.2418,5.6069 -3.1601,8.8486 0,6.9118 1.6922,6.1777 8.5632,14.7613 24.9352,80.7796 2.834,13.5584 2.1205,21.3061 1.4883,5.7292 2.5894,4.9544 2.9767,4.6282 7.3196,7.2992 7.8495,6.0961 8.5632,5.0156 7.6458,5.8311 3.9146,7.2789 2.7525,10.765 2.3446,21.5508 0.2243,19.777 -1.2437,10.235 -10.1128,45.222 -0.367,8.0942 0.367,7.2175 1.9981,5.9739 2.2836,5.6477 13.7215,26.6071 4.6894,12.07 3.466,16.8205 2.0593,14.8022 0.4485,9.4195 -0.2242,9.5623 -0.8156,5.9738 -4.0573,14.8021 -7.2584,16.0663 -30.8276,52.4598 -9.9903,22.2439 -2.1612,8.6652 -5.5661,36.6383 -1.0603,22.2848 0.8156,5.9126 1.101,6.035 11.7234,38.8199 1.5292,11.8661 1.0602,22.8353 2.3243,12.3759 6.8505,20.6943 2.1613,9.3585 2.5689,14.5167 0.6524,8.6039 -0.2038,6.9117 -0.8971,5.036 -1.4476,4.5671 -2.3651,4.6282 -13.4973,15.2302 -3.3844,4.7302 -3.2622,5.8107 -3.3845,8.7671 -1.2845,6.7894 -0.2447,6.3409 1.101,11.7845 1.2437,6.0963 4.0777,12.7428 2.569,5.9127 12.2332,20.1847 2.9155,6.606 2.8136,8.4 2.569,13.4973 0.4485,8.0127 -0.6524,6.9117 -3.8534,14.8837 -3.6904,23.5692 -2.6708,12.2332 c -179.8274,-1.4272 -359.6548,-2.4466 -539.4617,-3.7515 -144.8406,-1.0602 -289.6404,-2.0185 -434.4809,-3.0175 l -11.9477,1.0194 -21.1021,-0.1632 -91.9526,11.4381 -13.0079,-0.7544 -12.4575,-4.1797 -26.5459,-17.9012 -42.286,-15.6176 -11.7642,-6.5448 -31.6227,-25.4245 -12.3758,-5.6476 -39.1665,-10.4798 -101.7187,-62.5929 c -103.4517,-95.6634 -207.1889,-190.9799 -310.7628,-286.4801 l -40.0229,-54.8657 -26.2808,-31.0723 -0.1223,-0.163 9.3379,-14.8837 4.9341,-18.5536 1.4679,-17.9623 -7.7477,-14.007 -46.7714,-31.0927 -1.0602,-3.3845 -0.4077,-5.7496 -1.1011,-6.4019 -2.7932,-5.0971 -2.7117,-1.8963 -37.8616,-15.6176 -3.833,-6.6466 -6.871,-9.4196 -94.2972,-82.9408 -93.8487,-42.8568 -125.8588,-92.0137 -6.402,-14.3535 4.037,-21.5915 9.8069,-6.9934 12.9059,-3.8941 12.8041,-12.4575 3.6088,-11.3157 -1.9165,-7.6865 -2.8137,-6.769 1.1214,-7.8904 5.3011,-5.5252 6.6466,-0.9787 5.5661,4.7302 2.365,11.4175 6.7691,13.5585 47.0976,23.5691 6.1573,-13.7215 29.0946,5.4642 10.2555,-11.1118 -5.3623,-4.9544 -2.1611,-3.303 -2.936,-12.8652 5.5253,6.0351 6.035,4.2407 6.5448,2.5894 7.0748,0.8156 -4.4855,-12.9468 -8.3389,-13.4361 -10.235,-10.4389 -19.0023,-9.6438 -12.4166,-11.7847 -7.4418,-11.7234 4.5059,-5.4641 44.8548,0 13.4565,4.3631 19.8789,18.8595 11.4992,4.2001 12.2127,-3.2419 5.1583,-8.3389 -1.7534,-11.1118 -8.3389,-12.0904 -11.1322,-5.872 -23.712,-4.2815 -9.5418,-9.7253 -5.1583,-15.1081 -1.1213,-12.07 -2.7321,-12.437 -11.3361,-15.7807 -31.4392,-26.7499 -8.135,-14.1904 -19.6751,14.1904 3.6292,6.3612 6.6263,20.3887 -35.6392,-17.4527 -9.6438,-9.2972 -8.3186,-15.9643 4.2409,-6.9932 10.6835,-5.1176 11.3565,-10.4186 4.0574,-4.8728 9.4398,-7.4215 3.568,-4.5262 2.1613,-7.3604 0.2038,-7.5641 0.8971,-7.9108 9.5623,-19.1449 6.4224,-27.4023 4.9544,-12.5389 -6.6263,-19.2061 -1.1214,-22.774 2.7933,-23.9769 4.9544,-23.0596 6.1573,13.905 6.8507,9.4399 7.9107,2.8545 9.1749,-5.8108 -30.5421,-44.8549 -3.6088,-22.0196 19.8789,-14.7614 -14.1497,-13.2322 -28.2178,-34.7829 -14.7206,-6.973 -48.7695,-10.3165 -18.7778,3.466 -29.9101,11.7031 -13.0488,-2.1613 -37.6168,-38.5752 -13.9255,-10.8875 -75.4378,-36.5567 -27.7488,-20.307 -25.0577,-25.3634 -32.6829,-62.2464 -17.3302,12.2332 -10.2555,2.5893 -4.4651,-11.1117 -3.9349,-4.2001 -46.7511,-21.3673 -74.6222,-15.9234 -3.8332,-2.7933 -4.2612,-8.8283 -0.2038,-7.3806 0.6525,-5.9535 -1.1011,-4.9544 -2.5893,-6.1573 0.2242,-3.1195 -1.264,-1.8961 -6.6263,-2.3651 -7.2787,-0.8155 -6.6467,2.1611 -5.7496,4.8525 -5.1379,7.3399 1.8961,3.7107 3.6903,9.8477 -277.8964,13.5584 -33.1519,-7.0748 -90.8312,-33.58 -32.7032,0.2854 -30.114,14.1496 -51.7259,47.1385 -3.6903,1.6922 -16.1885,4.4244 -0.2243,10.5408 -17.9624,8.8283 -259.0777,49.055 -87.202,-14.2109 -110.71016,16.1886 -224.07055,-34.4568 -46.99573,-23.2226 -78.00673,-13.5788 -93.01277,-37.0868 -49.60539,-8.8282 3.26218,-17.0857 3.81266,-88.9757 -0.42817,-10.6225 -1.69225,-12.8041 -3.03789,-8.4001 -4.03694,-7.9515 -3.18062,-10.0312 0.38738,-14.1497 0.0815,-0.265 28.56442,-19.1653 80.57567,-9.7866 19.4711,-24.8536 -3.64952,-21.9178 -25.15953,-26.8109 -6.2593,-22.2441 3.22146,-8.6854 13.49718,-12.5391 3.16028,-5.7495 5.38259,-43.387 4.05724,-10.8262 15.16919,-29.5227 4.05735,-12.6206 1.5291,-8.5428 0,-22.8352 -2.58932,-23.6304 -7.05448,-17.3914 -10.90787,-12.906 -14.51669,-10.1536 -56.61917,-25.5469 -26.97407,-16.8613 -20.32742,-25.2004 -15.16911,-35.9246 -11.49917,-17.1264 -15.61766,-7.1972 -3.24178,-4.2816 -11.92733,-26.2197 -8.78748,-14.4352 -3.87383,-4.1388 -9.35836,-5.1583 -47.8928,-14.4352 -14.94483,-21.1225 -38.0655,-25.1188 -35.96547,-14.9041 -7.44183,-4.5262 -5.15832,-6.2185 -6.15736,-9.2157 -7.3195,-8.2981 -21.57112,-10.9283 -33.96739,-46.0783 -40.41018,-22.7129 -11.72345,-13.6806 -12.57976,-11.6419 -49.442322,-18.6759 -54.274425,-43.4889 -20.34780693,-9.705 -14.72056707,-12.0701 -8.114655,-3.3845 c 0,-87.1204 0.224276,-174.2613 0.224276,-261.3817 175.23991,0 350.45946,-0.1427 525.69938,-0.2854 181.58082,-0.1632 363.18199,-0.265 544.76282,-0.3874 177.1361,-0.1631 354.2721,-0.204 531.4285,-0.4893 176.0351,-0.2855 352.0702,-0.3262 528.1257,-0.4079 182.1109,-0.061 364.2217,-0.265 546.3326,-0.428 175.3622,-0.1428 350.7245,-0.3467 526.0868,-0.3467 0.2446,0 0.4689,0 0.7135,0 l -0.4689,-13.0283 17.3304,-13.3749 22.6721,-10.8059 15.3322,-10.6633 4.3427,-17.8807 1.468,-24.2625 4.2613,-21.4896 11.9477,-9.1952 39.9819,6.5243 9.2157,-3.0378 15.8215,-13.6808 19.6751,-7.2176 10.4797,-18.207 6.8301,-4.1389 9.1341,-3.6495 -2.9359,-9.0117 -16.5148,-20.8984 14.9652,-8.237 12.6614,-4.5874 8.7671,-8.6856 3.1805,-21.1837 -2.365,-9.1545 -9.7866,-8.1961 -2.3446,-9.0526 9.9904,-36.5568 -0.2039,-19.9401 -4.5059,-49.748 2.1408,-9.9905 9.2157,-9.1136 36.5159,-79.1281 9.8682,-15.0061 12.3758,-10.9283 32.2751,-7.9515 8.971,-9.0525 7.0748,-10.8264 10.2555,-9.2769 17.5138,-3.7106 35.4966,2.2427 13.9458,-8.7263 9.3583,-8.4817 7.7272,-0.2038 7.075,3.5068 8.3389,2.2428 5.3009,-3.2418 3.8739,-7.5234 5.5254,-15.5157 6.4223,-9.338 11.1118,-20.7352 3.8127,-19.0837 c 143.3929,-87.6098 286.7043,-175.3215 430.0973,-262.8905 m 1508.4498,172.5079 9.9088,0.5505 10.439,4.7097 19.0226,15.4749 13.0282,7.4215 2.3651,0.5913 2.3447,1.3864 2.1611,3.8738 -57.3122,-7.2583 -12.3963,-5.8923 -3.67,-11.6623 4.7099,-6.5651 9.3991,-2.6301 m -5068.52185,1701.02 7.27873,-6.1981 10.0312,-13.11 11.94773,-11.8457 12.64093,-2.5893 37.43345,59.7385 2.93586,12.2943 -6.6262,9.1341 -18.53322,6.4836 -11.35651,5.5456 -12.00889,-1.264 -12.82444,-3.3845 -13.23214,-0.8971 1.28448,-14.272 -9.62342,-33.2131 0.65244,-6.4223 m 2160.88465,1305.8279 -0.6932,-11.4379 5.5253,-9.338 6.6671,1.6106 20.7352,19.0226 12.8245,5.1379 16.0457,12.7021 14.2924,15.8012 10.7245,18.0439 1.8757,2.5078 1.3456,2.9563 0,4.8526 -9.8681,-0.4282 -7.4622,-4.5671 -12.437,-15.7604 -3.8535,15.7604 -8.9709,-7.0545 -16.8614,-29.3187 -4.934,6.2593 1.8961,2.1816 0.8767,0.082 0.8971,0.9787 1.2641,4.2612 -8.3389,-0.1428 -7.0341,-2.0592 -5.7904,-4.3631 -3.8942,-7.1972 -1.6922,0.5709 -2.936,0.5912 -4.5059,0 -5.8311,-1.1621 0,-7.5234 9.6846,-3.4456 0.4485,-9.5216 M 2527.5223,5839.9 l 9.6438,12.3554 8.9711,22.4275 2.365,11.3157 -8.0943,0.734 -12.6613,-5.3011 -10.704,-6.7486 -13.2322,-12.2331 -4.2816,-10.7449 2.1408,-32.4382 25.8527,20.6333 m 65.8552,268.8643 17.5138,4.2612 27.4226,21.6527 17.0653,9.1341 0,4.2816 -1.0807,3.2213 -3.8533,6.2186 -4.6894,0.7136 -5.5458,-3.6699 -6.6262,-2.2224 -7.972,5.1787 -8.5224,-7.2991 -18.574,-6.4224 -7.8699,-6.9933 -2.8137,-6.9933 -1.0807,-9.4399 1.3254,-8.1758 5.301,-3.4457" /></g></g></svg>