<?xml version="1.0" encoding="UTF-8" standalone="no"?>
<!-- Created with Inkscape (http://www.inkscape.org/) -->

<svg
   xmlns:dc="http://purl.org/dc/elements/1.1/"
   xmlns:cc="http://creativecommons.org/ns#"
   xmlns:rdf="http://www.w3.org/1999/02/22-rdf-syntax-ns#"
   xmlns:svg="http://www.w3.org/2000/svg"
   xmlns="http://www.w3.org/2000/svg"
   xmlns:sodipodi="http://sodipodi.sourceforge.net/DTD/sodipodi-0.dtd"
   xmlns:inkscape="http://www.inkscape.org/namespaces/inkscape"
   id="svg2"
   version="1.1"
   inkscape:version="0.91 r13725"
   xml:space="preserve"
   width="720"
   height="720"
   viewBox="0 0 720 720"
   sodipodi:docname="PL-EPS-01-0001.svg"><metadata
     id="metadata8"><rdf:RDF><cc:Work
         rdf:about=""><dc:format>image/svg+xml</dc:format><dc:type
           rdf:resource="http://purl.org/dc/dcmitype/StillImage" /><dc:title></dc:title></cc:Work></rdf:RDF></metadata><defs
     id="defs6" /><sodipodi:namedview
     pagecolor="#ffffff"
     bordercolor="#666666"
     borderopacity="1"
     objecttolerance="10"
     gridtolerance="10"
     guidetolerance="10"
     inkscape:pageopacity="0"
     inkscape:pageshadow="2"
     inkscape:window-width="1152"
     inkscape:window-height="752"
     id="namedview4"
     showgrid="false"
     inkscape:zoom="0.34962963"
     inkscape:cx="450"
     inkscape:cy="337.5"
     inkscape:window-x="0"
     inkscape:window-y="0"
     inkscape:window-maximized="0"
     inkscape:current-layer="g12" /><g
     id="g10"
     inkscape:groupmode="layer"
     inkscape:label="ink_ext_XXXXXX"
     transform="matrix(1.25,0,0,-1.25,0,720)"><g
       id="g12"
       transform="scale(0.1,0.1)"><path
         d="m 3174.8341,5237.355 12.2774,-9.4992 28.2737,-9.4321 164.1313,-8.7151 223.7032,-11.65 333.9978,-17.4079 206.9675,-10.8883 250.5433,-13.0839 321.5412,-16.6237 135.1405,-7.3037 108.8831,-5.7802 39.9238,13.0839 10.9107,8.7151 15.2794,28.3186 14.473,6.4747 12.3446,-1.389 34.7933,-18.1696 6.5419,-0.7617 13.0839,2.89 5.825,-1.389 5.7803,-6.4299 3.719,-8.043 2.8678,-7.931 3.6741,-6.5868 6.4972,-4.324 19.6482,-2.1732 3.5847,-5.108 -2.1732,-9.4097 -3.607,-10.9555 0,-10.0818 10.1714,-14.5401 13.0839,0 13.756,5.8474 11.65,2.8677 10.149,-5.0633 35.6222,-30.4694 21.7095,-13.8455 46.4881,-17.4079 22.5159,-18.9089 5.8251,-8.7824 10.149,-20.2755 5.1304,-7.9982 5.8027,-3.6518 12.3222,-3.6071 5.0409,-2.9573 9.4768,-13.8008 7.9758,-19.581 6.5644,-21.7991 4.2791,-21.0149 8.7375,-45.7488 0,-21.7991 -8.7375,-15.2794 -7.214,-5.8027 -2.1508,-5.8922 -2.9573,-4.2792 0,-10.1937 2.1507,-8.6927 5.0409,-7.3485 5.8922,-5.0409 3.6743,-4.3015 1.4338,-5.1306 0,-5.0408 -2.2179,-5.8251 0.7841,-29.0579 5.7578,-24.017 7.9758,-22.4487 5.9146,-24.7563 5.0857,-51.5515 5.7578,-20.2532 13.8457,-20.3203 0,0 1.4115,-59.5497 13.8007,-67.5926 48.6614,-151.025 27.6464,-56.6147 11.5604,-30.5142 23.233,-90.7358 10.1489,-27.6242 10.2162,-13.8008 5.7578,-13.8904 4.3912,-13.756 7.2141,-15.2571 10.1489,-11.5156 10.1266,-8.1326 5.8922,-11.5605 -1.4338,-23.1881 -5.0857,-13.868 -7.2588,-11.6052 -5.7803,-13.0839 -0.7393,-18.8417 5.0408,-15.9964 17.3631,-22.5159 6.5644,-13.8232 0.7169,-7.1918 -1.3891,-11.5604 0,-5.9146 5.1081,-26.8847 0,-8.0879 -1.4562,-5.7578 -6.4748,-13.0838 -1.4562,-7.2141 0.717,-10.1939 2.1955,-5.7578 2.1284,-5.1081 1.4786,-7.2364 5.8027,-144.5278 -7.9982,-40.7079 -23.2105,-28.2962 -77.0024,-52.2907 -96.5608,-27.6241 -50.8122,-29.73 -50.7897,-42.8139 -70.4604,-108.211 -23.2553,-28.341 -10.9555,-16.6909 -26.8622,-55.0913 1.4561,0 8.7152,-7.3261 6.4747,-9.2752 2.1508,-12.4118 -4.2567,-16.6461 13.0391,-8.8047 41.4472,-10.7987 8.6927,3.607 7.9983,-8.0431 35.5326,-13.039 12.3893,-1.4562 0,-5.8027 -4.4135,-8.7599 1.4563,-1.4115 7.9758,2.8901 7.2588,-2.8901 5.1081,-5.0857 5.8475,-0.7393 7.9757,9.4769 2.1732,-4.4136 5.8475,-5.0633 3.6518,-4.3016 9.4321,9.3649 2.1283,-7.1917 -1.4339,-11.6724 -2.1732,-3.6071 15.9741,-31.9479 11.0004,-3.6743 27.4895,0.7169 10.9332,-6.5196 3.6742,-7.2139 2.8901,-7.9759 3.7191,-5.825 5.0408,-2.1956 7.2141,-5.1305 2.1732,-10.8211 0.8514,-10.9779 4.2118,-11.6053 8.0207,-35.5325 6.5419,-15.9741 -8.7599,-6.4971 -7.2141,-11.6725 -10.9555,-26.1006 -3.6518,-17.475 0,-30.4022 -3.5846,-10.2162 2.106,-0.7169 0.7617,0 0.7169,-0.6945 0,-4.3911 -6.542,-3.6743 -2.1059,-20.2979 -6.5195,-7.9759 8.6927,-16.7581 11.0003,-14.4058 -6.5644,-21.799 -10.9107,-10.8883 -12.3221,-7.2589 -9.4321,-11.5828 -2.106,-6.4971 -2.1956,-10.1938 -3.6742,-21.7319 2.1508,-4.3911 3.719,-6.5643 1.3666,-5.7579 -5.0856,-2.9125 -2.1508,-2.9573 2.1508,-5.7578 3.719,-6.5644 2.9126,-3.6742 -7.3038,-9.3649 -3.719,-2.1955 -5.0185,-0.8066 0,-7.1916 6.5196,-7.2589 0.7393,-8.7151 -3.6519,-24.6891 2.1956,-13.0391 5.0409,-13.084 13.1063,-21.7766 -7.9757,0 7.2364,-14.4953 8.7151,-3.7191 7.9758,-5.0408 2.1956,-12.367 0.7169,-5.7579 3.7191,-13.1286 8.6927,-6.4524 10.1714,-3.6743 7.9534,-5.825 -8.6928,-18.8641 0.7394,-5.8474 23.2328,-34.8605 4.3689,-10.8435 -6.542,-2.9573 -4.3688,-6.4748 -0.7393,-9.4544 3.7414,-12.3222 -11.0003,-4.2792 -10.1713,-10.9555 -7.9759,-13.8232 -2.8677,-12.3893 3.6743,-19.5587 8.7151,-5.0857 10.9107,0 9.432,-6.5419 31.9481,-70.4155 13.1063,-15.9741 29.0579,-18.9314 27.6016,-27.5343 6.4523,-10.9108 -9.4544,-5.0857 -2.1059,-8.7823 8.7151,-18.1472 15.2794,-23.2553 5.0858,-12.3221 6.4075,-38.49 0,-5.7802 -2.0836,-7.3037 4.324,-3.7191 7.2588,-2.8676 7.2141,-5.0409 6.5419,-9.4321 1.3891,-7.2141 0.6945,-8.0654 3.0245,-11.5828 8.7152,-14.5177 39.2292,-36.2944 47.8772,-26.8175 7.3038,-11.6053 -7.3038,-16.0187 -17.3854,-3.6295 -18.9313,0 -11.5605,-5.1529 -15.2795,8.7824 -15.974,-2.106 -13.0838,-10.2162 -7.2813,-16.0412 0.7617,-17.3406 8.8048,-11.6502 13.7335,-6.497 16.0412,-2.1509 0,-5.825 -7.2139,-15.974 7.9982,-13.8904 15.974,-9.3424 15.2794,-3.6295 -3.6966,-21.1718 4.3463,-18.8864 14.4506,-35.5327 -13.0391,-23.2553 5.7578,-42.8138 3.6742,-12.2998 2.9574,-2.9573 -0.7842,-2.0835 -7.2588,-10.2162 -10.8884,-11.6277 -37.0561,-19.6035 -1.4339,-10.8659 0.717,-17.475 -0.717,-11.5156 -2.8676,-9.4545 -13.1064,-29.7076 -30.5141,-13.084 -104.5367,-1.4561 -19.5138,-6.4972 -10.2162,-5.0858 -8.043,-7.9982 -6.4076,-13.0838 -8.0655,-25.3836 -7.9308,-11.6053 -45.7489,-49.3559 -16.6909,-13.8232 0,0 -31.2535,-24.0395 -26.1679,-20.2755 -132.0935,-143.0715 -17.3631,-26.9295 -21.1717,-16.6462 -23.2105,-25.406 -62.4621,-92.1698 -23.9722,-24.7339 -2.9349,-7.2365 -4.3464,-18.10235 -2.8677,-6.56438 -5.1081,-5.04091 -10.1266,-3.67419 -5.1081,-3.65182 -5.9146,-6.54202 -35.5327,-64.63531 -9.3424,-10.19378 -6.5643,-2.89011 -12.367,-2.89011 -6.4075,-5.84742 -4.4136,-7.9534 -10.149,-28.36337 -43.5756,-58.83273 -14.5178,-34.09879 10.9555,-31.97041 3.607,-13.0839 3.7192,-37.75062 2.1058,-10.14898 1.4563,-5.1305 7.2365,-12.32216 12.367,-13.01669 3.607,-6.54194 2.1956,-13.86804 7.9758,-81.25906 -2.1732,-13.0839 -9.3648,-26.86231 -8.0654,-31.27589 -9.3649,-18.90892 -2.9349,-10.8659 3.6743,-4.36877 2.8677,2.21799 7.9982,9.36484 8.7823,-6.47473 -0.7841,0 -2.106,-0.73933 18.8417,-13.1063 16.6237,-22.47115 11.0003,-8.02061 26.1454,-14.51774 7.2365,-8.64792 0,-7.32609 -5.0857,-17.43026 -0.7842,-11.53803 2.2181,-8.04301 9.4321,-15.9964 2.1731,-4.30155 -6.542,-13.80082 -11.538,5.01848 -13.0839,11.67244 -10.1714,5.04088 -6.5419,2.17318 -10.8883,15.23468 -5.8026,5.84743 -6.542,0.71693 -13.0838,-4.36877 -21.0373,1.47866 -12.367,-1.47866 -12.2998,1.47866 -14.4953,9.40964 -21.7767,23.97222 -11.538,3.65183 -12.3894,-11.58282 -20.2979,9.45445 -45.0319,2.12837 -21.0821,6.47474 -28.9683,29.81964 -12.3894,5.04088 -32.0152,-1.45626 -26.8623,8.06542 -0.7618,7.19166 -1.4338,5.84743 1.4338,5.82502 0,5.80262 -6.4747,7.28128 -5.1304,0.76173 -13.8009,-1.38904 -5.8923,0 -6.4299,2.89011 -18.9761,12.38937 -40.5736,7.931 -16.6909,11.56042 -3.607,28.36338 -7.2589,31.23108 -16.7133,26.83991 -21.0821,19.58104 -31.2087,15.23467 -21.0821,19.64824 -10.9331,5.75781 -11.538,-2.10596 -10.1938,-8.73753 -7.9982,-9.43206 -5.7354,-4.39117 -8.872,7.34849 -19.4914,29.70761 -9.432,10.14899 -5.825,1.41144 -8.76,-2.12837 -4.3688,0.71693 -5.8025,3.71905 -10.9108,10.08177 -5.7578,4.36876 -10.9779,2.89011 -41.3801,-4.25674 -18.8865,-8.04301 -8.8048,2.8677 -21.7542,-4.30156 -9.4096,0 -55.9203,15.974 -32.6873,17.40785 -7.9981,2.15079 -10.1267,-7.19167 -18.1919,-26.90711 -10.1042,-9.47687 -12.367,-2.12838 -8.7823,5.84744 -7.9535,8.62551 -10.1489,7.34848 -8.76,0.71694 -23.2552,-4.34637 -8.7824,-4.36877 -11.5156,-13.01668 7.2813,-7.99821 13.7784,-7.9982 7.2589,-13.0839 -5.0633,-8.04301 -10.9108,-2.17318 -12.3445,0 -8.7823,-2.10597 -12.2998,-11.58283 -18.9537,-27.62405 -12.3445,-10.7987 -13.7561,-5.19771 -10.9107,2.17318 -9.4545,6.49714 -9.4096,10.19379 -10.9331,8.02061 -8.7152,1.36664 -10.149,-0.71693 -13.0838,2.17319 -9.4097,6.47473 -51.529,61.00591 -8.76,1.45626 -21.7542,-3.71905 -12.3669,2.19557 -5.0409,0 -5.8475,-3.67424 -9.432,-11.49321 -6.4747,-6.56436 -13.8681,-5.04089 -13.0391,2.89011 -48.7061,24.68914 -8.6927,-2.17318 0,-15.25708 -29.7301,-1.50107 -23.9498,8.84956 -6.5419,0 -5.8251,-4.41358 -2.1732,-5.08569 -1.3666,-7.95339 -3.0245,-12.36697 -4.2568,-12.36698 -2.9573,-3.56222 -44.2926,-4.34636 -8.6927,-5.1081 -12.3894,-15.25707 -5.8474,-4.36877 -13.0167,1.43385 -1.4786,1.43385 -3.6295,-4.34637 -10.9555,-24.66672 -3.6518,-10.12658 -4.3016,-9.47686 -7.2588,-8.67033 -3.6519,-31.25348 -5.8026,-21.70941 -11.65,-8.78234 -18.8418,9.43205 -29.7748,28.29617 -15.974,8.04301 -17.4303,-2.19558 -10.2161,-8.02061 -19.5139,-20.27555 -13.1287,-4.34637 -26.8623,2.17318 -14.5177,5.04089 -7.2813,10.21618 2.1507,11.49323 21.8439,35.68945 2.8901,2.15078 3.6294,0.73933 3.719,2.17318 1.3668,5.01848 -0.717,3.65185 -4.3688,5.10809 -0.7169,2.19559 -7.9982,5.7354 -2.1508,2.95733 0,3.65183 4.3464,6.47474 0.6945,3.62944 -3.5846,42.90353 -2.9798,14.49534 -5.0409,16.69093 -5.0632,4.30156 -19.6034,-7.9534 -12.3894,-0.71693 -12.2998,1.36665 -33.4491,11.60523 1.5012,10.84351 -0.7394,13.84562 0.7394,4.39118 2.89,5.80262 -23.2329,0 -12.3221,2.9125 -10.2162,8.02061 -2.8677,6.47473 -9.4321,28.36339 -10.9331,44.96469 -7.2588,18.19199 -13.7337,8.67033 -4.3912,4.36876 -9.432,17.40785 -6.4972,2.93492 -3.6741,-1.41144 -2.1285,-4.34637 -50.1176,-55.18088 -4.3687,-3.60703 -7.9086,-2.95733 -5.8474,-0.69452 -17.4303,0 -10.9108,-2.2852 -9.4544,-4.27915 -8.6928,-7.9758 -7.9757,-13.0839 -9.4544,-29.08031 0.7392,-0.71692 2.1732,-2.8677 0.717,-4.39117 -1.3891,-5.82503 -2.89,-2.17317 -8.7152,0 -4.3016,-17.40786 -1.4338,-10.93312 -4.3912,-7.21406 -17.4303,-7.30368 -14.4729,-2.91252 -5.7578,0.73934 -5.8922,2.8677 -11.5605,8.06541 -5.0632,2.15078 -12.3894,-2.89011 -22.4936,-13.08389 -14.4953,-1.41145 -11.5829,2.15078 -2.89,10.21619 2.1955,29.05789 -1.4562,13.0391 -2.9349,12.34456 -0.717,13.10631 5.1081,14.47293 -16.7133,10.2162 -57.354,5.04088 2.1732,14.45054 -1.4563,18.21439 -7.9982,37.70582 -2.9126,8.04301 -6.5419,15.18987 -2.9125,8.71513 -3.5622,30.51415 -2.2405,7.23647 -8.6926,6.56435 -8.7824,-1.43385 -8.6927,-4.30155 -8.7823,-0.82895 -7.2813,4.43598 -11.5156,13.80082 -7.2813,6.45233 -7.9758,2.19559 -17.4751,1.36664 -7.9982,5.1081 -3.607,6.56435 -5.8699,26.16779 -13.756,28.27378 -10.2162,26.90712 0,24.01705 15.9964,18.1472 -15.257,7.9085 -2.1508,11.65 1.4114,13.8457 -3.607,16.6909 -8.7599,5.0185 -22.516,-14.473 -13.0839,0 -42.7691,23.9722 -22.516,8.0431 -23.2328,-3.0021 1.389,0 0.7618,-0.717 0.7169,-0.7169 0.7393,-1.4562 -15.9741,-13.8009 -7.9981,-1.4338 -11.5829,9.4769 -3.6518,5.7578 -3.6743,13.8232 -2.1059,5.0409 -6.542,5.1529 -13.8232,2.8901 -7.9758,1.4338 -18.2144,15.974 -8.6927,5.0409 -37.056,7.2813 -7.259,8.7151 3.6743,16.6909 -33.4043,22.516 -17.475,4.3911 3.0021,-20.4323 2.8901,-1.3667 4.3015,1.3667 5.0633,0 4.3912,-6.4748 0.7169,-8.6702 -2.8901,-3.7192 -18.9089,-5.8025 -23.2553,-0.7394 -10.1489,-2.9349 -16.691,-15.2346 -21.0821,-6.4748 -21.0149,4.3688 -37.773,37.0561 -6.4747,8.6255 -4.3912,10.9331 -3.6519,10.9332 -3.6742,10.1489 -6.4748,7.9758 -5.108,5.1977 -1.389,5.0185 1.389,5.0633 5.108,4.3016 0,3.0245 -7.9981,1.4114 -15.974,7.9982 -7.2589,2.106 -6.4972,-1.3891 -5.0856,-2.8676 -5.825,-0.8066 -8.7824,3.6742 -28.2737,35.6223 -1.4563,6.4747 4.324,8.76 6.5419,2.9125 27.5568,0.6945 15.2123,5.8923 24.7339,14.5177 11.6052,10.1266 5.0409,13.7784 -8.7151,16.6909 -5.825,5.9146 -1.4562,8.6255 1.4562,8.7824 6.4747,16.7133 1.4339,2.8454 0,5.1304 -1.4339,2.106 -10.9107,14.4954 -3.607,3.0245 -9.4321,3.607 -3.6742,-2.1732 -1.4338,-6.5867 -2.8677,-7.2365 -17.4975,-23.8825 -10.149,-8.0431 -13.0839,-3.6071 -51.5291,9.3649 -27.5568,-2.89 -16.6909,-20.2757 -2.9349,-2.1955 -2.8901,-0.8066 -2.935,0.8066 -2.9124,2.1955 -5.0857,16.6014 -12.2998,10.1713 -13.1063,-0.7169 -6.4971,-16.6909 -8.0207,5.8699 -4.2791,9.3199 -0.7617,11.5829 0.7617,11.6724 -2.9349,2.1508 -2.1508,2.8678 -2.1732,2.8676 -1.4338,3.7415 10.9331,4.324 -12.3894,5.0409 -26.9071,-0.7394 -13.8008,3.607 -20.2979,13.1063 -5.8251,5.8923 -3.6742,7.9757 -3.6519,11.6053 -2.1508,10.1938 1.4338,2.1956 -6.5419,2.1283 -17.4303,-3.6741 -7.9757,0 -7.2813,3.6741 -13.8008,11.538 -6.4747,3.6743 -59.5946,16.7581 -13.0838,-1.5234 -24.6892,15.2571 -13.0166,1.5011 -15.9964,-9.477 0,-12.3893 18.8641,-27.4672 6.5419,-16.6909 4.3464,-18.9986 5.8026,-17.4079 10.8883,-10.8434 13.8008,-8.0207 11.0003,-11.5828 5.7579,-16.0412 0.7393,-21.7542 7.9758,-10.1938 0.7842,-11.538 -3.6743,-8.043 -7.2589,2.8901 -5.825,9.4544 -2.8902,5.0633 -3.6069,2.1732 -7.9759,0 -1.501,-2.1732 0,-10.8434 -1.4563,-3.6743 -5.0857,0 -10.8883,3.6743 -5.1081,0 -6.4075,-5.1081 -9.4993,-13.1288 -5.7578,-5.0409 -13.0838,-3.5846 -11.5828,0.7393 -11.6053,-1.4786 -13.084,-10.8884 -10.2162,-15.9964 -6.497,-12.3669 -7.1918,-10.1715 -13.1063,-9.4096 -18.1247,-24.6219 -23.2329,-1.501 -24.017,13.0838 -19.5811,18.1248 -10.1489,13.1735 -5.1081,11.6053 -6.542,30.4918 -6.4299,16.6461 -17.4751,18.1247 -7.214,13.0839 -8.043,11.6053 -14.473,26.8175 -7.9757,11.6724 -13.1063,8.7376 -25.4061,9.3648 -10.149,13.8457 -1.4339,8.043 0.7169,7.9757 -0.7169,8.7152 -3.6742,8.7599 -5.0857,1.389 -30.5142,0 -6.4299,-2.1059 -4.3687,-3.6519 -4.3912,-0.7841 -7.1469,5.825 -3.0245,5.0857 -7.1917,23.2553 -18.9088,3.6519 -5.1081,15.974 4.3911,14.4953 11.5156,-2.9125 -0.7169,2.9125 -2.8901,10.2162 3.607,0 5.1081,3.6518 2.9574,1.3891 8.6927,7.2364 10.2161,5.8922 8.6927,7.1469 4.324,11.5828 8.7824,2.9574 18.9089,-5.0409 10.149,2.0835 5.1081,7.3485 11.5379,11.5381 5.1081,9.4768 -1.3889,-0.7169 0,5.0185 0.7169,7.2141 0.7169,4.4135 2.8901,5.0409 1.4339,2.0835 0,3.0023 -2.1508,7.2139 18.1248,7.3262 -5.0409,17.4303 -49.3559,52.2907 -17.4975,10.1489 -18.8192,4.324 -21.1046,0.7618 -7.2588,-1.4115 -4.324,-9.4544 -4.3911,-11.6501 -7.1917,-8.6255 -9.432,-2.1732 -8.7824,4.324 -18.1248,13.8008 -24.622,2.1731 -35.6222,-34.8156 -24.6667,-4.3464 -1.389,2.8677 0,5.8474 1.389,2.8677 7.9758,6.5644 1.4563,10.7763 -2.8901,12.3894 -5.1081,12.367 -7.259,14.5401 -7.9981,7.2141 -9.432,1.4338 -34.0989,-13.0838 -15.974,0 -3.7414,1.4561 -28.99073,49.4232 -1.50101,5.7802 -1.38908,6.5195 -14.51774,1.4338 -47.94444,-11.6052 -5.7354,2.1732 -4.39117,4.2792 -7.99821,11.6276 -6.47474,4.3239 -115.42505,40.7304 -24.01702,-2.1508 -5.10809,-6.6315 -5.82503,-9.3648 -6.49714,-6.5421 -7.97579,2.935 -3.67425,7.2812 0.73933,8.7151 1.43385,9.4098 0,8.6926 -7.25887,17.52 -8.78234,7.1692 -10.14899,5.1081 -11.53801,9.432 -5.80263,10.1714 -6.56435,15.2347 -5.08569,16.0412 -1.38904,13.0391 4.32396,16.691 5.04088,9.3648 0.78414,8.7599 -9.43206,15.2571 -15.25707,7.2141 -35.55505,-2.1732 -5.08569,13.868 -2.89011,13.8681 -6.56435,3.607 -7.19166,-5.1081 -5.04089,-12.2774 0,0 -2.21799,-9.5217 -6.54194,-1.4114 -7.931,4.4136 -7.25886,6.5195 -5.10811,8.7599 -29.0803,6.4748 -10.86591,10.1714 -1.45625,-7.2813 -2.91252,-4.3463 -8.71512,-5.8699 -2.93492,-0.7393 -3.67424,-1.4115 -2.8677,-2.1955 -2.89011,-2.8678 0,0 2.89011,-10.2162 9.40964,-7.1916 8.71514,-13.1063 0.71692,-26.1678 -1.38905,-5.0633 -5.80261,-6.4971 -1.45626,-2.8677 -0.71692,-5.1529 0,-3.5847 0.71692,-2.8901 0.71693,-31.9703 -1.38904,-8.0431 -66.04679,5.0409 -21.08211,-5.8026 -12.29975,0.7617 0,16.6461 7.97579,13.0839 20.29796,23.2553 29.0579,69.6986 26.123,65.3971 1.45624,10.2162 0,17.4303 0.78415,8.6254 2.8677,6.6092 4.32396,4.2567 3.67424,5.8475 0.78414,11.5828 0.71693,23.233 4.39116,25.406 7.97581,24.6891 10.14897,19.581 -2.15077,2.1508 -2.24039,2.8901 2.95731,26.8848 -7.9982,18.1695 -13.08389,15.2347 -10.86592,18.9089 -1.45624,6.5196 -2.218,16.7133 0,0.7618 -5.82501,63.8736 5.10809,11.6052 -5.82502,13.0167 -10.86591,10.9107 -8.78235,7.2588 -13.08389,6.5644 -26.90713,7.9087 -13.08389,7.326 0,0 -12.25494,8.7152 -37.77304,13.0391 -13.0839,13.8232 -2.89011,15.974 5.10811,18.1247 11.53802,17.4303 6.54195,18.9537 -0.78414,24.6443 -5.82502,23.2777 -7.25887,15.974 -28.29618,23.2553 -13.08389,15.2571 -5.82502,23.9498 -2.17318,24.6891 -7.9758,10.9332 -10.14898,7.1916 -9.49927,14.4954 -1.38904,19.5586 7.23647,15.9964 33.38185,33.4939 10.97793,14.3833 8.69273,16.6909 5.1305,18.2368 2.15078,57.3317 2.8901,8.7824 12.36698,22.4487 2.15077,8.8495 0.73933,8.6031 1.43385,8.1551 4.32396,7.8862 10.93312,13.1286 -37.77303,28.3186 -5.75781,13.1063 3.58462,24.5995 6.49715,17.3631 2.15077,13.1287 -8.69272,13.1286 0,5.7355 10.91072,15.2795 0,18.9089 -8.75994,16.6237 -15.974,7.3261 -16.69093,3.607 -19.58104,10.2162 -13.0839,14.5401 3.71905,17.3408 -12.36697,27.6015 -13.86803,41.3353 -3.60703,37.7731 29.77483,26.1453 13.75601,22.516 9.49927,22.4487 -2.95732,10.2162 -10.91071,10.0818 4.32394,21.8886 15.95161,34.0988 -18.12478,14.4953 -34.12119,40.6184 -34.88292,13.8008 -16.62372,22.6055 -10.88831,5.0409 -5.86983,5.7355 -19.51383,39.2965 -8.78234,10.1937 -61.0059,44.9423 -15.974004,8.7599 -18.864113,22.4488 -11.627639,5.0857 -13.106305,0.8289 -12.299759,3.6519 -10.14898,7.9086 -6.497141,13.1063 15.257078,14.5401 5.75781,11.5829 2.957319,18.1247 -1.389044,12.3671 -7.258874,33.4042 -3.741456,9.4321 0,5.825 28.340971,21.0148 34.860523,18.1248 34.143594,26.9744 17.43025,18.1248 7.97581,17.4078 1.45626,8.0654 17.40785,54.4416 -1.43385,13.8455 -3.67425,13.8009 -2.15078,15.2571 1.36665,13.0839 4.39116,11.5828 5.82503,8.7376 5.82502,3.5622 4.32396,6.5643 15.25708,29.7301 -7.9982,7.3261 -2.15078,5.0409 -8.71514,7.326 -3.71905,5.7578 -1.38904,9.5217 0,17.3406 -0.71692,7.9086 -16.04123,74.8739 -5.80261,50.028 -12.38938,20.3653 -5.75781,20.3651 -13.82322,21.799 -4.36876,20.2532 -0.71694,21.8438 1.43386,35.5102 -0.71692,9.4545 -12.366974,37.7282 -8.715136,18.8417 2.083569,15.2795 -0.69452,26.952 5.802612,0.7169 10.171379,4.324 8.04302,7.2812 0.71693,7.9758 -10.14899,7.2589 5.82503,3.6518 2.15078,2.9126 -2.15078,3.6518 -5.82503,3.607 2.89011,7.3261 5.82502,-5.1305 7.9758,-4.3688 7.25888,-5.0409 6.54195,-18.8416 7.9982,-6.6093 15.974,-7.214 11.58284,-12.3893 6.49714,-5.0186 25.40606,-4.3463 31.23108,-10.9331 10.8435,-8.0431 8.84956,-12.9494 18.8417,-36.384 6.56435,-8.6479 2.8677,2.8677 0.71693,15.2571 2.95732,8.6479 5.04089,5.8698 7.97579,6.4971 0,7.3261 0.78415,5.8699 -5.75781,1.4114 -15.25708,1.3666 -6.54196,3.6743 -18.14718,43.5757 3.62944,21.799 14.51774,42.0969 6.54196,-5.825 5.78021,1.4338 6.47474,3.6071 8.75994,0 -4.32396,24.6892 2.17317,19.6482 3.65184,17.4079 2.17319,18.1247 -3.67424,0 -1.43385,-11.65 -4.25676,-7.9086 -13.89043,-13.8232 3.67424,-6.5419 -5.06329,2.2179 -4.36876,2.8902 -2.8677,3.607 -2.95733,5.1529 2.95733,2.8901 5.01847,7.1916 3.67425,3.6743 -7.9982,16.6237 -13.80083,8.043 -63.89601,6.5196 -8.75994,10.1714 7.25888,18.8864 -2.15078,2.1508 0,0.7169 -1.45626,3.7191 -5.82502,-9.3648 -4.30156,-1.4338 -5.06329,2.89 -6.54194,1.4338 -5.1081,-2.1507 -3.60704,-5.1753 -3.71905,-6.4748 -5.10809,-6.4971 17.49747,-3.6743 9.40965,-4.3912 5.1081,-6.4075 -2.93491,-11.6052 -5.89224,-8.715 -7.21407,-2.935 -5.01848,3.6742 -16.04122,-10.1937 -7.9982,-2.8902 -7.9982,-0.7393 0,-6.542 7.9982,-2.9124 -0.71692,-2.1284 -7.28128,-1.4339 -5.80262,0.7169 -8.78234,4.324 -6.47474,0.7169 -9.432049,6.6092 -27.62406,39.8117 -13.75601,6.5644 -1.456257,0 -5.108092,15.2571 -10.126579,12.3669 5.825026,1.3668 5.108092,3.6742 10.148987,26.1677 9.364833,-4.3687 6.541954,-5.0409 17.475073,-6.5643 57.331662,-4.324 23.25527,4.324 22.51596,12.2997 41.38006,30.5141 152.48116,68.2873 132.11599,34.8381 160.43455,67.4806 103.79742,27.6465 114.03601,31.2086 111.75081,50.7897 93.0212,11.6053 63.8959,21.799 -7.2588,-7.3261 -28.2962,-13.0838 12.3222,-8.7152 50.7897,8.7152 0,6.5642 -3.6519,0 0,7.259 27.6241,0 0,5.0856 -0.7841,0.7394 -1.4563,0 -1.4338,1.3666 0.7841,16.0188 -13.0391,0.7394 -31.2759,-10.149 19.581,10.149 23.9499,15.257 35.6222,42.0971 -7.2588,-14.4058 -13.1063,-13.8233 -5.0858,-7.326 5.0858,2.1507 10.9331,2.1957 8.7599,3.719 7.9982,9.3648 20.2979,9.4545 7.2589,8.6704 -7.2589,14.5401 -11.538,0 -5.1081,-5.8474 -8.7599,-8.6927 24.6667,42.0969 66.7861,86.4792 0,-6.5643 -3.6518,-9.3649 5.8923,-2.218 9.3648,3.6743 7.2589,7.9086 3.6742,13.8232 -3.6742,3.6742 -7.9983,-3.6742 -8.6927,-7.931 11.5381,23.9722 20.3427,20.3651 39.9462,24.5996 120.5332,17.4078 47.1827,18.8642 24.6891,4.4359 21.7318,7.9534 55.2033,61.0059 174.2577,82.0208 218.528,41.4473 97.9948,33.3819 154.7664,14.5401 95.1271,0 13.1062,-5.1753 20.9925,-18.1248 7.9982,-4.3239 12.367,-2.9126 197.4906,-118.4047 36.272,-47.1827 5.9146,-10.8211 5.8251,-15.2795 0.6945,-13.8456 -10.1938,-5.0858 -2.8901,3.7192 -2.89,7.1692 -3.6295,7.2365 -10.149,7.2588 -7.2813,18.9089 -9.432,12.2999 -27.6465,46.5776 -5.7354,2.8454 -20.3651,4.3239 -5.1082,2.1957 -5.7354,9.3648 -15.9964,5.8698 -34.9053,23.2553 -34.0764,16.6237 -5.1081,8.043 -18.9313,14.5178 -5.1081,2.1283 -7.1469,-2.8901 -3.719,-5.0857 -7.9758,-28.3633 -0.7394,-6.4972 0,-14.4729 2.8902,-3.6519 13.8007,-6.5643 2.8902,-3.6518 7.2813,-12.367 7.9757,-18.8641 0,-7.2141 -2.1507,-6.5196 0,-6.4299 6.5419,-7.3261 -3.6742,-19.581 6.4971,-7.931 10.9331,2.1732 9.4097,12.2325 -3.6519,-16.6013 4.324,-13.0615 7.2589,-10.9107 14.5402,-45.0542 4.3015,-9.365 -2.1284,-22.5831 0.6946,-39.1621 3.607,-37.0561 8.1102,-16.7357 8.6927,-2.8677 17.4303,-13.1288 8.7151,-2.8676 7.9758,-0.6945 9.4545,-2.9126 7.9757,-5.8922 3.7192,-8.7151 9.3648,-13.8456 97.2779,-31.2312 21.799,-1.4338 18.1472,10.1938 5.1081,-5.0408 6.4747,-3.7192 16.0412,-5.0409 217.0269,32.665 47.922,23.2553 22.5383,5.0857 18.1024,7.931 35.6223,37.1233 12.703,2.0387"
         style="fill:#000000;fill-opacity:1;fill-rule:nonzero;stroke:none"
         id="path16"
         inkscape:connector-curvature="0" /></g></g></svg>