<?xml version="1.0" encoding="iso-8859-1"?>
<!-- Generator: Adobe Illustrator 18.0.0, SVG Export Plug-In . SVG Version: 6.00 Build 0)  -->
<!DOCTYPE svg PUBLIC "-//W3C//DTD SVG 1.1//EN" "http://www.w3.org/Graphics/SVG/1.1/DTD/svg11.dtd">
<svg version="1.1" id="Capa_1" xmlns="http://www.w3.org/2000/svg" xmlns:xlink="http://www.w3.org/1999/xlink" x="0px" y="0px"
	 viewBox="0 0 475.89 475.89" style="enable-background:new 0 0 475.89 475.89;" xml:space="preserve">
<g>
	<path d="M463.428,313.601L326.534,64.797c-17.778-32.31-51.729-52.38-88.604-52.38c-36.891,0-70.827,20.07-88.588,52.38
		L12.462,313.601c-17.154,31.167-16.563,69.56,1.556,100.222c18.103,30.622,51.463,49.651,87.048,49.651h273.759
		c35.585,0,68.945-19.028,87.048-49.667C479.991,383.177,480.582,344.776,463.428,313.601z M434.469,397.601
		c-12.411,20.981-35.273,34.021-59.644,34.021H101.066c-24.37,0-47.233-13.032-59.628-34.013
		c-12.411-20.997-12.816-47.303-1.073-68.649L177.242,80.148c12.179-22.131,35.429-35.88,60.687-35.88
		c25.257,0,48.523,13.749,60.702,35.88L435.526,328.96C447.284,350.314,446.864,376.612,434.469,397.601z"/>
	<path d="M237.946,179.11c28.85,0,52.256-23.384,52.256-52.258c0-28.858-23.406-52.248-52.256-52.248
		c-28.852,0-52.226,23.39-52.226,52.248C185.72,155.726,209.094,179.11,237.946,179.11z"/>
	<path d="M232.284,239.088c0-28.858-23.422-52.266-52.272-52.266c-28.82,0-52.226,23.408-52.226,52.266
		c0,28.866,23.406,52.248,52.226,52.248C208.862,291.337,232.284,267.954,232.284,239.088z"/>
	<path d="M356.255,239.291c0-30.989-25.118-56.107-56.115-56.107c-30.965,0-56.098,25.118-56.098,56.107
		c0,30.997,25.133,56.113,56.098,56.113C331.136,295.404,356.255,270.287,356.255,239.291z"/>
	<path d="M237.946,298.298c-28.852,0-52.226,23.398-52.226,52.264c0,28.874,23.374,52.25,52.226,52.25
		c28.85,0,52.256-23.376,52.256-52.25C290.202,321.696,266.796,298.298,237.946,298.298z"/>
	<path d="M122.108,298.298c-28.85,0-52.242,23.398-52.242,52.264c0,28.874,23.392,52.25,52.242,52.25
		c28.866,0,52.242-23.376,52.242-52.25C174.35,321.696,150.974,298.298,122.108,298.298z"/>
	<path d="M353.797,298.298c-28.882,0-52.242,23.398-52.242,52.264c0,28.874,23.36,52.25,52.242,52.25
		c28.85,0,52.226-23.376,52.226-52.25C406.023,321.696,382.647,298.298,353.797,298.298z"/>
</g>
<g>
</g>
<g>
</g>
<g>
</g>
<g>
</g>
<g>
</g>
<g>
</g>
<g>
</g>
<g>
</g>
<g>
</g>
<g>
</g>
<g>
</g>
<g>
</g>
<g>
</g>
<g>
</g>
<g>
</g>
</svg>
