<?xml version="1.0" encoding="UTF-8" standalone="no"?>
<!-- Generator: Adobe Illustrator 16.0.0, SVG Export Plug-In . SVG Version: 6.00 Build 0)  -->

<svg
   xmlns:dc="http://purl.org/dc/elements/1.1/"
   xmlns:cc="http://creativecommons.org/ns#"
   xmlns:rdf="http://www.w3.org/1999/02/22-rdf-syntax-ns#"
   xmlns:svg="http://www.w3.org/2000/svg"
   xmlns="http://www.w3.org/2000/svg"
   xmlns:sodipodi="http://sodipodi.sourceforge.net/DTD/sodipodi-0.dtd"
   xmlns:inkscape="http://www.inkscape.org/namespaces/inkscape"
   version="1.1"
   id="Capa_1"
   x="0px"
   y="0px"
   width="878.426px"
   height="878.426px"
   viewBox="0 0 878.426 878.426"
   style="enable-background:new 0 0 878.426 878.426;"
   xml:space="preserve"
   inkscape:version="0.91 r13725"
   sodipodi:docname="tennis-ball.svg"><metadata
     id="metadata45"><rdf:RDF><cc:Work
         rdf:about=""><dc:format>image/svg+xml</dc:format><dc:type
           rdf:resource="http://purl.org/dc/dcmitype/StillImage" /></cc:Work></rdf:RDF></metadata><defs
     id="defs43" /><sodipodi:namedview
     pagecolor="#ffffff"
     bordercolor="#666666"
     borderopacity="1"
     objecttolerance="10"
     gridtolerance="10"
     guidetolerance="10"
     inkscape:pageopacity="0"
     inkscape:pageshadow="2"
     inkscape:window-width="1102"
     inkscape:window-height="755"
     id="namedview41"
     showgrid="false"
     inkscape:zoom="0.26866235"
     inkscape:cx="-55.832163"
     inkscape:cy="439.21301"
     inkscape:window-x="0"
     inkscape:window-y="0"
     inkscape:window-maximized="0"
     inkscape:current-layer="g5" /><g
     id="g3"><g
       id="g5"><path
         d="M 447.02539 0 C 447.52539 6.5 447.72461 13 447.72461 19.5 C 447.72461 88.9 420.725 154.09922 371.625 203.19922 L 293.52344 281.30078 C 252.92344 321.90078 230.62305 375.79922 230.62305 433.19922 C 230.62305 490.59922 252.92344 544.49961 293.52344 585.09961 C 334.12444 625.69961 388.02478 647.99805 445.42578 647.99805 C 502.82478 647.99805 556.72522 625.69861 597.32422 585.09961 L 675.42578 507 C 724.52578 457.9 789.72695 430.90039 859.12695 430.90039 C 865.62695 430.90039 872.02478 431.09961 878.42578 431.59961 C 876.52578 321.69961 833.72522 212.49861 749.82422 128.59961 C 666.02422 44.800609 556.82539 2 447.02539 0 z M 401.92578 1.5 C 302.22578 9.9 204.825 52.299609 128.625 128.59961 C -42.875 300.09961 -42.875 578.20078 128.625 749.80078 C 300.125 921.30078 578.22522 921.30078 749.82422 749.80078 C 826.02422 673.60178 868.42578 576.30056 876.92578 476.60156 C 871.02578 476.10156 865.12695 475.90039 859.12695 475.90039 C 801.72695 475.90039 747.72656 498.20178 707.22656 538.80078 L 629.12695 616.90039 C 580.02595 665.99939 514.82478 693 445.42578 693 C 376.02478 693 310.82461 666.00039 261.72461 616.90039 C 212.62461 567.79939 185.625 502.59922 185.625 433.19922 C 185.625 363.79922 212.62461 298.6 261.72461 249.5 L 339.82422 171.40039 C 380.42522 130.80039 402.72461 76.9 402.72461 19.5 C 402.72461 13.5 402.42578 7.5 401.92578 1.5 z "
         id="path7" /></g></g><g
     id="g11" /><g
     id="g13" /><g
     id="g15" /><g
     id="g17" /><g
     id="g19" /><g
     id="g21" /><g
     id="g23" /><g
     id="g25" /><g
     id="g27" /><g
     id="g29" /><g
     id="g31" /><g
     id="g33" /><g
     id="g35" /><g
     id="g37" /><g
     id="g39" /></svg>