<?xml version="1.0" encoding="UTF-8" standalone="no"?>
<!-- Created with Inkscape (http://www.inkscape.org/) -->

<svg
   xmlns:dc="http://purl.org/dc/elements/1.1/"
   xmlns:cc="http://creativecommons.org/ns#"
   xmlns:rdf="http://www.w3.org/1999/02/22-rdf-syntax-ns#"
   xmlns:svg="http://www.w3.org/2000/svg"
   xmlns="http://www.w3.org/2000/svg"
   xmlns:sodipodi="http://sodipodi.sourceforge.net/DTD/sodipodi-0.dtd"
   xmlns:inkscape="http://www.inkscape.org/namespaces/inkscape"
   width="720"
   height="720"
   viewBox="0 0 190.5 190.50001"
   version="1.1"
   id="svg5102"
   inkscape:version="0.92.1 r15371"
   sodipodi:docname="NC.svg">
  <defs
     id="defs5096" />
  <sodipodi:namedview
     id="base"
     pagecolor="#ffffff"
     bordercolor="#666666"
     borderopacity="1.0"
     inkscape:pageopacity="0.0"
     inkscape:pageshadow="2"
     inkscape:zoom="0.49497475"
     inkscape:cx="390.78371"
     inkscape:cy="452.58442"
     inkscape:document-units="mm"
     inkscape:current-layer="g24"
     showgrid="false"
     units="px"
     showborder="true"
     inkscape:window-width="906"
     inkscape:window-height="672"
     inkscape:window-x="930"
     inkscape:window-y="215"
     inkscape:window-maximized="0" />
  <metadata
     id="metadata5099">
    <rdf:RDF>
      <cc:Work
         rdf:about="">
        <dc:format>image/svg+xml</dc:format>
        <dc:type
           rdf:resource="http://purl.org/dc/dcmitype/StillImage" />
        <dc:title></dc:title>
      </cc:Work>
    </rdf:RDF>
  </metadata>
  <g
     inkscape:label="Layer 1"
     inkscape:groupmode="layer"
     id="layer1"
     transform="translate(0,-106.49998)">
    <g
       id="g24"
       transform="matrix(0.5620956,0,0,-0.5620956,158.79056,218.40817)"
       style="fill:#000000;fill-opacity:1">
      <path
         d="M 0,0 -5.968,-1.08 -7.02,-1.512 -7.685,-2.23 2.659,0.211 3.634,0.313 8.209,0 V 0.313 L 6.227,0.885 Z m 13.492,-2.084 -0.471,0.514 -0.403,0.314 -2.612,0.942 H 9.222 v -0.317 l 0.436,-0.289 1.917,-0.685 1.392,-1.051 0.166,-0.17 0.541,0.248 z m -31.603,-5.969 -1.503,-0.875 -0.685,-0.201 -0.684,-0.184 -4.901,-3.226 -1.368,-1.367 -0.73,-1.516 0.614,0.695 3.928,3.491 0.529,0.224 1.244,0.309 3.096,1.662 0.986,0.853 0.111,0.059 0.113,-0.016 0.077,0.059 -0.02,0.234 z m 72.912,50.828 -0.707,2.412 c -0.062,0.659 -0.126,1.317 -0.191,1.976 l -0.3,1.232 -0.496,1.109 -0.66,0.62 -0.348,-0.236 0.236,-0.886 0.648,-1.585 0.07,-0.903 0.963,-3.41 0.235,-1.921 0.036,-1.098 -0.113,-0.505 -0.529,-1.032 -0.135,-0.525 0.011,-0.539 0.193,-0.897 0.055,-0.505 -0.089,-1.032 -0.371,-1.685 -0.166,-1.747 -0.46,-2.281 -0.236,-0.571 0.024,-1.411 -1.025,-0.819 -2.633,-0.955 -2.38,-1.245 -0.166,-0.023 -0.059,0.124 -0.03,0.17 -0.113,0.077 -0.204,-0.088 -0.078,-0.214 -0.022,-0.224 -0.055,-0.135 -0.17,-0.189 -0.1,-0.225 -0.166,-0.177 -0.371,-0.039 -0.337,-0.202 -0.336,-0.324 -0.093,-0.289 0.383,-0.135 0.312,0.1 0.519,0.418 0.213,0.084 0.606,0.164 1.434,0.671 0.808,0.143 1.445,0.661 1.203,-0.054 0.371,0.054 0.706,0.494 0.368,0.751 0.942,3.532 0.762,7.823 0.72,3.61 z m -90.768,-67.16 -0.471,-1.097 -0.283,-1.323 -0.39,-1.166 0.538,0.561 0.537,1.076 0.765,2.143 0.1,0.046 h 0.101 l 0.065,0.043 -0.011,0.225 z m -4.781,-12.638 -0.367,0.394 -0.583,0.055 -0.573,-0.338 -0.294,-0.736 0.217,-0.465 0.549,-0.301 0.626,-0.236 0.425,-0.266 0.294,0.4 0.773,2.739 -0.808,-1.022 z m 83.83,82.053 -0.383,0.852 v 0.338 l 0.909,0.092 0.943,-0.039 0.146,0.318 -0.035,0.99 -0.17,0.657 -0.525,0.842 -0.101,0.44 0.166,0.704 0.337,0.626 0.282,0.676 0.011,0.854 -0.157,0.326 -0.651,0.961 0.012,0.63 -1.804,2.904 -1.09,1.308 -1.291,0.913 -0.02,-0.46 -0.103,-0.429 -0.167,-0.378 -0.246,-0.36 h 0.458 l 0.415,-0.1 0.382,-0.206 0.347,-0.332 -0.761,-0.382 -0.796,0.159 -0.807,0.347 -0.797,0.201 0.213,-0.583 0.336,-0.63 0.426,-0.495 0.764,-0.356 0.12,-0.317 -0.089,-0.312 -0.325,-0.144 -0.235,0.065 -0.92,0.507 -0.749,1.063 -0.561,0.572 -0.248,-0.159 -0.294,-0.332 -1.267,-0.877 -0.278,-0.414 V 49.338 L 34.29,47.765 32.917,44.079 h -0.232 l -0.181,0.336 -0.101,0.266 -0.034,0.205 0.034,0.144 -1.067,-0.21 -1.043,-0.08 -0.897,0.39 -0.649,1.182 h 0.908 l 1.234,-0.472 1.142,-0.224 0.654,0.696 -0.236,0.144 -0.383,0.551 -0.188,0.58 0.391,0.279 0.211,0.248 -0.177,0.553 -0.36,0.56 -0.324,0.293 h 0.27 l -0.553,0.03 -0.626,0.149 -0.606,0.255 -0.437,0.316 -0.29,0.494 h 0.448 l 1.022,-0.347 1.108,0.29 0.2,1.21 -0.46,1.345 -0.848,0.71 v 0.325 l 0.826,0.156 0.673,0.706 0.517,0.978 0.337,1.02 -0.539,-0.115 -1.302,-0.492 0.302,1.627 0.418,0.437 0.838,-0.471 0.069,0.754 -0.73,0.702 -1.043,0.526 -0.908,0.225 -3.634,-0.29 -3.374,-0.955 -0.853,-0.715 0.336,-0.494 0.796,-0.46 0.506,-0.596 -0.978,0.046 -1.604,0.75 -0.819,0.159 -0.425,-0.182 -0.324,-0.29 -0.28,-0.143 -0.269,0.302 0.011,0.278 0.1,0.403 0.043,0.47 -0.154,0.472 -1.245,0.383 -2.01,-0.414 -1.994,-0.808 -1.237,-0.784 h -0.279 l -0.997,0.29 -5.249,0.023 v 0.348 l 1.322,1.858 0.237,0.666 -0.584,0.112 -0.124,0.383 0.024,0.548 -0.101,0.561 -0.293,0.39 -0.336,0.325 -0.29,0.417 -0.237,1.321 -0.536,1.068 -0.124,0.517 0.03,3.093 0.16,0.976 0.358,0.831 0.626,0.886 0.619,0.595 0.224,0.391 0.077,0.619 -0.131,0.436 -0.684,0.796 -0.237,0.537 0.84,-0.312 0.73,-0.508 0.336,-0.826 -0.347,-1.291 -0.29,-0.449 -0.553,-0.641 -0.201,-0.48 -0.515,-2.098 0.202,-1.233 0.885,-2.094 0.538,-2.56 0.776,-0.818 h 0.873 l 0.638,1.097 0.348,-0.394 1.079,-1.693 0.46,-0.231 0.707,-0.048 1.298,0.101 0.909,0.237 1.244,0.571 1.202,0.808 0.82,0.943 -0.395,-0.023 -0.124,0.023 v 0.347 l 0.619,0.349 3.815,0.602 v 0.349 l -0.707,0.17 -1.056,0.478 -0.966,0.612 -0.414,0.49 -0.189,0.368 -1.369,0.765 -0.269,0.347 -0.291,0.484 -0.494,1.086 0.661,-0.449 0.672,-0.627 0.661,-0.405 0.618,0.17 0.638,-1.008 1.054,-0.674 3.994,-1.785 0.92,-0.201 0.942,0.179 v 0.293 l -0.695,0.638 -1.323,1.873 -0.436,0.404 -0.347,0.123 -0.372,0.324 -0.312,0.418 -0.17,0.413 -0.013,0.639 0.26,-0.043 0.584,-0.596 1.062,-0.854 0.349,-0.143 0.246,-0.246 0.642,-1.079 1.186,-0.727 0.372,-0.159 0.382,-0.042 1.198,0.042 v 0.29 h -0.255 v 0.349 l 1.375,0.138 0.443,0.155 0.838,0.525 0.235,0.325 -0.425,0.148 -0.448,0.247 -0.372,1.097 -0.931,0.495 -0.39,0.56 -0.607,1.11 -0.526,0.586 -0.754,0.626 -0.849,0.504 -0.854,0.216 -0.114,0.255 0.191,0.565 0.336,0.548 0.359,0.255 0.494,-0.132 -0.01,-0.316 -0.271,-0.332 -0.337,-0.206 2.01,-0.59 0.607,-0.341 0.749,-0.672 0.661,-0.785 0.314,-0.235 0.696,-0.194 0.305,-0.243 0.92,-1.426 0.649,-0.673 0.784,-0.279 0.786,-0.116 2.693,-0.849 v 0.325 l -0.56,0.223 -0.542,0.394 -0.973,0.975 0.491,0.294 -0.055,0.726 -0.27,0.897 -0.314,1.762 -0.359,0.402 -0.426,0.329 -0.336,0.715 0.739,-0.055 0.572,-0.324 1.024,-0.897 -0.517,-0.889 0.2,-0.402 0.55,-0.247 0.54,-0.394 0.124,-0.301 0.031,-0.674 0.081,-0.301 0.213,-0.247 0.85,-0.708 0.46,-0.762 0.224,-0.525 0.093,-0.471 -0.093,-0.371 -0.166,-0.383 -0.07,-0.413 0.193,-0.449 0.963,-1.367 0.643,-0.72 0.636,-0.325 0.707,0.279 -0.177,0.831 -0.518,1.032 -0.302,0.908 -0.158,0.715 -2.041,5.442 -0.136,0.596 -0.27,0.741 -1.233,1.906 -0.336,0.731 0.202,2.148 -0.078,1.26 -0.483,-0.024 -0.302,-0.942 -0.235,-0.549 -0.135,0.03 0.08,-0.478 0.143,-0.372 0.235,-0.347 0.338,-0.402 -0.785,0.537 -0.955,1.222 -0.46,1.131 0.665,0.34 -0.819,0.535 -0.832,0.788 -0.648,0.926 -0.314,0.968 0.007,0.749 0.225,0.902 v 0.571 l -0.019,0.1 c -8.842,0.094 -17.686,0.17 -26.529,0.247 -8.846,0.077 -17.69,0.181 -26.536,0.259 -8.846,0.078 -17.691,0.183 -26.537,0.256 -8.846,0.073 -17.692,0.181 -26.537,0.259 -8.845,0.078 -17.69,0.182 -26.535,0.259 -8.846,0.076 -17.692,0.183 -26.537,0.255 -8.846,0.071 -17.691,0.18 -26.537,0.258 -8.843,0.078 -17.686,0.187 -26.529,0.259 -0.286,0.003 -0.572,0.008 -0.857,0.012 l -0.259,0.078 -0.136,0.135 -0.255,0.517 -1.797,-2.96 -0.336,-0.959 0.057,-0.223 0.549,-1.144 0.012,-0.426 -0.607,-1.723 -0.985,-1.975 -0.136,-0.436 -0.023,-0.326 0.065,-0.205 0.407,-0.807 0.513,-0.728 0.104,-0.215 0.066,-0.248 -0.076,-0.132 -0.183,-0.035 -1.174,0.16 -2.01,0.671 h -0.19 l -0.192,-0.077 -2.938,-1.986 -1.044,-0.851 -0.155,-0.215 -3.825,-7.22 -0.301,-0.395 -0.384,-0.34 -0.359,-0.177 -0.613,-0.549 -0.372,-0.236 -0.325,-0.142 -0.271,-0.017 -0.301,0.047 -0.572,0.158 -0.248,0.121 -0.212,0.138 -0.17,0.143 -0.147,0.182 -0.066,0.201 -0.058,0.236 -0.03,0.224 -0.048,0.224 -0.076,0.212 -0.124,0.148 -0.158,0.123 -0.213,0.089 -0.225,0.042 -0.525,0.024 -0.247,0.046 -0.213,0.1 -0.358,0.272 -0.202,0.065 h -0.147 l -0.201,-0.035 -0.429,-0.201 -1.175,-0.85 -0.213,-0.092 -0.806,0.023 -0.319,-0.031 -0.95,-0.473 -1.348,-0.371 -0.356,-0.146 -0.619,-0.325 -0.672,-0.518 -1.325,-1.391 -0.391,-0.533 -0.495,-1.102 -0.166,-0.304 -0.695,-0.906 -0.283,-0.305 -0.247,-0.212 -0.166,-0.113 -0.182,-0.089 -1.747,-1.097 -0.336,-0.159 -0.236,-0.046 h -0.259 l -0.247,0.065 -0.225,0.124 -0.189,0.14 -0.147,0.177 -0.135,0.178 -0.113,0.202 -0.212,0.606 -0.034,0.27 0.023,0.266 0.057,0.363 0.235,0.574 0.055,0.201 v 0.146 l -0.055,0.131 -0.629,0.89 -0.158,0.154 -0.279,0.054 -0.359,-0.077 -1.827,-0.907 -0.909,-0.338 -2.601,-1.422 -0.059,-0.057 -0.076,-0.136 -0.059,-0.178 0.024,-0.672 -0.066,-0.217 -0.113,-0.201 -0.447,-0.502 -0.183,-0.395 -0.088,-0.27 -0.224,-0.348 -0.224,-0.154 -0.247,-0.034 -0.201,0.065 -0.395,0.34 -0.538,0.378 -0.482,0.217 -0.324,0.077 h -0.403 l -0.584,-0.115 -0.304,-0.144 -0.225,-0.188 -0.124,-0.202 -0.101,-0.206 -0.076,-0.257 -0.046,-0.256 -0.012,-0.259 0.046,-0.247 0.058,-0.224 0.324,-0.762 v -0.235 l -0.091,-0.283 -0.438,-0.548 -0.123,-0.214 -0.078,-0.471 -0.066,-0.235 -0.205,-0.418 -0.938,-1.411 -0.979,-1.144 -0.3,-0.201 -0.236,-0.065 -0.55,0.142 -1.581,0.148 -0.451,0.123 h -0.201 l -0.213,-0.081 -1.986,-1.027 -1.322,-0.395 -0.301,-0.135 -0.237,-0.159 -0.93,-0.928 -0.383,-0.239 -0.955,-0.355 -0.289,-0.16 -0.225,-0.166 -0.124,-0.169 -0.806,-0.796 -0.786,-1.076 -0.248,-0.115 -0.289,-0.008 -0.283,0.067 -0.336,0.011 -0.391,-0.07 -0.339,-0.179 -0.56,-0.516 -0.415,-0.457 -0.506,-0.405 -2.052,-0.874 -0.336,-0.229 -0.248,-0.223 -0.389,-0.468 -0.855,-0.819 -0.266,-0.205 -0.236,-0.12 -2.501,-0.506 -0.27,0.023 -0.259,0.078 -0.201,0.135 -0.179,0.159 -0.157,0.153 -0.282,0.094 -0.367,0.023 -0.744,-0.241 -0.423,-0.065 -0.349,-0.011 -0.225,0.055 -0.246,0.045 -0.248,-0.007 -0.247,-0.059 -0.367,-0.124 -0.135,-0.034 h -0.147 l -1.345,0.116 -0.248,-0.016 -0.773,-0.188 -0.742,-0.283 -0.897,-0.548 -0.595,-0.473 -0.371,-0.208 -0.312,-0.138 -1.21,-0.248 -0.63,-0.224 -0.325,-0.19 -0.236,-0.201 -0.615,-1.256 -0.181,-0.235 -0.301,-0.325 -0.259,-0.159 -1.593,-0.561 -0.336,-0.189 -0.282,-0.223 -0.862,-0.933 -0.124,-0.212 -0.077,-0.177 -0.034,-0.183 v -0.166 l 0.166,-0.609 0.023,-0.233 -0.043,-0.271 -0.07,-0.236 -0.111,-0.224 -0.661,-0.954 -0.113,-0.224 -0.158,-0.472 -0.054,-0.254 -0.059,-1.482 -0.177,-0.383 -0.313,-0.424 -0.742,-0.743 -0.371,-0.3 -0.266,-0.178 -0.148,-0.024 -0.973,0.008 -2.045,-0.232 -0.55,0.008 -0.258,0.046 -0.178,0.093 -0.177,0.132 -0.294,0.301 -0.236,0.094 -0.313,0.006 -0.595,-0.185 -0.302,-0.162 -0.235,-0.186 -0.673,-0.653 -0.448,-0.537 -0.225,-0.442 -0.081,-0.2 -0.065,-0.357 c -0.318,-3.408 -0.622,-6.818 -0.92,-10.228 8.64,0.099 17.279,0.243 25.919,0.348 6.913,0.084 13.827,0.145 20.738,0.281 l 11.115,3.699 1.221,0.265 0.159,-0.39 0.147,-0.166 0.279,-0.1 0.2,0.043 0.336,0.166 0.418,0.293 0.897,0.485 0.413,0.3 0.271,0.27 0.157,0.529 0.122,0.256 0.258,0.201 0.313,0.024 0.452,-0.032 0.291,0.043 0.359,0.135 1.256,0.66 1.952,0.639 0.278,0.047 1.368,0.023 0.282,0.067 0.201,0.103 0.182,0.186 0.289,0.261 0.248,0.102 1.368,0.008 0.29,0.099 0.204,0.194 0.202,0.683 0.189,0.26 0.247,0.233 0.561,0.37 0.271,0.1 0.258,-0.022 0.132,-0.132 0.124,-0.146 0.17,-0.272 0.089,-0.107 0.146,-0.1 0.155,-0.059 2.871,0.266 c 1.028,-0.054 2.058,-0.095 3.084,-0.166 l 1.033,-0.041 c 8.685,-0.504 17.376,-0.928 26.065,-1.358 5.31,-0.263 10.618,-0.55 15.927,-0.83 l 0.483,-0.093 0.313,-0.123 0.159,-0.147 0.147,-0.168 0.112,-0.181 0.077,-0.186 0.055,-0.228 0.01,-0.243 -0.018,-0.248 -0.082,-0.24 -0.437,-0.879 -0.055,-0.193 -0.034,-0.17 -0.011,-0.192 0.035,-0.199 0.054,-0.224 0.135,-0.225 0.136,-0.205 0.259,-0.209 0.201,-0.016 0.212,0.071 3.137,2.257 0.26,0.143 0.17,-0.023 0.124,-0.067 0.124,-0.146 c 1.694,-2.256 3.395,-4.506 5.102,-6.752 l 0.135,-0.283 0.023,-0.301 -0.147,-4.766 0.012,-0.312 0.076,-0.293 0.237,-0.237 0.29,-0.088 1.503,-0.031 0.428,-0.017 c 8.642,-0.156 17.282,-0.402 25.924,-0.581 3.684,-0.077 7.368,-0.166 11.053,-0.238 l 0.417,-0.019 1.422,-0.024 1.156,-0.211 0.754,-0.259 c 6.21,-6.326 12.395,-12.675 18.602,-19.003 6.071,-6.191 12.14,-12.382 18.238,-18.546 1.404,-1.42 2.806,-2.842 4.208,-4.266 l 1.056,0.317 v -0.278 l -0.181,-0.17 -0.337,-0.484 3.344,1.246 2.387,0.637 0.886,0.549 0.382,1.306 h 0.29 l 0.205,-0.855 -0.022,-0.369 -0.183,-0.336 1.279,-0.319 3.074,0.688 0.976,-0.199 0.491,-0.241 2.1,0.071 0.73,-0.078 3.42,-0.967 0.65,-0.076 0.548,0.189 0.337,0.371 1.403,2.188 0.719,1.679 0.146,0.604 -0.046,1.574 0.077,0.752 0.248,0.639 -0.39,1.097 -0.406,3.266 0.011,1.275 h 0.236 l 0.595,-1.982 0.727,-1.783 -0.302,-1.313 0.313,-3.601 -0.548,-1.346 v -0.277 l 0.135,-0.35 -0.058,-0.404 -0.313,-0.84 1.178,1.267 0.685,2.455 0.707,5.036 0.278,0.726 0.854,1.686 0.449,1.457 0.615,0.695 1.201,1.102 2.075,3.185 2.354,2.758 5.036,4.238 3.042,1.684 1.964,0.572 0.613,0.225 0.338,0.213 -0.113,0.142 -0.201,0.162 v 0.309 l 0.449,0.486 -0.29,0.504 -0.665,0.416 -0.684,0.156 -0.302,0.211 -0.405,0.473 -0.349,0.514 -0.131,0.371 0.178,0.402 0.371,0.225 0.347,0.037 0.167,-0.192 0.306,-0.101 0.637,0.146 0.548,0.551 0.059,1.131 -0.212,0.613 -0.384,0.631 -0.471,0.324 -0.483,-0.281 -0.243,0.766 -0.283,2.398 0.414,-0.613 0.418,-0.1 0.389,0.1 0.337,-0.016 0.483,-0.347 0.259,-0.368 -0.112,-0.259 -0.63,-0.024 V 0.629 l 0.618,-0.494 1.446,-1.852 0.27,-0.513 -0.382,-0.856 -1.659,-1.277 -0.548,-0.662 1.357,-0.325 0.201,-0.181 0.135,-0.043 0.772,-0.731 0.696,0.135 0.944,0.654 0.46,0.143 1.055,0.596 1.97,2.593 1.145,0.579 0.17,0.169 -0.336,0.821 0.03,0.301 0.329,0.046 0.236,-0.259 0.211,-0.313 0.248,-0.139 0.426,0.249 0.347,0.494 0.225,0.695 0.054,0.797 -0.166,0.215 -0.271,0.797 0.011,0.679 0.684,-0.123 V 2.646 l 0.237,-1.074 0.83,-1.259 -0.653,-0.493 v -0.513 l 0.359,-0.286 0.417,0.17 0.357,0.248 5.487,1.637 L 0.058,1.881 7.424,1.256 7.199,1.838 6.372,3.141 6.08,2.871 5.767,2.682 5.419,2.568 4.812,2.533 5.372,3.332 6.191,4.027 7.135,4.518 8.066,4.711 8.604,4.25 8.762,3.195 8.827,1.986 l 0.271,-0.91 0.951,-0.57 0.405,0.996 0.247,3.916 0.314,-0.105 0.537,-0.78 0.831,-0.744 -0.638,-0.648 0.178,-0.707 0.661,-0.582 0.808,-0.28 0.842,-0.023 0.379,0.109 0.34,0.246 0.19,0.383 -0.07,0.328 -0.12,0.278 v 0.248 l 0.256,0.371 0.27,0.209 0.27,0.162 0.267,0.201 1.267,1.602 0.608,0.546 0.224,0.264 0.236,0.449 0.1,0.432 0.023,0.789 0.136,0.348 h 0.236 l 0.042,-0.26 0.17,-0.436 0.065,-0.248 1.492,0.672 0.324,0.272 0.407,0.75 -0.081,0.382 -0.244,0.29 -0.082,0.462 0.225,0.717 0.313,0.065 0.441,-0.166 0.603,0.019 0.429,0.272 0.537,0.73 0.36,0.258 v 0.348 l -0.897,0.56 -0.506,0.838 -0.584,0.775 -1.179,0.346 0.304,-0.695 0.639,-0.973 0.123,-0.719 -0.371,-0.109 -0.814,-0.059 -0.809,-0.281 -0.37,-0.818 -0.337,0.092 -1.662,-0.526 -0.614,-0.039 -0.213,0.123 -0.193,0.17 -0.1,0.272 0.011,0.379 0.177,0.47 0.248,0.078 0.294,-0.031 0.985,0.527 0.202,0.258 -0.213,0.428 -0.685,0.963 0.047,0.414 0.19,0.73 0.045,0.45 -0.081,0.166 -0.354,0.57 -0.082,0.205 -0.189,0.09 -0.438,-0.627 -0.447,-0.865 -0.248,-0.643 -0.011,-0.556 0.034,-0.629 -0.023,-0.672 -0.236,-0.662 -0.518,0.773 -0.572,0.359 -0.583,0.1 h -0.548 l -0.774,-0.281 0.077,-0.649 0.82,-1.279 0.201,-0.898 -0.592,0.214 -0.889,0.625 -0.661,0.372 -0.042,0.181 -0.204,0.406 -0.303,0.432 -0.358,0.272 -0.449,0.035 L 9.693,13.156 8.963,12.641 8.302,12.021 7.659,11.281 6.999,10.666 5.979,10.283 5.607,9.828 5.33,9.746 5.147,9.859 4.993,10.082 4.812,10.398 3.489,11.35 1.65,11.934 l -1.715,0.312 -1.562,0.721 -1.369,1.847 -0.872,1.956 -0.609,0.861 -0.749,0.371 -0.065,0.482 -1.615,2.666 1.367,-0.617 1.782,-2.578 1.403,-0.592 0.502,-0.293 1.708,-1.91 1.052,-0.861 1.315,-0.748 1.186,-0.238 1.651,0.089 1.457,0.53 0.629,1.052 0.831,0.641 1.681,0.961 1.346,1.002 -0.202,0.75 1.179,0.437 0.816,0.877 0.216,1.162 -0.63,1.315 -0.537,-0.336 V 21.5 l 0.166,-0.102 0.182,-0.154 0.189,-0.094 -0.607,-0.336 -0.414,0.125 -0.371,0.313 -0.447,0.248 -1.594,0.115 -0.506,0.178 0.43,0.473 0.584,0.289 0.626,0.134 0.583,0.047 0.282,0.155 0.336,0.349 0.46,0.323 0.638,0.113 1.044,-0.436 0.525,-0.09 0.224,0.391 -0.201,0.417 -0.46,0.313 -0.897,0.413 v 0.294 l 1.895,-0.426 0.866,-0.014 0.347,0.594 0.124,0.483 0.379,0.802 -0.089,0.308 -0.573,0.664 -0.247,0.437 -0.111,0.484 -0.909,0.076 -3.444,1.145 -3.126,0.726 -2.4,1.415 -2.277,0.572 -0.572,0.36 -1.168,0.92 -1.561,0.931 -1.558,0.394 -1.19,-0.664 -0.324,1.444 -0.371,0.574 -0.738,0.227 -0.436,0.236 -0.395,0.572 -0.604,1.415 1.435,-1.238 0.761,-0.495 1.704,-0.424 1.82,-1.044 1.064,-0.314 1.952,-0.258 0.762,-0.38 0.787,-0.795 0.861,-0.416 2.054,0.54 1.108,-0.283 0.183,0.283 0.235,0.177 0.289,0.113 0.349,0.066 -0.101,-1.052 0.807,-0.719 1.099,-0.224 0.797,0.414 -0.145,0.336 -0.212,0.259 -0.305,0.189 -0.379,0.158 0.12,0.201 0.081,0.167 0.1,0.147 0.213,0.124 v 0.281 l -0.248,0.166 -0.246,0.217 -0.537,0.626 0.135,0.236 0.382,1.008 -0.236,0.442 -0.317,0.401 -0.424,0.302 -0.584,0.159 1.581,1.008 0.796,0.336 1.02,-0.081 1.762,-0.48 0.865,-0.031 0.987,0.202 -0.573,-1.283 -0.637,-0.325 -1.909,0.305 -0.975,-0.212 -0.17,-0.526 0.406,-0.63 0.739,-0.537 v -0.294 l -0.573,-0.472 0.53,-0.495 1.604,-0.637 -0.147,-0.29 -0.112,-0.181 -0.181,-0.101 -0.337,-0.065 0.472,-0.775 0.517,-0.447 1.346,-0.677 -0.124,0.329 -0.166,0.279 -0.229,0.212 -0.266,0.159 0.29,0.436 0.394,0.19 0.437,-0.055 0.436,-0.281 0.832,1.581 -0.313,0.873 0.401,0.348 0.608,-0.224 0.312,-0.851 0.059,-1.502 0.155,-0.775 0.336,-0.382 v -0.337 h -1.558 l 0.166,-0.49 0.224,-0.093 0.282,0.046 0.336,-0.124 0.55,-0.424 0.235,-0.472 0.619,0.294 0.177,0.649 -0.124,0.661 -0.277,0.29 -0.024,0.34 0.011,0.65 0.302,0.379 0.866,-0.437 0.313,-0.483 0.526,-1.21 1.155,-0.785 0.437,-0.1 0.193,0.502 0.124,0.495 0.254,0.177 0.271,-0.088 0.407,-0.862 0.672,-0.201 2.566,-0.082 0.305,0.248 0.48,0.63 0.441,0.313 1.467,0.467 0.55,0.047 v 0.294 l -0.418,0.672 0.194,1.043 0.572,0.661 0.718,-0.471 -0.282,-0.325 0.371,-0.289 0.247,0.053 0.131,0.371 0.048,0.65 0.188,0.36 0.372,0.324 0.212,0.413 -0.278,0.654 0.962,0.335 0.237,0.156 0.223,0.347 0.012,0.241 -0.111,0.223 -0.036,0.279 -0.1,0.301 0.057,0.271 0.708,0.135 0.177,0.1 2.177,2.266 0.101,0.447 -0.036,0.731 0.046,0.819 0.302,0.72 0.317,-1.06 0.437,-0.896 0.649,-0.391 0.931,0.406 0.09,-0.146 0.069,-0.148 0.042,-0.158 0.035,-0.189 -0.27,-0.055 -0.502,-0.225 v -0.346 l 1.167,0.007 0.502,0.1 0.425,0.239 0.069,0.291 -0.046,0.414 0.035,0.371 0.347,0.155 0.338,0.069 0.235,0.154 0.166,0.205 0.541,0.978 -0.058,0.48 z m -3.937,39.136 0.281,-1.608 0.549,-1.13 0.123,-0.818 0.526,-1.145 0.123,-0.63 0.236,-3.072 0.259,-1.28 -0.069,0.013 -0.124,-0.07 -0.054,-0.166 0.123,-0.26 0.515,-0.571 1.066,-2.11 0.395,-1.546 0.537,-1.377 0.39,-1.426 -0.155,-1.156 V 65.49 l 0.28,-0.773 0.18,-0.854 0.267,-0.754 0.564,-0.49 0.448,0.347 0.379,-0.27 0.283,-0.615 0.166,-0.742 -0.897,-0.279 -0.324,0.078 -0.313,0.495 -0.148,-0.812 0.371,-0.557 0.584,-0.216 0.491,0.302 h 0.236 l 2.592,-3.557 0.561,-1.228 0.101,-1.65 0.224,-0.854 0.843,-0.515 0.042,-0.371 -0.011,-0.425 0.101,-0.329 0.259,-0.166 0.742,-0.313 0.301,-0.178 -1.145,2.761 -0.382,1.946 -5.709,10.962 -1.634,4.823 -1.101,2.308 -0.167,0.762 -0.07,1.121 -0.167,0.976 -0.571,1.907 -1.561,7.741 v 0.042 h -0.536 l -0.515,0.016 0.019,-0.058 -0.019,-0.259 z m -4.229,0.961 0.065,-0.671 0.147,-0.662 0.785,-0.301 h 1.561 l 0.379,0.132 v 0.325 l -0.155,0.416 -0.112,0.449 -0.023,1.291 -0.012,0.03 h -0.672 l -0.619,0.012 -0.258,-0.302 -0.456,-0.011 -0.193,0.313 -1.759,0.023 0.255,-0.39 z m 3.497,-63.977 -2.029,-1.39 -1.031,-0.412 -0.874,0.257 -0.337,-1.22 -0.27,-0.549 -0.436,-0.473 4.15,2.846 3.455,1.225 0.727,0.695 0.606,0.359 0.236,0.225 0.213,0.332 -1.09,-0.633 z M 31.336,17.348 31.124,17.205 31,16.777 30.71,16.451 30.429,16.197 30.305,15.957 30.05,15.301 28.882,14.063 28.512,13.551 h 0.235 l 0.584,0.883 2.814,1.986 0.146,0.055 0.135,0.023 0.124,0.07 0.135,0.166 -0.854,0.471 z m 15.638,39.492 -0.247,0.225 -0.248,0.181 -0.538,0.236 -0.269,0.189 -0.325,0.147 -0.348,0.065 -0.337,-0.088 -0.305,-0.266 0.081,-0.225 0.248,-0.217 0.213,-0.247 0.301,-0.525 1.109,-1.245 0.305,-0.718 0.166,-0.886 0.259,-0.76 0.584,-0.326 0.707,0.042 0.124,0.214 0.013,0.482 0.346,0.854 -1.314,1.678 -0.46,0.754 z M 25.214,10.748 24.619,10.295 24.359,9.914 24.124,9.604 22.521,8.514 18.61,4.416 l -4.464,-7.195 -0.542,-1.362 0.336,-0.884 0.418,1.232 4.7,7.9 2.106,2.342 0.696,0.496 0.842,0.432 1.905,2.057 1.021,0.648 0.784,1.268 -0.524,-0.202 z"
         style="fill:#000000;fill-opacity:1;fill-rule:nonzero;stroke:none"
         id="path26"
         inkscape:connector-curvature="0" />
    </g>
  </g>
</svg>
