<?xml version="1.0" encoding="UTF-8" standalone="no"?>
<svg
   xmlns:dc="http://purl.org/dc/elements/1.1/"
   xmlns:cc="http://creativecommons.org/ns#"
   xmlns:rdf="http://www.w3.org/1999/02/22-rdf-syntax-ns#"
   xmlns:svg="http://www.w3.org/2000/svg"
   xmlns="http://www.w3.org/2000/svg"
   viewBox="0 0 720 720"
   height="720"
   width="720"
   xml:space="preserve"
   version="1.1"
   id="svg2"><metadata
     id="metadata8"><rdf:RDF><cc:Work
         rdf:about=""><dc:format>image/svg+xml</dc:format><dc:type
           rdf:resource="http://purl.org/dc/dcmitype/StillImage" /><dc:title></dc:title></cc:Work></rdf:RDF></metadata><defs
     id="defs6" /><g
     transform="matrix(1.25,0,0,-1.25,0,720)"
     id="g10"><g
       transform="matrix(0.10768601,0,0,0.10768601,-276.33022,361.901)"
       id="g12"><path
         id="path16"
         style="fill:#000000;fill-opacity:1;fill-rule:nonzero;stroke:none"
         d="m 4253.3245,-2701.8839 -6.7294,5.2246 -9.3672,5.1908 -7.8623,0.558 -5.6812,-1.099 3.6353,-11.4469 4.6836,-10.4155 6.2391,-9.3333 9.3841,-8.8937 2.0797,8.8937 18.2609,14.558 3.6183,10.9227 -10.9396,-5.7319 -7.3213,1.5725 z m 986.1556,-292.2588 -7.8454,-8.3188 1.6232,-14.0677 8.285,-9.3502 12.4952,4.6667 -3.6184,5.7318 -10.9396,21.3382 z m 2229.6206,3263.67724 8.302,8.843 83.8817,38.55077 53.616,34.39134 4.227,1.0314 4.6329,0 3.7029,1.0314 1.5386,4.17633 0.5411,3.65218 6.2391,5.7488 2.0459,1.01449 4.1933,1.55556 3.1111,3.16184 2.6039,3.61836 3.1618,3.14493 4.1256,1.53865 13.0193,2.11353 16.215,6.76329 55.7127,41.13772 21.8961,22.92756 30.6715,19.25848 6.8479,7.32126 5.1401,14.05074 10.4324,17.70291 1.5555,10.93963 -2.0797,4.17633 -7.7947,6.25605 -1.5725,3.0942 -0.541,3.66909 -2.0797,11.44687 -1.5218,3.66909 -2.6038,8.843 1.5893,11.44687 0.4904,12.49518 -5.2078,12.02175 -5.715,4.64977 -14.0676,8.87682 -6.814,7.28744 -2.5701,9.90823 0.5242,13.52658 3.6014,20.84785 4.6836,11.98793 5.2247,4.17634 40.6135,-1.55556 6.7802,-3.14493 3.1281,5.73189 3.669,3.14493 3.1112,4.12561 1.5386,8.36957 1.5894,5.73189 9.8744,19.76572 -9.8744,6.76329 -5.2078,1.08213 -4.1594,-4.17633 -2.6208,0 -5.1739,7.79469 -9.942,-0.50725 -9.3841,-1.55555 -4.0918,4.17633 -1.5893,5.15701 -7.3382,12.03866 -2.0459,7.27054 0,6.76329 2.0459,12.49518 -28.1015,-4.70049 -10.9565,-0.50724 -10.3986,1.06521 -8.3188,2.60387 -5.2247,3.12802 -4.1594,4.14252 -3.1449,5.22464 -2.5701,6.23914 -2.6377,0.50725 -12.0217,0.52415 -4.1256,1.08213 -7.3382,-4.70049 -13.5097,5.20774 -13.5435,-10.41547 -6.7633,-1.04831 -7.2705,0 -6.7971,-0.50725 -6.7633,-3.66909 -12.4952,-11.97102 -6.7633,-4.17634 -8.8768,-1.55555 -16.1304,2.58696 -8.3527,-0.52416 -7.3213,-3.61836 -17.6691,-13.5604 -3.1449,-4.70049 3.6691,-10.38165 5.157,-5.73189 0,-2.63769 -10.9396,-0.50724 -9.3503,1.55556 -19.2416,6.23913 -7.8285,0 -3.1111,-3.0942 -3.686,-9.40098 -2.6207,-2.58696 -4.1595,0 -4.6497,1.55556 -8.3189,4.70049 -7.8623,2.0628 -7.8285,6.25605 -6.2053,8.85991 -3.145,8.843 -6.7294,0 -13.0532,2.63769 -23.9421,11.44687 -5.2753,4.17633 -11.4638,6.25604 -12.9855,-1.60628 -25.5145,-7.79469 -19.8165,2.58696 -6.7802,-3.09421 -2.0797,-3.16184 -3.128,-8.30194 -2.0459,-3.14493 -9.9421,-7.79469 -6.7463,-7.28745 -4.7174,-3.14493 -6.7295,-1.55556 -10.9396,-1.0314 -5.7488,1.0314 -5.1739,3.09421 -8.3696,6.83092 -4.1594,8.8261 -5.2078,20.84785 -5.715,9.38406 -6.2391,3.11112 -7.8623,0.50725 -9.9421,2.11352 -23.384,16.11355 -8.843,3.66908 -25.5653,3.65215 -7.7947,3.0942 0,1.55556 -0.5241,1.60628 -1.0314,1.0314 -1.0484,0.52416 -4.1594,-4.7174 -4.7005,-2.04589 -5.2077,0 -4.6667,1.55555 -1.0821,1.53865 -1.0314,0.50725 -1.0145,-0.50725 -1.5894,-1.53865 -4.6497,-15.13283 -13.5435,-5.73189 -26.0556,-3.61836 -2.1135,-2.62077 -1.5218,-3.11112 -2.6038,-3.14493 -4.7005,-2.58696 -3.1281,-0.50725 -25.0072,3.09421 -4.6836,3.66909 0,6.76329 -11.9879,18.73428 6.7633,3.14493 2.5869,0.50725 8.3527,5.7488 -1.5556,8.82609 -7.3043,6.28987 -9.3672,-1.08213 1.5556,6.28986 6.7633,11.98793 0,2.06281 -3.6353,2.58696 0.5241,5.20773 2.0798,5.73189 2.0797,3.66909 -6.2054,7.79469 -6.8309,19.29229 -7.7947,10.93963 -7.2705,13.01933 -3.686,2.06281 -3.6353,0 -2.0797,2.11353 1.5556,7.79469 -9.9083,2.63768 -50.9952,0 -14.1014,-4.70048 -4.6836,0.50724 -7.2706,5.22465 -4.1932,7.79469 -3.1111,8.87682 -4.1933,7.79469 -7.2874,6.7633 -8.8599,2.63768 -35.4397,2.58696 -3.0603,2.09662 -6.831,5.73189 -3.6014,1.55556 -4.2271,-1.55556 -3.6353,-3.12802 -4.1256,-2.07972 -4.7343,2.07972 -6.7294,6.23913 -3.7029,2.62078 -12.4783,4.64976 -17.6691,10.43239 -7.3044,1.0483 -7.8285,-0.5411 -7.2874,1.6063 -14.0677,5.715 -7.3043,0.5242 -11.4638,-1.0315 -9.3672,-3.6521 -2.0797,-8.3696 1.0483,-11.97102 -5.7488,-15.58939 4.7005,-6.25605 -3.1449,-2.63768 -1.5556,-2.57005 -2.6038,-5.73189 5.7826,-2.11353 5.157,-6.25605 2.6039,-8.30194 -0.558,-9.40097 -3.6015,-5.73189 -5.2246,-2.06281 -14.5918,2.06281 -51.5194,-1.53865 -6.8309,3.09421 -15.5894,-4.17634 -8.3527,-0.52415 -8.3526,1.60628 -2.0967,2.0628 -0.4903,2.06281 0,2.63768 -1.0145,2.06281 -11.4638,9.90822 -7.3381,-2.58696 -7.2537,-7.32126 -11.4637,-16.16427 -6.273,-1.0314 -6.2391,7.84541 -8.86,15.6063 -6.7632,3.14493 -21.8962,5.71498 -6.7464,-1.01449 -7.8454,-5.22464 -25.4976,-3.66909 -31.7706,-11.97103 -14.5918,-1.55555 -16.1812,6.25604 -2.5869,2.62078 -2.0797,3.0942 -3.128,2.63769 -5.2247,1.55555 -4.1256,2.06281 -1.0652,3.66908 -0.4904,4.17634 -2.6376,3.0942 -6.7802,5.73189 -5.2078,8.35267 -2.6038,9.8744 1.0483,9.90823 -7.3044,-3.14493 -11.9879,-3.09421 -10.9227,1.55556 -4.7174,10.41547 -24.9735,15.11599 -6.2391,5.7318 -2.1136,-5.7318 -3.1111,-4.1764 -3.0942,-1.03137 -3.6691,3.61837 -19.7826,-15.60631 -9.9082,-5.71498 -12.5121,-1.08212 -22.3865,10.43237 -10.4493,0 -0.4903,-13.52658 -3.6691,-1.04831 -6.7633,-4.68358 -3.1449,-0.52416 -4.1595,2.58696 0,3.14493 0.5411,3.66909 -2.6208,3.09421 -1.5386,0.52415 -6.814,0 -2.6039,1.0314 0,2.09662 1.0483,2.60387 -0.5241,2.62078 -16.1136,21.33816 -7.3382,6.273 -14,8.843 -4.1932,0.5072 -4.1933,-0.5072 -4.1256,0.5072 -4.1594,4.1764 -2.1473,5.2077 0.5241,3.1111 1.6232,2.6377 0,4.1763 -7.8285,19.7657 -10.9227,3.6691 -31.8044,-5.7319 -32.8358,2.587 -15.5894,5.2077 -14.5918,10.9397 -5.2077,5.7318 -6.814,2.0798 -14.5918,1.5724 -3.0773,2.6039 -6.8309,4.1763 -3.6015,1.5556 -15.6232,-1.5556 -13.5942,10.9396 -14.0169,7.7948 -23.9759,4.1763 -7.8116,4.7005 -6.7464,8.3188 -2.1135,7.7947 3.1449,7.3213 8.843,7.2874 -9.3502,2.587 -9.401,-3.6353 -7.3044,-7.8285 -3.128,-11.4638 -1.0314,-14.5579 -3.6691,-7.8455 -7.2874,-2.5869 -11.4638,1.0314 -9.9082,2.6377 -9.3841,5.2077 -7.2874,8.3188 -5.1909,12.4952 3.6691,4.6836 17.1619,18.244 5.2246,7.2705 6.2392,17.7537 4.7173,22.4034 -1.6062,20.7971 -11.988,12.4952 -5.157,0 -4.7174,-1.5556 -4.6666,-0.5072 -17.1957,8.8768 -13.0532,3.6184 -8.3188,0 -6.2392,-3.6184 -3.1111,-9.9082 -2.6038,-5.2078 -4.6836,-2.6377 -5.2247,-0.5072 -4.7174,0.5072 -5.1908,2.6377 -2.0797,2.587 -3.1618,9.9082 -0.5073,5.2077 1.0314,3.145 0,2.5869 -4.1256,3.145 -7.8285,3.6014 -3.6353,0.5242 -8.3526,-3.6184 -8.8599,-1.0314 -4.6836,-2.6208 -4.6836,-0.5241 -2.0797,4.7005 -1.5894,10.9396 -5.157,6.7633 -11.9879,5.7319 0,6.7633 0.541,11.971 2.5701,15.6401 -7.3044,4.1933 -15.1159,-7.8455 -15.5894,-14.0507 -16.7054,-7.8454 2.6377,-2.587 3.6353,-4.1763 2.6039,-1.5387 -5.715,-4.1763 -3.1619,2.6208 -3.1111,5.7319 -5.2246,4.1763 -6.2391,0 -4.6836,-2.1135 -9.3841,-6.2392 -29.1836,-10.9396 -8.8599,-1.0483 -5.1739,-1.5556 -11.988,-9.384 -3.1449,1.0483 -1.0483,2.6039 -1.0314,2.6038 -2.0797,1.0314 -2.6039,-0.5241 -2.0459,-1.5556 -1.5555,-1.0314 -1.0991,-0.5241 -5.2077,1.5555 -3.6015,4.1763 -3.1787,4.1426 -2.6039,2.1135 -4.6497,-0.5242 -13.5435,-3.6521 -18.2947,-2.0798 -17.6691,2.0798 -16.6715,5.2077 -40.1233,18.7512 -7.7947,12.4952 -9.384,3.6522 -17.703,3.6691 -23.9758,10.4154 -13.0363,2.587 -4.6666,2.0628 -4.6836,1.6063 -4.7005,-1.0483 -2.0797,-2.0967 -0.4904,-3.1111 0,-3.1449 -0.5241,-2.587 -3.1788,-10.4154 -1.5724,-2.1136 -1.5556,11.9711 -4.6328,14.0845 -3.686,6.2561 -8.302,8.3188 -8.8768,6.2899 -5.2246,1.0314 -7.2537,-2.6208 -8.8937,-3.6353 -19.8164,-2.1135 -21.3213,1.0483 -10.4324,-1.0483 -6.7633,-4.1256 0,-3.6691 2.587,0 0,-7.2705 -6.7633,-2.1136 -18.2271,-10.9396 -4.6836,-5.7319 -5.7319,-1.5555 -2.0628,-2.587 0,-2.1135 2.5701,-4.1763 1.5555,-6.7633 4.7513,-13.5266 0,-4.1764 -20.3406,17.703 -13.0194,8.3526 -9.384,-7.3043 -7.8455,1.0652 -18.7512,5.7319 -9.3333,10.9396 -4.1764,2.587 -5.2246,1.0314 -18.7851,7.2874 -25.4976,3.6522 -19.8333,6.7633 -5.6812,1.0483 -12.4952,-3.6353 -5.7657,0.5242 -4.6497,6.7633 -5.7657,-10.4324 -3.6353,2.6377 -4.6836,6.2391 -8.3357,1.5556 6.7802,3.6691 3.128,3.0942 1.5555,3.1449 1.5556,3.1111 3.6353,-1.0314 4.1932,-2.587 1.5725,-1.5555 3.0773,1.0314 2.6207,-0.5242 1.5725,0.5242 0.5411,5.2077 -0.5411,3.6184 -1.5725,3.1449 -2.0797,2.0797 -28.6425,5.2078 -3.686,2.1135 -4.6329,4.6498 -5.7488,4.1763 -7.2705,0.5241 0.5242,9.9083 -10.4324,0.5072 -31.7875,-9.8913 -4.6667,-2.6039 -4.227,-4.1763 -4.6498,-3.0942 -11.9541,-1.0821 -4.7174,-2.0628 3.1449,-4.1764 -1.5893,-0.5241 -0.5073,0 -0.5241,-3.0942 -3.145,2.0628 -2.6038,0.5072 -5.715,1.0483 0,-3.6183 2.6208,-2.6377 2.6038,-5.2077 1.0145,-5.2247 -1.5555,-2.57 -3.6353,1.5555 -3.686,5.715 -3.6015,1.0483 -1.5555,-1.5556 -5.7826,-7.8116 -2.5701,-2.6207 -6.2391,-3.0942 -3.6691,-0.5242 -4.6498,0 0,2.587 0.5073,0.5072 1.0314,0 1.5555,0.5242 -2.0628,1.0314 -2.1135,1.5893 -4.1763,5.2247 5.7657,6.2391 7.8116,5.2247 18.2101,8.3019 -11.4637,7.7947 -12.4952,2.6377 -12.4952,-2.6377 -11.971,-7.2705 -2.1136,2.6207 -1.0314,0.5242 -5.2077,-3.1449 -6.7802,2.1135 -7.2536,-3.1449 -14.1015,-10.4324 0,-3.6015 3.6522,-3.1618 2.0628,-1.0314 -2.587,-0.5242 -2.0628,0 -2.0966,-0.5072 -2.1135,-2.6208 -9.8744,7.2706 -3.145,1.0821 -3.0942,-1.0821 -0.5072,-2.587 -0.5242,-2.6208 -2.6376,-1.5555 -18.7175,0 -9.942,-1.5556 -26.0049,-8.3188 -11.4637,-8.86 -51.6209,-5.7318 -19.2415,2.0628 -4.1933,-2.0628 -4.1256,-7.2875 -2.6377,0 -7.7946,7.7947 -11.4638,3.1449 -11.4469,-2.1135 -8.8937,-8.3019 -10.9227,10.9396 -93.7562,8.3019 -8.3526,2.6377 -33.8672,16.1136 -29.6402,6.2898 -9.384,5.1739 -4.7174,1.0822 -4.6836,-1.0822 -5.715,-5.1739 -3.1787,-1.0821 -29.116,8.8768 -5.2415,-3.1449 -4.1426,7.3212 -9.9082,2.587 -35.93,1.5556 -14.1014,5.2246 -29.674,19.7995 -6.7464,2.587 -17.2125,1.5556 -6.273,-1.0314 -2.0797,-3.1112 -1.0314,-3.6521 -3.0942,-3.6691 -4.1763,-2.0628 -8.8769,-3.145 -4.1932,-2.5869 -2.5701,3.6522 7.3044,6.7802 5.1739,8.8261 -1.0145,7.8285 -12.5121,3.6352 -83.3575,-3.6352 -21.3213,3.6352 -4.7343,9.9083 -3.1111,2.6207 -2.0628,-8.3526 -2.587,0 -7.8454,11.971 -22.9107,27.1039 -8.8768,7.7947 -13.5435,6.7971 -6.7633,0.5241 -2.6208,-5.2077 -2.0797,-6.7633 -4.6835,-2.6208 -13.5266,0 1.0314,-1.5555 1.0314,-4.1764 1.0821,-2.0797 -5.2585,-6.2391 1.5556,-4.7005 2.6208,-4.1763 -2.0628,-5.2078 -47.9518,0 -6.7802,-3.1111 -6.2222,-4.6835 -6.256,-2.6377 -6.7633,3.1449 -6.3068,-3.6691 -32.2609,3.6691 -5.2077,2.0628 -13.0025,9.9082 -5.7319,-1.0314 -3.1449,-3.1449 -2.57,-3.0942 -9.9252,-2.6377 -10.9396,-5.2077 -6.256,-1.0314 -21.372,0 -21.3213,-4.1764 -5.7826,1.5894 -9.8575,5.7319 -5.7319,1.0314 1.0483,-2.6208 1.0314,-6.256 0.5072,-2.587 -10.4323,0 -4.6498,-1.0314 -4.1763,-3.1449 -15.116,8.3527 -21.372,7.7946 -20.814,2.0798 -22.9107,-11.9711 -10.9396,1.0314 -17.1957,5.2078 -24.9903,-2.0628 -6.2899,2.0628 -40.6136,-1.5556 -23.9589,-5.2077 -3.6691,-13.5266 -5.6981,-4.1763 -2.6038,-7.8116 -1.6232,-9.3841 -2.5701,-9.401 -2.5869,0 -3.6522,9.9251 2.1135,7.7947 4.1256,6.8141 3.1111,6.2391 -0.541,11.4469 -4.6498,3.6352 -7.3044,1.0653 -4.6497,3.6183 -6.814,-4.1594 -25.5146,-1.0483 -15.6401,2.6208 -8.3019,3.1111 -6.2899,0 -5.1739,-2.0628 -3.1449,-3.145 -3.1449,-1.5555 -5.6812,2.6208 0,6.256 2.57,1.5386 1.0314,1.5556 1.0483,2.1135 1.5894,2.587 -19.7657,9.9082 -26.1232,36.4542 -16.6208,13.0024 -34.3744,19.3092 -4.7005,1.5555 -16.1643,2.1136 -5.7319,-2.6377 -4.1763,-4.1763 -3.6015,-3.1112 -5.2415,2.0797 -3.6522,-8.3357 -5.2077,-7.3044 -3.6353,-1.5555 1.0483,9.401 -10.4324,19.7657 -1.5555,7.8454 -7.2875,-3.6691 -2.6038,-0.5241 -3.1281,-1.0314 -0.5241,-2.6208 0,-2.587 -0.5242,-1.5386 -3.6521,-1.6063 -3.1112,-0.5073 -2.0966,2.6208 0,8.302 9.3841,11.9879 1.5555,3.1449 -1.0314,5.7319 -3.128,4.1763 -3.1111,1.5556 -1.5725,-2.1135 -2.6207,-8.843 -7.2706,-8.3527 -8.8768,-6.2391 -16.6546,-4.1426 -8.3358,-4.6835 -7.3043,-6.2561 -5.7319,-6.256 1.0314,-2.0966 1.0652,-4.1764 1.0314,-1.5555 -10.4155,3.6691 -5.2077,0 -4.6836,-3.145 7.8116,-12.4952 -3.6521,-4.1932 -20.8479,1.0821 0,3.6184 2.0966,0.5072 1.0483,0.5242 2.6039,2.6208 3.1111,-2.6208 1.5725,-0.5242 4.1594,3.145 -2.6039,4.1932 0,4.6498 2.0798,5.2077 3.128,4.7005 2.0966,-1.0314 4.1594,-1.0314 2.587,-1.5894 0,3.6522 -6.2392,7.7947 -3.1111,9.9082 -4.7005,8.3696 -11.4637,1.5555 -8.3358,-10.9565 -10.3986,-9.3841 -11.4637,-6.7633 -12.5121,-3.669 -14.0677,0 -6.256,-1.5556 -2.6039,-4.6836 -1.5555,-6.7633 -2.0797,-6.256 1.0314,-6.2391 7.8116,-6.2561 -2.0798,-1.0314 -2.0797,-2.1135 -1.5555,-1.0314 0,-3.6184 1.0483,-0.558 4.1594,0.558 -4.7005,-2.1135 -4.6667,0.5072 -3.669,3.1619 -1.5556,6.2391 -60.4131,-46.3454 -12.0048,-6.2561 -9.8914,1.5556 -2.6038,-1.0483 -7.3044,1.0483 -1.5386,0 -0.5242,-6.2561 2.0628,-5.7319 3.128,-4.6836 3.145,-3.1449 -5.2078,-7.7947 -4.7004,2.0628 -2.0967,-8.843 -1.5386,-11.971 -3.128,-8.8768 18.227,0.5241 8.3358,3.145 4.7005,7.2705 4.1425,-2.587 1.5894,-1.5893 -3.1281,-1.5387 -1.0652,-1.0483 -1.5386,-2.0628 25.0072,4.1256 9.3672,4.1763 2.0797,-0.5072 0.5242,-4.1763 -1.5725,-3.6184 -3.128,-2.6208 -3.128,-1.0483 -41.6788,-5.715 -7.7947,-6.256 6.7633,-2.6208 9.8913,-10.9396 7.3043,-2.6039 14.0677,1.0483 7.3043,-1.0483 8.302,-4.1763 -7.7947,-5.2077 -4.7005,-4.1256 -2.0797,-5.2078 0,-8.8937 3.128,-17.1788 0,-8.843 -3.128,-9.384 -3.128,8.8768 -4.1595,5.7319 -9.3671,9.3502 -2.6039,6.2392 -1.5724,6.256 -2.6039,5.2077 -5.7319,2.1136 -11.971,7.7947 -8.3527,1.5386 -3.6353,-7.2705 1.0314,-13.5266 -1.5555,-5.2247 -5.2078,-6.2391 -9.384,8.3188 -3.6353,5.7319 -1.5555,7.2875 -22.4034,-5.7319 -2.6039,-2.0797 -1.0652,-2.587 -1.5387,-2.1135 -9.3841,-3.1449 -4.1763,-3.0942 -3.128,-4.1764 -1.5725,-5.2246 -3.6352,-3.6184 -21.8793,-10.4154 -14.0507,6.256 -15.6401,-4.7174 -14.5749,-8.3019 -11.4638,-4.1933 -7.8285,1.0314 -16.1474,5.2247 -7.2874,1.0314 -7.2875,3.1449 -13.0193,13.5266 -5.2078,3.1449 -4.7004,-1.0821 -3.1281,-2.5701 -3.128,-4.1763 -13.0024,-3.6184 -17.7367,-11.9879 -16.6716,-7.3213 -4.1425,-0.5241 -3.128,-1.5387 3.6353,-3.1449 5.2077,-2.587 2.0966,0 6.2392,-12.4951 4.7005,-3.145 8.843,0.5242 -7.2875,-5.7319 -10.9396,-4.1932 -10.9565,-0.5073 -7.7947,6.814 -3.1112,0 -2.0966,-8.3695 -4.1763,-7.7947 -5.1908,-6.2392 -5.2078,-4.7005 -5.2246,-2.1135 -7.3044,-1.5555 -7.2705,0 -15.6401,6.7632 -13.5266,-7.2705 -19.7995,-18.7512 3.6352,-9.9082 5.7319,-0.5073 13.0024,6.7464 -0.5072,-5.2077 6.7802,-0.5073 9.3841,2.0966 7.2705,3.6184 0,-4.1256 -7.2705,-1.0821 -3.1281,-1.0314 -3.128,-1.5387 -3.6691,-3.1449 -1.5386,-2.587 -1.0314,-3.1618 -2.0966,-3.0942 -6.2392,-5.2078 -5.2077,-1.5555 -5.2246,1.5555 -6.2561,5.2078 -2.0797,-6.7633 -4.7005,-3.6522 -4.6836,-4.7005 -2.0797,-10.4324 -3.128,-5.2077 -5.2077,0 -3.6353,-3.0942 3.1111,-13.5942 6.256,-4.6498 3.1281,-3.1449 -1.5556,-5.2078 -1.5725,-3.0942 -1.5555,-4.1763 -1.0483,-4.7005 -0.5242,-3.6522 -8.3357,-23.4517 -2.6039,-5.2077 0,-3.6184 3.6353,-3.6691 4.1763,-13.0024 2.0966,-1.5556 2.6039,5.2078 4.1594,11.4638 3.128,4.6497 3.6353,3.145 4.7005,3.1111 4.1594,-0.5242 1.5556,-7.2874 0.5241,-1.5387 3.6691,1.0314 2.587,3.1449 -2.587,6.2392 0,3.6183 5.1908,-2.0628 6.273,-10.4323 3.6353,-2.5701 7.2874,-0.5241 3.1111,-2.1136 0.5411,-3.6183 -0.5411,-5.2078 -1.0145,-3.1449 -3.6521,-4.1763 -1.0653,-2.0797 0.5411,-3.145 2.0797,-7.2705 0.5411,-4.1763 7.7947,-3.1112 5.7319,-3.6521 3.128,-6.2561 -2.6208,-5.7319 -3.128,-4.1763 -3.6522,-2.0628 -5.1908,0 4.1763,-9.90823 2.0628,-8.843 2.6039,-7.32126 5.7488,-4.64977 7.8116,-1.58937 5.2077,2.62077 9.3672,10.43238 -1.5387,9.35025 8.843,1.58938 20.831,-3.14493 10.9396,1.55555 9.3672,4.17634 6.256,7.79469 1.5725,13.0531 8.843,-4.7004 1.0652,-9.3841 -2.6039,-8.84301 -2.6038,-4.15942 -9.9252,-2.63768 -6.2391,-5.73189 -10.4155,-15.08215 -11.9879,-6.76329 -1.0314,-1.06522 -4.7005,-1.55555 -3.128,-4.17634 -2.0797,-3.61836 -4.6667,-6.76329 -2.6208,-11.46378 -1.5725,-11.46378 0.5242,-6.81401 -5.1908,-8.30194 -5.7319,-14.60872 -2.0966,-13.52658 6.256,-6.23914 9.3672,-4.19324 2.0966,-9.35025 1.0314,-10.41547 6.2729,-6.81401 5.715,7.32126 3.128,3.11111 3.6522,1.03141 3.1111,12.52899 1.0314,3.11112 15.116,4.15942 4.6836,4.19324 -5.7319,7.28745 13.5604,10.41547 5.715,2.58696 -2.0797,-5.73189 5.7318,-4.68358 4.7005,3.14493 8.843,13.01934 -4.1594,4.68358 1.0314,6.76329 6.2561,15.11596 5.7319,-7.7947 4.1763,-8.87682 5.2077,-7.28744 7.8116,-3.14494 7.2875,2.63769 5.7488,6.23913 4.1425,8.84301 3.128,8.87682 2.6039,0 -3.1281,-12.51209 -15.099,-34.37443 -5.2077,-6.79711 -5.2078,-1.55556 -5.2077,-4.17633 -3.6522,-6.76329 -1.5555,-8.31885 0.5241,-9.90822 5.2078,-19.25848 -5.2078,-4.17633 0,-6.2391 1.0314,-6.25605 -1.5555,-5.73189 -4.1764,-1.58937 -6.2391,1.06522 -5.7319,2.60387 -3.6353,2.62077 5.715,3.61836 0,5.20774 -3.6522,4.70045 -5.1908,1.53865 -6.2729,-1.53865 -8.3358,-3.66908 -7.8116,-4.68355 -3.1111,-5.73189 3.1111,-2.0628 14.0846,-2.60387 5.1739,-3.12802 3.1618,-5.73189 2.0628,-10.43238 3.6691,-6.23914 9.8744,-6.25604 13.5604,-1.53865 13.0024,1.0314 8.8769,2.57005 5.7318,3.66909 10.3986,8.31885 8.8599,5.73189 1.0652,1.06521 1.5387,0.52416 3.6353,0.50725 4.1932,-1.53865 3.1111,0 3.6522,2.0628 -3.128,-8.35266 -5.7319,-5.73189 -13.5604,-8.8261 -7.2706,-6.25604 -15.6401,-18.78505 -3.128,-7.28745 -2.0628,-1.53864 -15.116,3.65217 -5.7318,-1.06521 -1.5556,-1.55556 1.0314,-2.58696 1.0483,-4.70049 0,-18.22707 -2.6039,-4.17633 -5.7319,8.843 -2.6038,0 0,-7.79469 -4.1764,-12.49518 -1.5386,-6.7633 7.7778,2.58696 21.8961,-1.55555 4.7005,1.0314 4.6667,4.70049 22.4034,10.41546 8.3358,2.07972 10.4323,4.17633 5.7319,9.90822 4.6836,10.38166 6.2561,5.7657 3.6521,1.0314 1.5387,-0.50724 0.541,-3.66909 0,-17.19567 -1.5724,-4.68358 -2.6039,-2.58696 -8.3527,-5.73189 -7.2705,-3.14493 -13.0362,-12.49518 -2.0797,-1.0314 -5.1909,-2.11353 -21.8961,-16.67151 -7.8116,-9.8575 -2.0967,-1.60628 -4.1594,-2.58696 -2.0797,-5.20774 -1.0314,-5.20773 -1.0314,-2.58696 -10.9396,-5.73189 -2.0966,-2.11353 1.5555,-3.61836 7.8116,-3.66909 2.0966,-4.17633 -3.128,-5.20773 -7.8285,-2.06281 -16.6715,0 -4.6667,-3.66908 -1.0483,-9.87441 8.3358,-108.34794 -1.0483,-7.84541 6.7632,-2.57006 6.7802,5.73189 6.7802,7.7947 6.7633,2.58696 8.3358,2.62077 7.8116,6.25605 6.256,8.30194 4.6836,9.40097 4.1594,3.65218 9.401,4.70049 10.9227,3.11111 8.3189,5.73189 3.128,5.71499 4.1933,11.98793 3.6352,5.73189 7.3044,5.20773 7.2874,1.55556 15.116,0.55797 7.7947,3.09421 14.0676,9.92513 7.8116,3.09421 64.0822,10.41547 6.7633,3.66908 10.4324,9.90822 3.6353,2.58696 3.128,0.52416 7.2874,0.50725 7.8116,3.14493 12.529,8.82609 3.6353,-5.20773 3.6353,-8.30194 -1.0314,-23.95896 1.5555,-8.87683 5.2078,-4.14251 6.7802,0.52415 7.2874,3.61836 8.8599,0.50725 7.8116,-3.0942 6.2561,-6.23914 3.1111,-8.36957 -1.0314,-9.8575 -4.1764,-6.81402 -6.7633,-5.73189 -11.971,-7.79469 -11.9879,-11.98794 -16.1474,-23.94205 -4.1594,-9.90822 -0.5411,-10.43238 4.7005,-9.90822 14.5749,-5.73189 3.128,-4.12561 0.5073,-7.32126 -1.5387,-14.5749 35.9469,-2.11353 18.7344,5.22465 13.5604,14.08455 4.1594,6.76329 5.2077,5.20774 5.7319,2.58696 6.7802,-1.03141 7.8116,0 3.6522,7.28745 2.0628,9.38407 2.0966,6.23914 8.3358,3.16183 1.0314,-15.13286 2.6207,-16.14736 13.0194,0 2.6038,3.14493 1.5556,3.61836 2.0797,3.14493 4.1763,1.53865 11.4638,-0.50725 25.5145,6.23914 11.4469,6.25605 6.2899,-1.55556 11.4469,-8.31885 7.2705,-3.65218 22.4203,-1.0314 -6.256,-17.19567 0.5241,-5.22464 6.7802,-3.65218 7.2875,-0.52415 8.8768,1.04831 8.3019,3.12802 6.2561,4.70049 2.0628,4.14251 0.5072,3.65218 1.0821,3.16184 3.145,2.58696 3.1111,0 6.256,-4.19324 4.1764,-0.50725 5.7149,-2.0628 5.2247,-7.28745 4.1256,-9.40098 1.5556,-8.87682 5.7657,4.70049 9.9082,11.46378 5.6981,3.65218 6.2898,1.04831 15.0822,-0.52416 7.3212,1.0314 29.6402,9.90823 13.5773,8.31885 8.3019,12.52899 1.0314,8.84301 -2.57,18.21016 1.0314,7.84542 3.1449,3.11111 6.2391,4.70049 7.3213,4.17634 5.6981,1.0314 13.5265,-8.35267 12.529,-10.95653 13.0025,-5.73189 14.6256,6.25604 9.8913,7.32127 9.3672,-4.68358 9.8913,-7.84542 11.4638,-2.58696 25.5652,2.0628 9.8575,6.28987 2.6208,16.63769 12.4952,-2.0628 15.0821,-23.45171 12.4952,-3.65218 29.7246,1.06522 14.0339,4.14251 5.7826,11.98794 9.8575,-4.14252 5.7319,-6.81402 1.5555,-8.82609 -3.0942,-23.95896 3.0942,-3.66909 7.3213,-1.0314 10.9565,-3.65218 -4.7343,-10.43238 -9.8744,-45.31405 -1.6063,-5.22464 -3.0942,-4.64977 -2.5869,-5.20773 1.0314,-4.70049 2.5869,-4.70049 2.0628,-5.20773 1.0822,-10.41547 2.0628,-10.90581 5.7488,-8.87682 11.4637,-4.17633 4.1595,1.0314 6.256,3.14493 5.7319,3.66909 2.6208,3.0942 3.1111,2.63769 5.715,0 33.8672,-6.81402 20.2898,-7.28745 18.7851,-11.97102 17.7198,-18.75123 5.715,-8.35267 4.1932,-5.20773 -19.7826,-29.1667 -10.9565,-11.46378 -2.6039,-5.73189 0.5072,-4.14251 1.0314,-3.65218 0,-3.66909 -15.6401,-25.49761 0,-4.70049 -13.0024,-1.0314 -5.7319,-2.11353 -5.2077,-4.1256 1.0314,0 0,-3.16184 -0.5242,-4.17634 -1.0314,-3.0942 -1.5555,-0.52416 -5.2078,1.04831 -1.6063,-0.52415 -13.0024,-21.372 -13.5266,-13.52659 -13.5096,-10.43238 -24.4832,-10.41546 -3.7198,-2.58696 -27.0531,-0.52416 -7.3213,-1.58937 -4.6498,-5.20774 -14.5579,-22.4034 -3.145,-8.31885 -2.6208,-4.176332 -14.5748,-12.495182 -5.2078,-6.763292 -1.5894,-3.669086 1.0145,-13.526583 -3.6183,-9.908223 -16.6715,-24.466208 -5.715,-5.73189 -11.4638,-1.031404 -25.5145,2.062806 -8.8768,-4.176336 -1.5387,-10.4323703 -4.7005,-7.28745 1.0483,-6.7632897 4.1764,-6.22223 13.0024,-14.10152 5.2077,-9.35025 8.843,-22.4034 3.7029,-11.44687 3.6015,-4.7174 6.256,-1.53865 4.7005,-3.16184 3.6184,-8.85991 -1.5556,-6.74638 -6.7633,-2.09662 -0.5241,-13.5604 0.5241,-3.61836 1.5894,-5.73189 -0.558,-3.14493 -1.0314,-3.09421 -0.5241,-5.22464 0,-10.41547 1.0483,-7.7947 5.2077,-17.75364 3.1111,-18.22707 1.0653,-9.35025 0,-6.81402 -3.145,-9.33334 -9.4009,-17.71982 -2.5701,-8.35267 1.0314,-9.35025 3.6522,-5.78261 4.7005,-4.64977 4.1425,-7.32126 2.1135,-9.35025 -1.0821,-6.23914 -9.8744,-13.57731 -7.7947,-18.73432 2.6039,-17.70291 9.384,-15.65702 14.0508,-13.00243 -7.2875,-13.00243 -3.6691,-3.66909 -17.7029,-13.01933 -2.6208,-3.12802 -1.5724,-4.17634 -0.5073,-8.843 -1.0314,-3.14493 -7.7947,-5.22465 -7.7947,-0.50724 -8.3526,0.50724 -7.8454,-1.01449 -17.6691,-11.48069 -7.3382,-3.65217 -3.6015,-5.17392 -4.1932,-12.529 -3.6522,-6.23914 3.6522,-7.79469 3.1449,-18.22707 4.6498,-7.33817 5.2246,-1.53865 10.9396,-1.57247 4.7005,-1.53865 4.6498,-4.17633 5.7657,-8.87682 9.3672,-11.46378 16.6546,-30.1981 -7.2706,-11.97103 -2.1135,-5.74879 0.5242,-5.71498 -1.5556,-4.70049 -2.587,-13.52659 -1.0314,-2.11352 -4.1763,-3.09421 -1.0314,-2.63768 0,-3.09421 1.5556,-5.20774 0,-2.63768 -0.5242,-4.64976 -0.5241,-8.87682 -1.5894,-5.19083 -10.3817,-15.65702 -4.1932,-2.58696 -9.3841,-4.17633 -3.0942,-2.58696 -3.1111,-7.28745 0.5242,-5.71498 1.5555,-5.22464 0.5073,-4.68358 -1.5556,-5.22465 -4.7343,-8.87682 -2.0628,-5.20773 0,-5.17392 1.0314,-3.65218 0.5241,-4.19324 -4.6497,-11.44687 -6.2899,-2.58696 -60.9203,-7.82851 -13.0194,0.50724 -8.8768,5.73189 -7.2705,-2.0628 -16.6715,0.50725 -7.8455,-1.55556 -6.7294,-3.12802 -5.7657,-1.57247 -89.6137,4.19324 3.6522,-8.89373 13.5773,-37.50245 7.2875,-6.76329 12.4952,-16.65461 6.7633,-6.79711 14.0845,-7.27053 3.6522,-4.7174 4.1425,-11.98794 6.256,-5.19082 8.8769,-4.12561 17.1787,-4.68358 3.1111,-5.22464 0,-11.44687 -2.0797,-11.98794 -3.0942,-7.86232 -2.1135,-7.27055 0,-11.9541 2.1135,-11.4976 3.0942,-6.2391 7.8454,-6.2392 20.2899,-25.0242 -5.7319,-9.8744 -0.5072,-10.9734 3.0942,-10.3986 5.7657,-8.3526 10.3817,-5.715 11.5145,-3.1449 9.8575,-4.68358 5.2415,-9.9082 -1.0483,-5.2078 -4.7005,-10.3816 0.5073,-4.6835 4.1932,-4.1933 6.2391,-3.1111 6.2561,-1.0821 5.2077,2.1473 9.8575,6.2392 10.9565,1.0145 10.9397,-3.1281 9.384,-6.2729 6.8141,-6.2053 5.6811,-9.3841 2.6208,-10.3986 -2.6208,-9.4178 4.7005,-3.6353 0.5242,-4.6498 -2.0798,-5.2246 -4.1763,-5.2078 -14.0338,-27.1208 -9.4179,-13.0024 -8.8599,-7.2705 5.7826,-10.3986 -2.1135,-8.3865 0.5072,-7.2705 -3.1449,-2.0797 -5.157,-4.1594 -5.2247,-5.2247 -6.7633,-3.1618 -19.2922,-4.1256 -4.1426,-3.6353 -2.1135,-5.2246 -5.7319,-6.7633 -6.7633,-5.7488 -6.2391,-2.6377 -24.4662,-19.7488 -0.5242,-2.0797 -3.6691,-6.8141 -1.5893,-3.6352 -2.587,-18.2271 -1.0314,-11.9879 0,-5.1739 0.5242,-4.1933 2.0628,-3.6691 2.6207,-1.5555 2.587,-2.0459 1.0821,-4.1933 -2.1135,-7.2705 -17.1957,-25.0242 -7.2874,-26.5628 -4.1763,-6.273 4.7173,-6.7294 -0.541,-6.273 -4.1763,-5.715 -5.715,-6.2391 5.715,-3.1788 11.9879,-8.843 43.7754,-56.2367 1.5555,-3.1788 2.5701,-6.7633 1.6063,-3.0773 2.6208,-3.1618 7.2536,-5.2247 2.0966,-2.5362 16.6715,-42.7778 9.9082,-8.8092 6.2054,0 10.4323,2.0797 9.9083,4.6836 5.2077,7.2705 2.1135,-0.4903 1.0314,0 10.9397,3.128 11.4637,1.0314 6.7633,-5.2246 -4.1932,-15.116 -3.0942,-7.7947 -5.7488,-17.7029 -7.8116,-16.1474 -3.6691,-15.657 -3.6184,-6.7633 -3.6521,-12.529 -10.3817,-0.9806 -23.4348,9.3333 -7.3382,0.5411 -3.6183,-4.1595 -4.2271,-10.9396 -4.1087,-5.715 -3.128,-2.1473 -5.2585,-1.5556 -5.1739,-2.57 -5.2415,0.5241 -5.174,1.5218 -5.2077,0.5241 -4.7005,-3.0604 -13.0024,-2.6715 -2.6377,-3.0773 0,-4.1594 1.0821,-5.2246 0,-5.2078 -2.1135,-9.4178 -8.8261,-24.4324 -4.7343,-17.7368 -11.4807,-20.3068 -37.9928,-31.8043 -7.3212,-10.9397 -5.6812,-15.6063 -3.6691,-25.0072 -2.1135,-7.8285 -2.587,-4.1256 -10.9396,-11.988 -4.1256,-2.6038 1.0145,-3.145 -0.5073,-2.6038 -1.0314,-2.0798 -0.5241,-2.6038 -4.2271,-5.2585 -1.5386,-2.0459 0,-5.715 0.5241,-0.5241 1.5556,0 2.0966,-7.3044 0.5242,-3.6352 1.0652,-3.1281 3.6183,-5.7488 3.1112,-3.1111 7.3212,-5.7488 2.0628,-3.128 3.1449,-9.3841 2.587,-12.4782 1.0821,-11.4638 -1.0821,-5.7488 8.3189,-17.1957 3.1449,-41.1546 4.1763,-17.1619 -2.5869,-7.7947 2.0797,-11.4637 6.2391,-22.9614 6.7633,-3.6184 7.3382,-3.1449 7.7947,1.0652 8.3019,7.2875 6.2899,2.5869 100.5194,2.6039 -5.715,2.6039 -11.9879,1.5893 -5.7488,3.1111 32.8019,-3.1111 13.5774,-4.1932 36.471,-17.7029 5.6981,0.5241 -0.5242,5.7488 -4.1425,9.3165 -8.8768,14.1352 0,3.0604 13.0193,0 11.4638,8.4034 20.8648,23.401 -4.7174,-9.401 -14.5918,-21.8285 -5.174,-4.1594 -2.5869,-6.2899 2.5869,-13.5266 7.2706,-11.4637 8.3357,-4.1595 8.3358,-3.6691 17.2126,-14.0676 7.2705,-3.1111 9.9082,-2.6377 10.9397,-5.715 101.5846,-73.4662 11.9879,-12.4952 9.3841,-16.1136 13.5266,-34.4082 11.4638,-15.0991 14.558,0 2.6376,5.715 -2.6376,31.2802 3.1449,10.9228 7.8116,6.256 17.7536,6.7971 7.7947,-6.7971 10.3817,0 10.4154,4.1933 7.8455,5.7149 -11.9711,-15.657 -33.8841,2.6377 -14.0338,-11.9879 -2.1135,-11.9542 3.6691,-21.4058 -4.1764,-11.9541 -5.7319,-4.6836 -15.657,-5.7488 -7.7778,-3.6352 -7.8454,-8.3527 -2.0628,-9.3841 2.5701,-9.3333 5.7826,-9.9082 4.1425,-9.9083 5.1908,-20.3406 6.273,-6.2391 7.3212,-2.0628 28.0846,-2.0797 4.1763,-2.6039 16.6716,-15.1498 3.669,-9.8405 -2.6376,-15.6571 3.1449,-7.8285 7.2705,-1.0314 8.3865,2.6208 3.0942,-0.5411 -8.8768,-9.8913 -4.6498,-6.7802 -3.1449,-3.128 -5.2246,-1.0314 -6.2392,7.3382 -3.1449,5.1401 2.1135,4.1932 -3.6522,4.7005 -13.0193,11.9879 -3.6184,0.4904 -5.2584,-2.5701 3.1449,-4.7343 8.8261,-7.7947 9.3841,-17.7198 11.4638,-15.5894 9.9082,-22.4034 9.401,-16.6715 3.6014,-8.9106 2.6377,-9.3165 1.0314,-8.3526 2.6377,-7.3044 20.2899,-15.0821 9.3333,-15.6571 8.3696,-17.2125 10.9565,-14.0339 17.1788,-6.2391 18.227,3.6353 8.86,0 7.8116,-5.2247 27.0869,-26.546 8.8769,-13.0193 6.2222,-5.6981 17.7367,-5.2246 8.3189,-5.2247 8.8768,-3.1618 9.8744,3.7029 7.3213,-5.7488 17.1956,-9.942 15.116,-12.4783 5.1739,1.0483 6.2899,3.6691 48.9324,14.5242 1.0314,3.7029 2.5869,2.5362 2.6377,3.6691 1.5894,5.7488 -1.0652,4.1932 -2.0797,5.2247 -1.0822,4.6835 2.1136,3.6015 -2.6377,6.7633 -0.5073,7.3382 2.1136,6.2391 3.6691,4.1595 1.5386,5.1908 7.7947,0 9.9082,-3.6353 6.7802,-4.6836 3.0942,-8.3527 8.3527,0 2.0459,24.5001 2.1135,5.2078 18.7682,28.1352 -0.5242,3.6353 -1.5556,4.7005 -0.5241,3.6522 6.7971,2.6208 3.1111,2.012 3.1111,2.6715 2.0628,2.5363 3.6691,7.8623 6.7633,18.7343 7.8285,7.8285 11.4976,20.3068 5.157,7.2875 5.2416,3.1449 6.7464,2.0797 15.099,2.1135 5.2246,2.0459 19.2923,11.988 28.0846,7.3043 29.2174,15.6232 4.6498,3.6522 4.1763,1.0314 9.401,-0.4903 51.5532,-9.4179 17.1957,-0.4904 17.7029,3.6184 8.8937,3.6353 3.6015,2.1135 3.0942,3.1111 7.8623,16.6715 50.0145,31.2803 3.145,4.6835 1.5555,8.3189 4.1425,7.2705 5.7488,6.2392 2.6039,4.1932 11.4469,20.3406 5.2246,4.6667 7.2706,2.0797 73.9735,-5.715 11.4468,1.5556 47.9518,16.1473 10.4493,1.0483 40.5797,-4.7174 41.6957,11.4976 18.244,-1.5893 31.7536,-10.3986 18.244,1.5386 26.5459,7.3044 4.1764,-2.0797 4.7174,-4.1256 61.9855,-17.7029 15.116,-0.558 18.1594,6.7971 8.3696,6.2391 5.7319,5.715 6.2391,4.1256 42.2368,5.2247 106.2513,-6.7633 15.6232,2.1473 7.7947,-0.6087 8.8768,-5.1401 11.4638,-15.1667 4.1932,-2.57 3.6522,1.0483 3.6015,4.6667 3.6352,1.0821 7.8286,-3.7029 8.3526,-6.2391 8.3189,-4.1595 8.3357,3.6691 7.3213,-2.6377 11.4638,2.1136 10.4323,4.7174 4.6329,4.6328 2.1135,1.6063 10.3986,10.9058 8.3527,22.9107 10.9227,16.6884 6.7802,3.6522 35.4396,5.7149 5.1739,-1.0145 11.4638,-4.7004 3.6691,-1.0484 8.3189,2.0798 13.5773,7.3043 7.7947,1.5387 9.3671,-1.0145 8.8937,-3.6691 14.5918,-8.843 10.9228,-11.988 9.9082,-14.0676 11.4638,-11.9879 15.5893,-4.6667 8.8431,1.0314 8.3864,3.128 6.2223,5.2247 4.1594,9.8744 3.6691,1.5893 4.6497,1.5387 3.7368,2.6208 2.012,4.1594 2.0797,9.9082 1.5556,3.6353 6.7971,7.2874 6.7633,1.5556 4.7005,6.2729 4.1594,21.372 5.7488,6.7633 14.558,9.8744 5.2246,5.2247 2.5701,1.0483 9.4179,0.5072 3.128,1.0145 2.0797,2.6377 0.5242,4.7005 -0.5242,4.1256 -1.5555,4.1932 -1.0484,4.6836 0.5242,6.273 8.8599,14.5411 12.4783,31.8043 2.1135,14.5918 5.157,14.0677 3.128,18.2271 7.3044,20.8309 10.4324,14.6087 24.4662,24.4662 12.4783,17.7029 5.7826,10.4662 2.0459,9.3165 3.6352,4.6835 21.372,15.1329 21.389,9.401 6.256,1.0314 3.6184,1.5555 8.3695,7.2875 3.6184,2.6208 3.1111,0 2.1135,-1.5894 2.6039,-0.5242 3.6353,2.6039 0.4903,3.6691 4.2271,17.1957 1.0314,2.6038 1.5217,2.587 3.1619,3.128 3.1111,2.6208 2.0459,1.0145 8.3526,1.5893 6.831,4.6836 18.1763,18.2271 6.7971,4.1763 7.2705,2.6039 18.7513,1.5217 22.9275,6.2392 4.7174,0 15.0822,-4.6329 2.5869,-2.6377 2.0797,-2.57 2.1136,-1.0314 20.7971,-6.3068 9.3841,-1.0145 -5.6812,4.1933 -1.0821,5.2077 2.1473,5.1908 4.616,4.1933 6.3067,2.57 7.2368,1.0314 26.6473,-0.4903 13.5097,-2.6208 16.6377,-7.8623 3.7029,-2.5363 9.8744,6.7633 5.715,2.5532 5.2077,1.0821 15.657,0 11.9542,6.2391 6.7802,1.5894 11.4468,4.1594 4.1933,2.587 3.6014,-2.587 3.6691,0 3.6691,2.0459 3.0942,3.7029 5.715,4.6836 1.6232,6.2561 -2.6377,6.2391 -7.7947,4.1932 -3.6691,-6.2391 -8.3188,1.0145 -9.3841,4.7005 -13.5435,8.8092 -4.1594,5.2246 -13.5604,24.4662 -1.5556,9.9082 3.6691,7.2875 9.2995,2.6208 5.2923,4.6835 9.8744,27.6112 11.4638,-14.0677 2.1135,5.2078 -2.1135,21.372 1.0483,8.3188 16.6377,41.645 4.1932,6.8309 7.7609,8.302 6.3237,4.1932 3.5845,4.6836 1.0653,9.8744 -3.1112,37.5193 1.0314,22.4204 1.5556,8.3188 3.1618,6.7464 4.1595,8.8768 5.6811,8.285 7.3382,6.3068 9.401,2.6208 15.0652,-1.0652 7.3382,2.0459 4.6497,6.7802 -1.0483,44.8068 3.6184,20.8309 14.6425,-1.0145 1.5387,7.7947 4.1594,4.1933 5.715,1.5555 13.5773,0.5242 2.6039,1.5555 0,5.2078 1.5555,10.4154 4.7005,7.8116 15.116,16.6885 3.0773,2.1135 2.6376,5.715 6.273,4.6835 39.5653,16.6716 13.0024,9.3502 10.4493,4.1594 18.7512,4.1933 17.2464,0 6.1715,2.5869 6.2729,6.7633 2.6039,7.3382 -0.5241,7.2536 0,7.7947 4.6497,8.8938 5.7826,4.6835 5.6812,2.0797 12.5459,0 7.7609,1.5556 5.7488,2.6039 5.715,1.5555 8.3864,-2.0797 -3.1618,7.8285 4.2271,8.3527 4.1256,3.6353 4.7174,2.6038 5.157,5.715 3.1618,1.5894 7.7947,0.5241 1.5556,2.0459 1.0821,1.0483 4.7005,10.9397 5.6811,5.7149 6.273,3.6691 6.7633,1.5387 7.8285,0.5072 3.1111,3.1619 0,8.285 -2.6208,6.8478 -4.1256,-1.0652 -6.3067,8.8599 -3.0942,3.6522 -4.7005,2.0797 4.1594,3.1449 1.5555,1.0314 -13.0024,14.558 -17.7367,9.9083 -19.7826,5.7149 -18.7344,2.1474 -11.4468,3.0604 -8.8938,6.7802 -15.5893,16.1473 -15.6402,12.5121 -6.256,7.8285 -15.6401,27.0701 -15.6232,21.372 -9.9082,26.0556 -12.5121,24.9734 -1.5556,9.4009 1.0483,5.7488 5.7826,5.22468 1.5556,5.715 -1.0314,3.6014 -5.2754,9.9082 -21.8623,58.3503 -10.3986,38.5677 -3.1449,22.87684 -0.5242,23.97587 2.5701,21.89616 4.227,9.38406 13.0194,18.75123 3.0942,7.27054 2.0797,8.89373 5.2585,9.36716 5.6811,7.79469 9.9082,10.95653 4.6836,6.76329 2.6377,8.87683 1.0314,12.98552 2.0797,5.73189 42.7271,71.35273 26.0556,29.23433 10.9396,16.09663 17.7029,38.04352 10.9228,15.64011 26.0894,16.16427 11.4637,11.97103 30.1812,50.01454 19.7827,20.81403 14.0676,19.81644 5.2246,5.73189 10.9228,9.35026 4.6666,5.73189 28.1861,56.25367 10.9396,10.93963 2.6038,14.10146 5.715,8.8261 7.2706,7.84542 7.3212,10.38165 19.7488,47.93483 8.3696,8.33576 6.7971,7.30435 8.2851,5.7488 34.4082,10.93963 12.4952,1.0314 8.8768,-4.70049 -19.8164,-18.73432 -13.5435,-6.25604 -15.116,2.58696 7.2875,-13.00243 10.4492,0.50724 10.9228,7.7947 8.8599,8.89373 20.3068,26.54592 11.413,10.41547 26.5967,7.84542 6.7632,4.1087 4.1933,7.84541 2.6377,2.07972 2.5531,2.58696 1.0483,4.17633 -1.0483,3.14493 -2.5531,1.55556 -3.1619,1.01449 -2.6038,2.11353 -5.6812,6.27295 -10.9734,8.8261 -9.9083,12.49518 -4.6835,4.68358 -5.715,3.14493 -6.7633,0.50725 5.715,-4.15943 1.5724,-4.17633 -2.0797,-2.58696 -5.2077,0 -12.0556,4.70049 -10.872,6.22223 7.7947,15.65702 37.5194,36.45414 22.9444,30.18119 46.8358,46.3624197 13.6112,9.9082183 15.5724,7.287447 17.1788,3.144931 18.2271,0.524155 3.1449,-1.04831 9.8744,-6.239137 4.2271,2.062804 2.0797,3.144931 1.5555,4.142516 7.2875,13.053153 3.1449,2.586959 29.116,6.239137 104.2223,39.074918 35.4397,2.637684 78.674,21.321274 14.0338,-0.50724 4.1256,1.0314 8.3527,5.20773 27.6449,7.32127 28.1353,2.58696 16.6039,4.68358 29.2005,16.16426 13.5266,12.49518 11.9879,16.67152 20.3575,35.40583 10.9227,15.13287 11.988,9.35025 30.7391,13.05315 23.9759,16.14736 z m -1316.982,-2055.05994 8.3865,-9.9421 -5.7826,19.2754 0.5241,12.5628 3.7029,11.4131 -2.1135,3.1111 -2.6377,5.2246 -1.5555,2.0797 -0.5242,1.0483 0,1.5556 -0.5072,1.0483 -2.0459,0 1.5555,-14.5918 -0.5241,-17.1957 1.5217,-15.5893 z m 1122.1485,2569.72954 9.3841,-1.55556 0.9806,0 4.1933,1.03141 1.5555,0.52415 -4.6497,7.8116 -4.2271,9.38407 -4.1256,6.23914 -4.7005,-2.06281 -4.6836,-9.90822 0.4904,-7.28745 5.7826,-4.17633 z m -184.9422,-2039.96094 -8.3189,7.8285 -20.3406,28.6595 -1.0483,0.9806 0,1.0314 -0.5072,0.558 -1.5725,0 -1.5556,-8.3188 -4.1932,-6.273 -6.2391,-5.2246 -2.0797,3.1787 -3.6353,-2.1135 -2.6208,-3.6353 1.5556,-2.0797 3.1449,-2.1135 0,-4.1594 -2.0797,-4.6836 -2.0797,-3.6353 2.57,0 -2.57,-3.6353 2.57,-8.3526 1.5894,-2.6208 3.0942,0.5411 11.9879,6.2391 4.1933,3.128 4.7005,1.5556 6.7633,0 23.9758,-12.4783 14,-4.1932 9.9083,5.7488 0.5241,11.4468 -10.4324,3.145 -21.3043,-0.5242 z m 1173.1437,641.24451 -8.9107,14.60871 -1.5217,7.79469 -2.1135,8.87682 -5.1571,1.53865 -6.8309,-0.50725 -6.2053,3.14493 7.2367,3.09421 0.5918,7.8116 -3.6691,8.87682 -4.1594,5.71498 -3.1449,1.55556 -6.2392,1.0314 -2.0797,1.08213 -4.227,4.12561 -2.0459,2.63768 -2.5701,4.17633 -11.4976,7.81161 -2.57,3.65217 1.5386,7.28745 -2.6038,3.09421 -2.6039,-2.06281 0.5241,-7.8116 -4.1594,-6.23914 -3.1449,-3.65217 -2.6039,-1.57247 -2.6377,2.07971 -0.4903,4.19324 1.0483,3.60146 1.0652,1.58937 -9.3502,7.28745 -1.6232,4.70049 -1.0145,6.25604 -4.7005,-2.60387 -6.7633,-5.71498 -5.7488,-2.63768 -4.6836,-0.50725 -16.6884,0.50725 -40.0894,-4.17633 -9.8744,4.17633 -28.6595,-6.25605 -5.2246,-6.74638 -1.0483,-6.25605 -1.5556,-2.63768 0,-2.57005 4.1595,-6.25605 3.669,-3.14493 8.3189,-3.0942 3.1111,-3.16184 -4.6667,-4.68358 -1.5724,-7.27054 -0.5073,-7.8116 -1.5724,-6.28986 16.1811,-5.73189 29.6909,5.73189 16.6715,0 14.0338,-5.73189 67.2102,-44.23193 29.1498,-14.60871 21.4058,2.62077 0.9807,35.42275 3.7029,-2.11353 3.0773,-2.58696 2.6039,-3.14493 1.5894,-3.09421 2.6376,0 -3.669,8.8261 z m -1134.0688,-427.67671 2.0459,4.6836 -3.0773,3.6691 -3.6522,2.5701 -4.7005,1.0314 -7.2874,-1.0314 -2.6546,1.0314 -6.7295,5.7318 -5.715,0.541 -5.7488,-2.5868 -3.7029,-5.2078 -8.8092,1.5218 -11.4637,-3.0773 -11.4469,-5.715 -8.302,-6.7633 -4.7512,3.0942 -8.3188,-6.2391 -3.6691,3.6352 -2.5701,0 -9.9082,-10.9396 -6.2391,-5.2077 -5.7488,-2.1135 -4.6329,-5.7488 0,-12.4445 3.6015,-22.4203 -9.9082,0 -4.1256,-1.0314 -3.1619,-2.6039 -4.7005,3.0942 -4.6497,-0.4903 -4.2271,-2.6039 -3.6014,-3.1449 3.6014,-6.2392 -1.5555,-7.8285 -5.1571,-12.5121 1.5556,-9.8405 4.6667,-5.7488 13.07,-8.8769 2.6039,6.7633 6.7126,2.1136 6.8309,-2.1136 3.0773,-6.7633 4.1932,1.0145 0.4904,0 1.6232,-0.4903 2.57,0 6.2391,2.6377 7.2706,-5.7488 7.8623,-7.3213 7.2706,-3.6014 3.1618,13.5096 4.6498,11.4469 5.7149,9.9082 6.7802,8.8599 1.5556,-2.0797 2.6377,-2.5869 1.5555,-2.1136 4.6836,5.715 11.4638,6.273 5.2077,4.1594 13.0532,19.8164 14.558,9.3841 2.0459,3.1111 1.0652,8.3527 3.6183,6.7295 5.7488,4.1932 6.8141,0.4903 -6.8141,17.703 -2.57,10.4492 z m 757.9621,354.21045 -23.4517,14.10146 -12.0218,3.65218 -5.698,-2.60387 -12.4614,-13.03624 -7.3551,-3.12802 -28.6763,0 -11.9542,3.12802 -13.0362,7.30435 -10.9058,10.41547 -4.6836,11.97103 0.5242,10.95653 3.0773,4.17633 13.07,3.09421 6.7464,3.16184 2.0797,1.53865 2.6377,2.57005 1.5217,4.19324 -0.4903,4.17633 0.4903,3.66909 4.1933,3.0942 0,3.14494 -31.8044,-8.87683 -14.558,2.63769 1.0483,17.16185 3.0773,0 4.7512,-2.60387 5.1571,4.17634 5.7488,6.23913 6.2391,3.14493 5.2077,1.03141 14.6425,6.7802 4.1257,3.0942 -5.1909,3.14493 -1.0145,-0.50724 -2.1135,-2.07972 -5.7488,7.28745 -42.2029,-18.75123 -22.9276,-5.71498 -23.4179,-2.11353 -13.0362,-3.66908 -25.0073,-16.62079 -11.9541,-5.78262 -4.1933,-0.52415 -8.285,0.52415 -1.6232,-1.0314 -2.57,-4.64976 -1.5894,-1.06522 -6.2053,-1.57246 -4.7512,-3.66909 -4.6329,-4.63286 -5.7319,-4.70048 -12.5628,-6.25605 -3.0604,-0.50725 -2.6208,-2.62077 -8.3526,-9.92513 -1.5387,-1.0314 -1.5555,-2.58696 -9.9083,-9.89132 -2.0797,-0.52415 -4.7343,1.0314 -2.0797,-0.50725 -1.0145,-1.57246 -3.1111,-6.74639 -1.5725,-2.63768 -13.0193,-14.05074 -6.7633,-5.73189 -7.3382,-2.62077 -8.3188,-1.03141 -6.2392,-3.16184 -20.3406,-21.82852 -7.2705,-4.68358 -8.8261,-2.13044 -29.7416,-18.71741 -2.5869,-7.82851 -0.4904,-10.92272 2.0459,-9.41788 7.3382,-6.23914 3.6184,-9.38407 4.1763,-3.11111 2.5701,0.50725 11.4637,6.79711 2.1136,-5.20774 2.57,-1.58937 3.1449,2.11353 3.0942,4.68358 10.9735,-11.46378 -3.6691,-2.11353 -1.5556,-3.61836 1.0314,-4.21015 1.0484,-1.0145 7.8285,-13.54349 11.4637,1.55556 10.4324,10.95653 4.6498,14.60871 5.7488,6.23914 26.5459,15.08214 8.8937,3.14493 10.9228,-3.14493 14.0676,-8.31885 11.9541,-10.95653 4.7343,-10.93963 -6.256,-12.96861 -1.0483,-8.92754 6.2729,-3.60146 4.1594,-29.21742 10.4324,-12.98548 16.0967,-6.2392 36.4879,-2.6038 4.1933,0.5241 6.2053,2.6039 5.2584,0.5072 3.6184,-1.0314 6.256,-5.2077 4.1595,-1.0314 3.0942,-2.1135 1.0314,-4.6498 1.0821,-6.273 2.0797,-4.7004 2.6208,-2.0798 6.2391,-3.128 2.6039,-2.0459 11.4638,-16.7222 1.5724,-2.0797 3.6353,1.5555 3.6691,2.6039 1.5556,1.5894 3.128,5.2246 16.0966,13.5266 38.0435,23.4517 13.0701,14.03384 6.7295,21.89616 1.5555,-1.55556 4.1933,-2.63768 3.6352,29.69085 13.0194,25.53143 17.1956,20.86475 16.6546,15.62321 -3.1111,8.35266 1.5894,8.31885 4.6498,6.20532 6.7802,2.65459 5.7657,3.09421 4.1425,7.32126 5.7319,15.09905 -2.6377,6.72948 1.099,3.16184 2.5701,2.0628 0.558,3.16184 -0.558,4.17634 -1.5556,4.19324 -0.4903,4.12561 2.6039,5.73189 -14.0677,1.01449" /></g></g></svg>