<?xml version="1.0" encoding="UTF-8" standalone="no"?>
<!-- Created with Inkscape (http://www.inkscape.org/) -->

<svg
   version="1.1"
   id="svg1"
   width="464.31287"
   height="268.21198"
   viewBox="0 0 464.31287 268.21198"
   sodipodi:docname="pa.svg"
   inkscape:version="1.4.3 (0d15f75, 2025-12-25)"
   xmlns:inkscape="http://www.inkscape.org/namespaces/inkscape"
   xmlns:sodipodi="http://sodipodi.sourceforge.net/DTD/sodipodi-0.dtd"
   xmlns:xlink="http://www.w3.org/1999/xlink"
   xmlns="http://www.w3.org/2000/svg"
   xmlns:svg="http://www.w3.org/2000/svg">
  <sodipodi:namedview
     id="namedview1"
     pagecolor="#ffffff"
     bordercolor="#000000"
     borderopacity="0.25"
     inkscape:showpageshadow="2"
     inkscape:pageopacity="0.0"
     inkscape:pagecheckerboard="0"
     inkscape:deskcolor="#d1d1d1"
     inkscape:zoom="1.1306356"
     inkscape:cx="504.58345"
     inkscape:cy="136.6488"
     inkscape:window-width="2560"
     inkscape:window-height="1494"
     inkscape:window-x="-11"
     inkscape:window-y="1609"
     inkscape:window-maximized="1"
     inkscape:current-layer="svg1" />
  <defs
     id="defs1">
    <linearGradient
       id="swatch7"
       inkscape:swatch="solid">
      <stop
         style="stop-color:#bababa;stop-opacity:1;"
         offset="0"
         id="stop7" />
    </linearGradient>
    <linearGradient
       inkscape:collect="always"
       xlink:href="#swatch7"
       id="linearGradient7"
       x1="247.02885"
       y1="360.35253"
       x2="711.34173"
       y2="360.35253"
       gradientUnits="userSpaceOnUse" />
  </defs>
  <g
     id="layer-MC0"
     transform="translate(-247.02885,-226.24654)">
    <path
       id="path1"
       d="M 0,0 H 720 V 540 H 0 Z"
       style="fill:#f9f9f9;fill-opacity:1;fill-rule:nonzero;stroke:none"
       transform="matrix(1.3333333,0,0,-1.3333333,0,720)" />
  </g>
  <g
     id="layer-MC1"
     transform="translate(-247.02885,-226.24654)"
     style="fill:url(#linearGradient7)">
    <path
       id="path2"
       d="M 0,0 -0.92,1.709 -1.449,2.483 -1.906,3.766 -2.229,4.387 -2.666,4.655 -3.354,4.466 -3.938,4.181 -4.576,4.193 -5.35,4.898 -6.5,5.616 -9.434,5.434 l -1.449,0.305 -0.844,0.766 -0.584,0.894 -0.744,0.749 -2.664,0.657 -1.023,0.901 -0.815,1.241 -3.017,6.536 -0.762,0.754 -0.178,0.822 0.371,4.113 0.02,1.649 -0.828,3.02 0.195,0.747 0.809,0.676 0.195,0.761 -0.262,1.747 -0.724,0.718 -1.047,0.377 -1.235,0.681 1.364,1.73 0.242,0.742 -0.754,0.304 -0.566,0.34 -0.866,1.503 -1.623,0.597 -1.308,1.131 -0.76,0.25 -3.305,-0.541 -0.986,0.76 -0.354,1.777 -0.121,2.002 -0.359,1.479 -1.266,0.882 -1.875,0.894 -1.429,1.102 0.037,1.078 c -8.822,0 -17.643,0.011 -26.464,0.018 -8.498,0.007 -16.995,0.012 -25.492,0.019 -9.008,0.006 -18.015,0.012 -27.023,0.019 -9.071,0.008 -18.141,0.015 -27.213,0.021 -8.684,0.005 -17.369,0.014 -26.053,0.02 -8.409,0.007 -16.818,0.019 -25.227,0.025 -8.967,0.006 -17.933,0.013 -26.9,0.02 -9.07,0.007 -18.139,0.012 -27.209,0.02 -8.754,0.007 -17.507,0.014 -26.26,0.02 -8.6,0.005 -17.199,0.012 -25.799,0.012 h -0.99 c 0,7.197 -0.019,14.394 -0.019,21.591 l -7.54,-3.121 -2.616,-1.949 -2.471,-0.815 -2.701,-2.27 -2.544,-0.937 -2.946,-1.916 -1.448,-0.451 v 0.597 l 0.371,0.359 0.737,1.065 0.304,0.224 1.467,0.037 0.632,0.305 0.566,0.705 -1.345,0.585 -1.107,-0.657 -0.974,-1.035 -1.502,-0.962 -0.773,-1.85 -0.64,-0.42 -0.529,-0.175 -1.71,-1.473 -9.877,-5.526 -3.797,-0.797 -0.9,-0.548 -0.95,-0.803 -2.988,-1.005 V -70.623 c 0,-4.488 -0.01,-8.977 0.003,-13.465 0.025,-9.082 -0.007,-18.165 0.026,-27.247 0.022,-6.144 0.008,-12.286 0.008,-18.43 8.67,0.006 17.339,0 26.008,0.007 9.19,0.009 18.381,0.011 27.571,0.011 h 54.882 c 7.626,0 15.253,-0.006 22.879,-0.006 9.214,0 18.428,-0.007 27.642,-0.007 h 29.093 c 7.246,0 14.493,-0.005 21.738,-0.005 9.78,0 19.559,0.006 29.34,-0.004 9.226,-0.009 18.453,-0.002 27.679,-0.002 5.465,0 10.93,-0.001 16.395,-0.006 l 0.457,-0.019 0.109,0.122 c 1.368,2.265 2.753,4.52 4.131,6.778 l 1.059,1.084 1.339,0.859 1.114,0.554 1.912,0.571 1.336,0.225 2.648,0.104 2.848,-0.414 2.185,-0.736 1.735,-1.096 c 0.346,-0.313 0.695,-0.623 1.041,-0.937 l 1.588,2.081 0.918,0.42 1.041,0.261 3.693,1.809 1.449,-0.584 1.465,0.237 2.436,1.411 3.603,1.333 0.846,0.791 -0.318,1.619 0.353,1.752 0.797,1.413 1.023,0.571 1.346,0.378 1.994,1.764 1.377,0.561 2.08,0.997 0.817,0.548 2.347,2.641 0.92,0.596 2.258,0.718 0.602,0.292 2.082,1.875 0.564,0.303 1.524,0.214 1.976,0.645 1.729,1.077 0.742,1.521 -0.633,1.692 -1.522,1.668 -3.195,2.768 -1.873,2.307 -2.016,2.873 -0.195,0.462 -0.547,0.742 -3.121,2.776 -0.834,3.017 -0.773,1.332 -2.348,-0.881 -1.326,0.925 -1.096,1.582 -0.597,1.46 -0.446,6.098 -1.021,2.081 -3.035,0.968 -1.789,-0.347 -0.756,0.321 -0.461,2.18 -0.244,0.82 -0.11,0.829 0.285,0.779 -0.232,2.484 0.057,0.766 0.175,0.584 -0.232,0.791 -0.193,0.986 0.23,1.06 0.811,2.251 -0.176,0.042 -0.233,0.559 -0.068,0.651 0.281,0.304 0.444,0.263 0.402,0.614 0.547,1.328 1.096,-0.511 1.222,0.132 0.987,0.786 0.408,1.443 0.299,1.898 0.724,0.766 0.834,0.579 0.596,1.356 -0.232,1.51 -0.846,1.35 -0.936,1.072 -0.439,0.669 -0.11,0.462 -0.242,0.256 -0.353,0.097 -0.354,0.012 -0.232,0.121 0.019,0.293 0.055,0.354 -0.055,0.315 -0.687,0.975 -0.354,0.627 -0.138,0.553 0.632,1.247 1.338,1.242 1.436,0.956 0.883,0.377 1.32,0.365 1.115,0.913 2.457,3.103 0.207,0.086 0.037,0.206 -0.037,0.968 0.25,0.383 0.584,0.45 0.616,0.384 0.425,0.164 0.78,0.646 3.101,4.211 1.42,3.487 0.576,2.196 0.057,0.56 0.443,1.059 3.231,3.03 0.121,0.218 0.318,0.781 0.176,0.327 0.318,0.22 0.637,0.08 0.809,0.723 0.603,0.231 1.346,0.08 1.18,0.779 -0.036,0.14 z"
       style="fill:url(#linearGradient7);fill-rule:nonzero;stroke:none"
       transform="matrix(1.3333333,0,0,-1.3333333,710.8724,321.3972)" />
  </g>
</svg>
